<?xml version="1.0" encoding="utf-8"?>
<!DOCTYPE svg PUBLIC "-//W3C//DTD SVG 1.0//EN" "http://www.w3.org/TR/2001/REC-SVG-20010904/DTD/svg10.dtd">
<svg version="1.0" xmlns="http://www.w3.org/2000/svg" width="256px" height="256px" viewBox="0 0 256 256" preserveAspectRatio="xMidYMid meet">
 <g fill="#000000">
  <path d="M118.35 168.40 c-1.50 -2.55 -7.50 -12.95 -13.35 -23.15 -5.85 -10.15 -14.25 -24.70 -18.65 -32.25 l-8 -13.75 1.15 -2 c3.75 -6.70 8.25 -14.25 8.50 -14.25 0.15 0.05 3 4.80 6.30 10.65 3.35 5.85 10.75 18.70 16.50 28.60 29.80 51.60 29.15 50.50 28.10 50.65 -1.10 0.20 -2.80 -1.50 -3.20 -3.25 -0.20 -0.65 -0.50 -1.15 -0.70 -1.15 -0.25 0 -0.70 -0.80 -1.05 -1.75 -0.35 -0.95 -0.80 -1.75 -1 -1.75 -0.20 0 -0.65 -0.80 -1 -1.75 -0.35 -0.95 -0.80 -1.75 -0.95 -1.75 -0.15 0 -0.95 -1.30 -1.75 -2.85 -0.85 -1.60 -1.65 -3 -1.80 -3.15 -0.60 -0.55 -8.95 -15.35 -8.95 -15.90 0 -0.35 -0.20 -0.60 -0.45 -0.60 -0.25 0 -0.75 -0.75 -1.10 -1.60 -0.35 -0.90 -0.95 -1.95 -1.30 -2.30 -0.35 -0.35 -0.65 -1 -0.65 -1.40 0 -0.40 -0.20 -0.70 -0.40 -0.70 -0.55 0 -1.60 -2.30 -1.60 -3.50 0 -0.55 -0.30 -1 -0.70 -1 -0.40 0 -0.90 -0.50 -1.10 -1.10 -0.20 -0.65 -0.50 -1.25 -0.70 -1.40 -0.45 -0.30 -9.80 -16.45 -10.60 -18.35 -0.35 -0.75 -0.90 -1.70 -1.25 -2.05 -0.35 -0.35 -0.65 -1 -0.65 -1.40 0 -0.40 -0.20 -0.70 -0.45 -0.70 -0.25 0 -0.75 -0.80 -1.10 -1.75 -0.35 -0.95 -0.80 -1.75 -0.95 -1.75 -0.15 0 -0.95 -1.30 -1.75 -2.85 -0.85 -1.60 -1.80 -3.15 -2.10 -3.55 -0.35 -0.35 -0.80 -1.20 -0.95 -1.90 -0.15 -0.65 -0.50 -1.20 -0.70 -1.20 -0.25 0 -0.70 -0.75 -1.05 -1.70 -0.70 -1.90 -1.70 -1.90 -2.15 -0.05 -0.15 0.65 -0.60 1.50 -0.95 1.85 -0.30 0.40 -1.40 2.20 -2.35 4.05 -0.95 1.85 -1.90 3.35 -2.10 3.35 -0.85 0 -0.25 1.40 3.10 7.20 1.95 3.35 3.50 6.35 3.50 6.70 0 0.35 0.20 0.60 0.45 0.60 0.25 0 0.65 0.50 0.85 1.15 0.20 0.60 0.50 1.20 0.70 1.35 0.80 0.55 3 4.90 3 5.90 0 0.60 0.30 1.10 0.70 1.10 0.40 0 0.90 0.50 1.10 1.15 0.20 0.60 0.50 1.20 0.70 1.35 0.60 0.45 7.50 12.75 7.50 13.40 0 0.30 0.20 0.60 0.50 0.60 0.25 0 0.60 0.55 0.80 1.25 0.15 0.70 0.50 1.25 0.70 1.25 0.25 0 0.70 0.80 1.05 1.75 0.35 0.95 0.80 1.75 0.95 1.75 0.15 0 0.95 1.30 1.75 2.85 0.85 1.60 1.75 3.15 2.10 3.50 0.30 0.35 0.75 1.15 0.95 1.80 0.20 0.60 0.50 1.20 0.70 1.35 0.80 0.60 10 17.10 10 18 0 2.15 -1.60 0.80 -4.15 -3.60z"/>
  <path d="M156.45 171.60 c-0.45 -0.75 -4.10 -7.10 -8.15 -14.10 -4.05 -7 -8.25 -14.20 -9.30 -16 -1.05 -1.80 -3.25 -5.60 -4.90 -8.50 l-3.05 -5.25 7.35 -0.30 c7.85 -0.30 9.65 -0.80 12.55 -3.20 2.35 -2 3.45 -3.85 4.30 -7.20 0.65 -2.55 0.70 -3.55 0.20 -6.05 -1.30 -6.55 -5.35 -10.05 -13.05 -11.25 -2.75 -0.45 -2.55 -1.75 0.25 -1.75 2.15 0 5.90 0.85 6.35 1.45 0.15 0.15 0.95 0.55 1.75 0.80 0.95 0.35 1.55 0.90 1.65 1.65 0.10 0.70 0.50 1.10 1.15 1.10 0.55 0 1.15 0.40 1.30 0.90 0.20 0.45 0.60 1.15 0.95 1.45 0.85 0.85 1.70 5.15 1.70 8.45 0 3.10 -0.90 7.20 -1.55 7.20 -0.25 0 -0.45 0.45 -0.45 1 0 0.55 -0.15 1 -0.40 1 -0.20 0 -0.60 0.50 -0.85 1.15 -0.30 0.60 -1 1.30 -1.60 1.60 -0.65 0.25 -1.15 0.65 -1.15 0.85 0 0.25 -0.45 0.40 -1 0.40 -0.55 0 -1 0.20 -1 0.50 0 0.80 -3.55 1.55 -9.15 1.85 -2.95 0.15 -5.30 0.45 -5.25 0.60 0.10 0.15 0.75 1.45 1.40 2.80 0.70 1.40 1.40 2.60 1.55 2.75 0.15 0.15 0.95 1.50 1.75 3 0.80 1.50 1.60 2.85 1.75 3 0.90 0.80 15.95 27.65 15.95 28.45 0 0.60 0.35 1.05 0.75 1.05 0.40 0 0.75 0.45 0.75 1 0 1.50 -1.60 1.25 -2.55 -0.40z"/>
  <path d="M174.90 171.95 c-0.45 -0.55 -1.35 -2.10 -2 -3.35 -0.60 -1.30 -1.45 -2.65 -1.75 -3 -0.35 -0.35 -0.65 -1 -0.65 -1.40 0 -0.40 -0.15 -0.70 -0.35 -0.70 -0.25 0 -1.20 -1.50 -2.15 -3.35 -0.95 -1.85 -2 -3.65 -2.35 -4 -0.30 -0.35 -0.75 -1.15 -0.95 -1.80 -0.20 -0.60 -0.50 -1.20 -0.70 -1.35 -0.20 -0.15 -1.85 -2.85 -3.70 -6.05 -4.20 -7.35 -4.40 -9.05 -1.15 -10.95 1.15 -0.70 2.30 -1.35 2.55 -1.45 0.30 -0.10 1.05 -0.85 1.70 -1.60 0.65 -0.80 1.60 -1.45 2.15 -1.45 0.65 0 0.95 -0.35 0.95 -1.20 0 -0.65 0.20 -1.30 0.40 -1.40 0.65 -0.30 3.15 -6.30 3.75 -9.15 0.40 -2.10 0.75 -2.75 1.45 -2.75 1.15 0 1.15 1.15 0.10 5.15 -1.60 6.15 -5.30 11.50 -10.35 14.90 -1.70 1.10 -3.05 2.30 -2.95 2.55 0.15 0.55 10.35 18.40 15.45 27.05 1.70 2.95 3.15 5.60 3.15 5.85 0 0.90 -1.75 0.50 -2.60 -0.55z"/>
  <path d="M170.35 106.10 c-0.50 -1.85 -1.65 -4.70 -2.60 -6.25 -0.95 -1.60 -1.75 -3 -1.75 -3.10 0 -0.60 -5.50 -5.25 -8.15 -6.90 -3.55 -2.15 -10 -4.35 -12.90 -4.35 -1.60 0 -1.95 -0.15 -1.95 -1 0 -0.85 0.35 -1 1.90 -1 1.10 0 3.65 0.45 5.80 1 10.60 2.70 18.55 10.10 21.35 19.85 1.20 4.20 1.20 5.15 0.05 5.15 -0.65 0 -1.10 -0.80 -1.75 -3.40z"/>
  <path d="M110.25 91.70 c-2.45 -4.25 -4.55 -8 -4.65 -8.25 -0.20 -0.50 10.95 -0.65 12.80 -0.15 0.60 0.20 1.10 0.65 1.10 1 0 0.55 -1.10 0.70 -5.20 0.70 l-5.25 0 2.25 3.85 c1.20 2.15 2.20 4.20 2.20 4.55 0 0.30 0.20 0.60 0.40 0.60 0.55 0 2.60 3.70 2.60 4.70 0 0.45 -0.40 0.80 -0.85 0.80 -0.65 0 -2.30 -2.45 -5.40 -7.80z"/>
 </g>
 <g fill="#ffffff">
  <path d="M111.25 155.65 c-5.50 -9.55 -12.20 -21.15 -14.90 -25.85 -6.30 -10.90 -9.90 -17.15 -14.05 -24.20 -1.80 -3.15 -3.30 -6 -3.30 -6.40 0 -0.85 8.45 -15.70 8.90 -15.70 0.20 0 3.50 5.50 7.30 12.15 3.80 6.65 9.80 17.05 13.30 23.10 16.20 27.95 31 53.70 31 53.95 0 0.15 -4.10 0.30 -9.10 0.30 l-9.15 0 -10 -17.35z"/>
  <path d="M156.80 171.90 c-0.35 -0.65 -5.45 -9.45 -11.30 -19.65 -5.85 -10.15 -11.40 -19.75 -12.30 -21.25 -0.90 -1.50 -1.55 -2.85 -1.40 -2.95 0.10 -0.10 2.85 -0.25 6.10 -0.35 6.90 -0.10 9.15 -0.65 12.40 -2.85 3.60 -2.40 5.45 -6.30 5.40 -11.30 0 -2.30 -0.35 -4.55 -0.80 -5.60 -1.20 -2.80 -4.15 -5.70 -7.05 -7 -2.50 -1.15 -3.05 -1.20 -17.70 -1.35 l-15.05 -0.15 -2 -3.35 c-3.95 -6.70 -7.10 -12.20 -7.10 -12.45 0 -0.10 9.50 -0.15 21.15 -0.05 l21.10 0.20 4 1.35 c13.20 4.35 20.75 14.65 20.75 28.15 0 10.65 -4.40 19.50 -11.95 23.95 -1.70 1 -2.50 1.75 -2.40 2.30 0.15 0.45 4.40 8.05 9.55 16.90 5.10 8.85 9.30 16.20 9.30 16.30 0 0.15 -4.50 0.25 -10 0.25 -9.80 0 -10 0 -10.70 -1.10z"/>
 </g>
</svg>