<?xml version="1.0" encoding="UTF-8"?>
<svg version="1.1" viewBox="0 0 2048 2048" width="45" height="45" fill = '#FFC700' xmlns="http://www.w3.org/2000/svg">
<path transform="translate(0)" d="m0 0h2048v33l-2 1-9 97-11 122-22 242-11 119-11 123-22 242-11 119-7 79-63 693-2 7-5 2-800 160-37 8-3 1h-17l-24-6-106-21-211-42-500-100-4-2-5-49-66-726-45-496-13-142-24-264-12-133-4-40-1-4zm812 341-43 1-1 21v1112l-22-5-100-20-7-74-8-89-1-6-3-1h-167v12l11 120 16 176 1 4 28 6 221 44 200 40h1v-1340l-35-1zm330 0-32 1v767l75 1h74l174-1-22 242-9 98-5 2-286 57-1 1v173l27-5 204-41 216-43 3-2 6-61 11-123 10-108 6-68 6-64 6-68 9-97 5-54v-9l-338-1-1-2v-423l1-1 377-1 2-16 6-66 7-78 1-9-70-1z"/>
<path transform="translate(1010,2047)" d="m0 0"/>
</svg>
