<svg width="600" height="600" viewBox="0 0 600 600" fill="none" xmlns="http://www.w3.org/2000/svg">
<g style="mix-blend-mode:darken">
<path d="M600 458.877H0V459.177H600V458.877Z" fill="#EBEBEB"/>
<path d="M539.881 478.193H500.135V478.493H539.881V478.193Z" fill="#EBEBEB"/>
<path d="M397.464 481.45H387.032V481.75H397.464V481.45Z" fill="#EBEBEB"/>
<path d="M498.934 467.05H475.903V467.35H498.934V467.05Z" fill="#EBEBEB"/>
<path d="M114.782 469.065H62.9508V469.365H114.782V469.065Z" fill="#EBEBEB"/>
<path d="M133.067 469.065H125.467V469.365H133.067V469.065Z" fill="#EBEBEB"/>
<path d="M270.176 474.134H157.765V474.434H270.176V474.134Z" fill="#EBEBEB"/>
<path d="M284.417 405.36H52.698C48.9216 405.36 45.8484 402.287 45.8484 398.51V72.792C45.8484 69.0156 48.9216 65.9424 52.698 65.9424H284.417C288.192 65.9424 291.265 69.0156 291.265 72.792V398.51C291.265 402.287 288.192 405.36 284.417 405.36ZM52.698 66.2436C49.086 66.2436 46.1484 69.1812 46.1484 72.7932V398.512C46.1484 402.124 49.086 405.061 52.698 405.061H284.417C288.028 405.061 290.965 402.124 290.965 398.512V72.792C290.965 69.1812 288.028 66.2424 284.417 66.2424L52.698 66.2436Z" fill="#EBEBEB"/>
<path d="M543.972 405.36H312.254C308.478 405.36 305.406 402.287 305.406 398.51V72.792C305.406 69.0156 308.479 65.9424 312.254 65.9424H543.972C547.75 65.9424 550.822 69.0156 550.822 72.792V398.51C550.823 402.287 547.75 405.36 543.972 405.36ZM312.254 66.2436C308.644 66.2436 305.706 69.1812 305.706 72.7932V398.512C305.706 402.124 308.644 405.061 312.254 405.061H543.972C547.584 405.061 550.522 402.124 550.522 398.512V72.792C550.522 69.1812 547.584 66.2424 543.972 66.2424L312.254 66.2436Z" fill="#EBEBEB"/>
<path d="M534.504 140.611H243.767V420.858H534.504V140.611Z" fill="#E0E0E0"/>
<path d="M534.504 145.701H248.432V415.971H534.504V145.701Z" fill="#F5F5F5"/>
<path d="M250.543 350.514V269.223H258.989V258.485L277.993 249.597V238.606H281.16V269.223H284.327V350.514H288.55V308.285H298.051V286.114H301.219V350.514H308.609V326.232H313.888V319.897H325.501V297.727H331.836V282.947H339.226V260.777H342.392V282.947H349.783V297.727H356.118V319.897H367.73V326.232H373.009V350.514H379.344V319.897H390.956V252.33H394.124V244.941H419.462V252.33H424.741V300.894H445.855V306.173H453.246V309.341H445.855V328.344H468.026V265H472.249V252.33H482.807V203.766H485.974V252.33H493.364V265H534.503V415.971H248.432V350.514H250.543Z" fill="#E6E6E6"/>
<path d="M512.521 268.309H509.53V271.301H512.521V268.309Z" fill="#F0F0F0"/>
<path d="M512.521 273.324H509.53V276.315H512.521V273.324Z" fill="#F0F0F0"/>
<path d="M512.521 293.383H509.53V296.375H512.521V293.383Z" fill="#F0F0F0"/>
<path d="M512.521 298.398H509.53V301.39H512.521V298.398Z" fill="#F0F0F0"/>
<path d="M512.521 303.413H509.53V306.405H512.521V303.413Z" fill="#F0F0F0"/>
<path d="M512.521 318.458H509.53V321.449H512.521V318.458Z" fill="#F0F0F0"/>
<path d="M512.521 323.472H509.53V326.464H512.521V323.472Z" fill="#F0F0F0"/>
<path d="M507.77 288.369H504.779V291.36H507.77V288.369Z" fill="#F0F0F0"/>
<path d="M507.77 293.383H504.779V296.375H507.77V293.383Z" fill="#F0F0F0"/>
<path d="M507.77 298.398H504.779V301.39H507.77V298.398Z" fill="#F0F0F0"/>
<path d="M507.77 303.413H504.779V306.405H507.77V303.413Z" fill="#F0F0F0"/>
<path d="M507.77 308.428H504.779V311.419H507.77V308.428Z" fill="#F0F0F0"/>
<path d="M507.77 318.458H504.779V321.449H507.77V318.458Z" fill="#F0F0F0"/>
<path d="M507.77 323.472H504.779V326.464H507.77V323.472Z" fill="#F0F0F0"/>
<path d="M503.02 268.309H500.028V271.301H503.02V268.309Z" fill="#F0F0F0"/>
<path d="M503.02 273.324H500.028V276.315H503.02V273.324Z" fill="#F0F0F0"/>
<path d="M503.02 278.339H500.028V281.33H503.02V278.339Z" fill="#F0F0F0"/>
<path d="M503.02 283.354H500.028V286.345H503.02V283.354Z" fill="#F0F0F0"/>
<path d="M503.02 288.369H500.028V291.36H503.02V288.369Z" fill="#F0F0F0"/>
<path d="M503.02 293.383H500.028V296.375H503.02V293.383Z" fill="#F0F0F0"/>
<path d="M503.02 298.398H500.028V301.39H503.02V298.398Z" fill="#F0F0F0"/>
<path d="M503.02 303.413H500.028V306.405H503.02V303.413Z" fill="#F0F0F0"/>
<path d="M503.02 308.428H500.028V311.419H503.02V308.428Z" fill="#F0F0F0"/>
<path d="M503.02 313.442H500.028V316.434H503.02V313.442Z" fill="#F0F0F0"/>
<path d="M503.02 323.472H500.028V326.464H503.02V323.472Z" fill="#F0F0F0"/>
<path d="M498.269 268.309H495.277V271.301H498.269V268.309Z" fill="#F0F0F0"/>
<path d="M498.269 273.324H495.277V276.315H498.269V273.324Z" fill="#F0F0F0"/>
<path d="M498.269 278.339H495.277V281.33H498.269V278.339Z" fill="#F0F0F0"/>
<path d="M498.269 283.354H495.277V286.345H498.269V283.354Z" fill="#F0F0F0"/>
<path d="M498.269 288.369H495.277V291.36H498.269V288.369Z" fill="#F0F0F0"/>
<path d="M498.269 293.383H495.277V296.375H498.269V293.383Z" fill="#F0F0F0"/>
<path d="M498.269 298.398H495.277V301.39H498.269V298.398Z" fill="#F0F0F0"/>
<path d="M498.269 343.532H495.277V346.523H498.269V343.532Z" fill="#F0F0F0"/>
<path d="M493.518 268.309H490.526V271.301H493.518V268.309Z" fill="#F0F0F0"/>
<path d="M493.518 273.324H490.526V276.315H493.518V273.324Z" fill="#F0F0F0"/>
<path d="M493.518 278.339H490.526V281.33H493.518V278.339Z" fill="#F0F0F0"/>
<path d="M493.518 283.354H490.526V286.345H493.518V283.354Z" fill="#F0F0F0"/>
<path d="M493.518 288.369H490.526V291.36H493.518V288.369Z" fill="#F0F0F0"/>
<path d="M493.518 293.383H490.526V296.375H493.518V293.383Z" fill="#F0F0F0"/>
<path d="M493.518 298.398H490.526V301.39H493.518V298.398Z" fill="#F0F0F0"/>
<path d="M493.518 303.413H490.526V306.405H493.518V303.413Z" fill="#F0F0F0"/>
<path d="M493.518 333.502H490.526V336.494H493.518V333.502Z" fill="#F0F0F0"/>
<path d="M493.518 338.517H490.526V341.508H493.518V338.517Z" fill="#F0F0F0"/>
<path d="M493.518 343.532H490.526V346.523H493.518V343.532Z" fill="#F0F0F0"/>
<path d="M493.518 348.546H490.526V351.538H493.518V348.546Z" fill="#F0F0F0"/>
<path d="M493.518 368.605H490.526V371.597H493.518V368.605Z" fill="#F0F0F0"/>
<path d="M488.767 268.309H485.776V271.301H488.767V268.309Z" fill="#F0F0F0"/>
<path d="M488.767 273.324H485.776V276.315H488.767V273.324Z" fill="#F0F0F0"/>
<path d="M488.767 278.339H485.776V281.33H488.767V278.339Z" fill="#F0F0F0"/>
<path d="M488.767 283.354H485.776V286.345H488.767V283.354Z" fill="#F0F0F0"/>
<path d="M488.767 288.369H485.776V291.36H488.767V288.369Z" fill="#F0F0F0"/>
<path d="M488.767 293.383H485.776V296.375H488.767V293.383Z" fill="#F0F0F0"/>
<path d="M488.767 298.398H485.776V301.39H488.767V298.398Z" fill="#F0F0F0"/>
<path d="M488.767 303.413H485.776V306.405H488.767V303.413Z" fill="#F0F0F0"/>
<path d="M488.767 308.428H485.776V311.419H488.767V308.428Z" fill="#F0F0F0"/>
<path d="M488.767 313.442H485.776V316.434H488.767V313.442Z" fill="#F0F0F0"/>
<path d="M488.767 328.487H485.776V331.479H488.767V328.487Z" fill="#F0F0F0"/>
<path d="M488.767 333.502H485.776V336.494H488.767V333.502Z" fill="#F0F0F0"/>
<path d="M488.767 338.517H485.776V341.508H488.767V338.517Z" fill="#F0F0F0"/>
<path d="M488.767 343.532H485.776V346.523H488.767V343.532Z" fill="#F0F0F0"/>
<path d="M488.767 348.546H485.776V351.538H488.767V348.546Z" fill="#F0F0F0"/>
<path d="M488.767 368.605H485.776V371.597H488.767V368.605Z" fill="#F0F0F0"/>
<path d="M484.015 268.309H481.024V271.301H484.015V268.309Z" fill="#F0F0F0"/>
<path d="M484.015 273.324H481.024V276.315H484.015V273.324Z" fill="#F0F0F0"/>
<path d="M484.015 278.339H481.024V281.33H484.015V278.339Z" fill="#F0F0F0"/>
<path d="M484.015 283.354H481.024V286.345H484.015V283.354Z" fill="#F0F0F0"/>
<path d="M484.015 288.369H481.024V291.36H484.015V288.369Z" fill="#F0F0F0"/>
<path d="M484.015 293.383H481.024V296.375H484.015V293.383Z" fill="#F0F0F0"/>
<path d="M484.015 298.398H481.024V301.39H484.015V298.398Z" fill="#F0F0F0"/>
<path d="M484.015 303.413H481.024V306.405H484.015V303.413Z" fill="#F0F0F0"/>
<path d="M484.015 308.428H481.024V311.419H484.015V308.428Z" fill="#F0F0F0"/>
<path d="M484.015 313.442H481.024V316.434H484.015V313.442Z" fill="#F0F0F0"/>
<path d="M484.015 318.458H481.024V321.449H484.015V318.458Z" fill="#F0F0F0"/>
<path d="M484.015 323.472H481.024V326.464H484.015V323.472Z" fill="#F0F0F0"/>
<path d="M484.015 328.487H481.024V331.479H484.015V328.487Z" fill="#F0F0F0"/>
<path d="M484.015 333.502H481.024V336.494H484.015V333.502Z" fill="#F0F0F0"/>
<path d="M484.015 338.517H481.024V341.508H484.015V338.517Z" fill="#F0F0F0"/>
<path d="M484.015 343.532H481.024V346.523H484.015V343.532Z" fill="#F0F0F0"/>
<path d="M484.015 348.546H481.024V351.538H484.015V348.546Z" fill="#F0F0F0"/>
<path d="M484.015 353.561H481.024V356.553H484.015V353.561Z" fill="#F0F0F0"/>
<path d="M479.264 268.309H476.273V271.301H479.264V268.309Z" fill="#F0F0F0"/>
<path d="M479.264 273.324H476.273V276.315H479.264V273.324Z" fill="#F0F0F0"/>
<path d="M479.264 278.339H476.273V281.33H479.264V278.339Z" fill="#F0F0F0"/>
<path d="M479.264 283.354H476.273V286.345H479.264V283.354Z" fill="#F0F0F0"/>
<path d="M479.264 288.369H476.273V291.36H479.264V288.369Z" fill="#F0F0F0"/>
<path d="M479.264 293.383H476.273V296.375H479.264V293.383Z" fill="#F0F0F0"/>
<path d="M479.264 298.398H476.273V301.39H479.264V298.398Z" fill="#F0F0F0"/>
<path d="M479.264 303.413H476.273V306.405H479.264V303.413Z" fill="#F0F0F0"/>
<path d="M479.264 308.428H476.273V311.419H479.264V308.428Z" fill="#F0F0F0"/>
<path d="M479.264 313.442H476.273V316.434H479.264V313.442Z" fill="#F0F0F0"/>
<path d="M479.264 328.487H476.273V331.479H479.264V328.487Z" fill="#F0F0F0"/>
<path d="M479.264 333.502H476.273V336.494H479.264V333.502Z" fill="#F0F0F0"/>
<path d="M479.264 338.517H476.273V341.508H479.264V338.517Z" fill="#F0F0F0"/>
<path d="M479.264 343.532H476.273V346.523H479.264V343.532Z" fill="#F0F0F0"/>
<path d="M474.514 268.309H471.522V271.301H474.514V268.309Z" fill="#F0F0F0"/>
<path d="M474.514 273.324H471.522V276.315H474.514V273.324Z" fill="#F0F0F0"/>
<path d="M474.514 278.339H471.522V281.33H474.514V278.339Z" fill="#F0F0F0"/>
<path d="M474.514 283.354H471.522V286.345H474.514V283.354Z" fill="#F0F0F0"/>
<path d="M474.514 288.369H471.522V291.36H474.514V288.369Z" fill="#F0F0F0"/>
<path d="M474.514 293.383H471.522V296.375H474.514V293.383Z" fill="#F0F0F0"/>
<path d="M474.514 298.398H471.522V301.39H474.514V298.398Z" fill="#F0F0F0"/>
<path d="M474.514 303.413H471.522V306.405H474.514V303.413Z" fill="#F0F0F0"/>
<path d="M474.514 308.428H471.522V311.419H474.514V308.428Z" fill="#F0F0F0"/>
<path d="M474.514 313.442H471.522V316.434H474.514V313.442Z" fill="#F0F0F0"/>
<path d="M474.514 328.487H471.522V331.479H474.514V328.487Z" fill="#F0F0F0"/>
<path d="M474.514 333.502H471.522V336.494H474.514V333.502Z" fill="#F0F0F0"/>
<path d="M474.514 338.517H471.522V341.508H474.514V338.517Z" fill="#F0F0F0"/>
<path d="M421.024 255.288H418.032V258.28H421.024V255.288Z" fill="#F0F0F0"/>
<path d="M421.024 260.303H418.032V263.294H421.024V260.303Z" fill="#F0F0F0"/>
<path d="M421.024 265.318H418.032V268.309H421.024V265.318Z" fill="#F0F0F0"/>
<path d="M421.024 270.333H418.032V273.324H421.024V270.333Z" fill="#F0F0F0"/>
<path d="M421.024 275.347H418.032V278.339H421.024V275.347Z" fill="#F0F0F0"/>
<path d="M421.024 280.362H418.032V283.354H421.024V280.362Z" fill="#F0F0F0"/>
<path d="M421.024 285.377H418.032V288.369H421.024V285.377Z" fill="#F0F0F0"/>
<path d="M421.024 290.392H418.032V293.383H421.024V290.392Z" fill="#F0F0F0"/>
<path d="M421.024 305.436H418.032V308.428H421.024V305.436Z" fill="#F0F0F0"/>
<path d="M421.024 310.451H418.032V313.442H421.024V310.451Z" fill="#F0F0F0"/>
<path d="M416.273 255.288H413.281V258.28H416.273V255.288Z" fill="#F0F0F0"/>
<path d="M416.273 260.303H413.281V263.294H416.273V260.303Z" fill="#F0F0F0"/>
<path d="M416.273 265.318H413.281V268.309H416.273V265.318Z" fill="#F0F0F0"/>
<path d="M416.273 270.333H413.281V273.324H416.273V270.333Z" fill="#F0F0F0"/>
<path d="M416.273 275.347H413.281V278.339H416.273V275.347Z" fill="#F0F0F0"/>
<path d="M416.273 280.362H413.281V283.354H416.273V280.362Z" fill="#F0F0F0"/>
<path d="M416.273 285.377H413.281V288.369H416.273V285.377Z" fill="#F0F0F0"/>
<path d="M416.273 290.392H413.281V293.383H416.273V290.392Z" fill="#F0F0F0"/>
<path d="M416.273 310.451H413.281V313.442H416.273V310.451Z" fill="#F0F0F0"/>
<path d="M411.522 255.288H408.53V258.28H411.522V255.288Z" fill="#F0F0F0"/>
<path d="M411.522 260.303H408.53V263.294H411.522V260.303Z" fill="#F0F0F0"/>
<path d="M411.522 265.318H408.53V268.309H411.522V265.318Z" fill="#F0F0F0"/>
<path d="M411.522 270.333H408.53V273.324H411.522V270.333Z" fill="#F0F0F0"/>
<path d="M411.522 275.347H408.53V278.339H411.522V275.347Z" fill="#F0F0F0"/>
<path d="M411.522 280.362H408.53V283.354H411.522V280.362Z" fill="#F0F0F0"/>
<path d="M411.522 285.377H408.53V288.369H411.522V285.377Z" fill="#F0F0F0"/>
<path d="M411.522 290.392H408.53V293.383H411.522V290.392Z" fill="#F0F0F0"/>
<path d="M406.771 255.288H403.78V258.28H406.771V255.288Z" fill="#F0F0F0"/>
<path d="M406.771 260.303H403.78V263.294H406.771V260.303Z" fill="#F0F0F0"/>
<path d="M406.771 265.318H403.78V268.309H406.771V265.318Z" fill="#F0F0F0"/>
<path d="M406.771 270.333H403.78V273.324H406.771V270.333Z" fill="#F0F0F0"/>
<path d="M406.771 275.347H403.78V278.339H406.771V275.347Z" fill="#F0F0F0"/>
<path d="M406.771 280.362H403.78V283.354H406.771V280.362Z" fill="#F0F0F0"/>
<path d="M406.771 290.392H403.78V293.383H406.771V290.392Z" fill="#F0F0F0"/>
<path d="M406.771 295.406H403.78V298.398H406.771V295.406Z" fill="#F0F0F0"/>
<path d="M406.771 310.451H403.78V313.442H406.771V310.451Z" fill="#F0F0F0"/>
<path d="M406.771 315.466H403.78V318.457H406.771V315.466Z" fill="#F0F0F0"/>
<path d="M406.771 320.48H403.78V323.472H406.771V320.48Z" fill="#F0F0F0"/>
<path d="M406.771 325.496H403.78V328.487H406.771V325.496Z" fill="#F0F0F0"/>
<path d="M406.771 330.51H403.78V333.502H406.771V330.51Z" fill="#F0F0F0"/>
<path d="M406.771 335.525H403.78V338.516H406.771V335.525Z" fill="#F0F0F0"/>
<path d="M406.771 340.54H403.78V343.531H406.771V340.54Z" fill="#F0F0F0"/>
<path d="M402.019 255.288H399.028V258.28H402.019V255.288Z" fill="#F0F0F0"/>
<path d="M402.019 260.303H399.028V263.294H402.019V260.303Z" fill="#F0F0F0"/>
<path d="M402.019 265.318H399.028V268.309H402.019V265.318Z" fill="#F0F0F0"/>
<path d="M402.019 270.333H399.028V273.324H402.019V270.333Z" fill="#F0F0F0"/>
<path d="M402.019 275.347H399.028V278.339H402.019V275.347Z" fill="#F0F0F0"/>
<path d="M402.019 280.362H399.028V283.354H402.019V280.362Z" fill="#F0F0F0"/>
<path d="M402.019 295.406H399.028V298.398H402.019V295.406Z" fill="#F0F0F0"/>
<path d="M402.019 300.421H399.028V303.413H402.019V300.421Z" fill="#F0F0F0"/>
<path d="M402.019 305.436H399.028V308.428H402.019V305.436Z" fill="#F0F0F0"/>
<path d="M402.019 310.451H399.028V313.442H402.019V310.451Z" fill="#F0F0F0"/>
<path d="M402.019 315.466H399.028V318.457H402.019V315.466Z" fill="#F0F0F0"/>
<path d="M402.019 320.48H399.028V323.472H402.019V320.48Z" fill="#F0F0F0"/>
<path d="M402.019 325.496H399.028V328.487H402.019V325.496Z" fill="#F0F0F0"/>
<path d="M402.019 330.51H399.028V333.502H402.019V330.51Z" fill="#F0F0F0"/>
<path d="M402.019 335.525H399.028V338.516H402.019V335.525Z" fill="#F0F0F0"/>
<path d="M402.019 340.54H399.028V343.531H402.019V340.54Z" fill="#F0F0F0"/>
<path d="M402.019 345.555H399.028V348.546H402.019V345.555Z" fill="#F0F0F0"/>
<path d="M402.019 355.584H399.028V358.576H402.019V355.584Z" fill="#F0F0F0"/>
<path d="M397.27 255.288H394.278V258.28H397.27V255.288Z" fill="#F0F0F0"/>
<path d="M397.27 260.303H394.278V263.294H397.27V260.303Z" fill="#F0F0F0"/>
<path d="M397.27 265.318H394.278V268.309H397.27V265.318Z" fill="#F0F0F0"/>
<path d="M397.27 270.333H394.278V273.324H397.27V270.333Z" fill="#F0F0F0"/>
<path d="M397.27 275.347H394.278V278.339H397.27V275.347Z" fill="#F0F0F0"/>
<path d="M397.27 280.362H394.278V283.354H397.27V280.362Z" fill="#F0F0F0"/>
<path d="M397.27 295.406H394.278V298.398H397.27V295.406Z" fill="#F0F0F0"/>
<path d="M397.27 300.421H394.278V303.413H397.27V300.421Z" fill="#F0F0F0"/>
<path d="M397.27 305.436H394.278V308.428H397.27V305.436Z" fill="#F0F0F0"/>
<path d="M397.27 310.451H394.278V313.442H397.27V310.451Z" fill="#F0F0F0"/>
<path d="M397.27 325.496H394.278V328.487H397.27V325.496Z" fill="#F0F0F0"/>
<path d="M397.27 330.51H394.278V333.502H397.27V330.51Z" fill="#F0F0F0"/>
<path d="M397.27 335.525H394.278V338.516H397.27V335.525Z" fill="#F0F0F0"/>
<path d="M397.27 340.54H394.278V343.531H397.27V340.54Z" fill="#F0F0F0"/>
<path d="M397.27 345.555H394.278V348.546H397.27V345.555Z" fill="#F0F0F0"/>
<path d="M397.27 355.584H394.278V358.576H397.27V355.584Z" fill="#F0F0F0"/>
<path d="M397.27 360.599H394.278V363.59H397.27V360.599Z" fill="#F0F0F0"/>
<path d="M354.16 301.917H351.168V304.909H354.16V301.917Z" fill="#F0F0F0"/>
<path d="M354.16 306.933H351.168V309.924H354.16V306.933Z" fill="#F0F0F0"/>
<path d="M354.16 311.947H351.168V314.939H354.16V311.947Z" fill="#F0F0F0"/>
<path d="M354.16 316.961H351.168V319.953H354.16V316.961Z" fill="#F0F0F0"/>
<path d="M354.16 321.977H351.168V324.969H354.16V321.977Z" fill="#F0F0F0"/>
<path d="M354.16 326.991H351.168V329.982H354.16V326.991Z" fill="#F0F0F0"/>
<path d="M354.16 332.006H351.168V334.998H354.16V332.006Z" fill="#F0F0F0"/>
<path d="M354.16 347.049H351.168V350.041H354.16V347.049Z" fill="#F0F0F0"/>
<path d="M354.16 352.065H351.168V355.057H354.16V352.065Z" fill="#F0F0F0"/>
<path d="M354.16 357.079H351.168V360.071H354.16V357.079Z" fill="#F0F0F0"/>
<path d="M349.409 301.917H346.417V304.909H349.409V301.917Z" fill="#F0F0F0"/>
<path d="M349.409 306.933H346.417V309.924H349.409V306.933Z" fill="#F0F0F0"/>
<path d="M349.409 311.947H346.417V314.939H349.409V311.947Z" fill="#F0F0F0"/>
<path d="M349.409 316.961H346.417V319.953H349.409V316.961Z" fill="#F0F0F0"/>
<path d="M349.409 321.977H346.417V324.969H349.409V321.977Z" fill="#F0F0F0"/>
<path d="M349.409 326.991H346.417V329.982H349.409V326.991Z" fill="#F0F0F0"/>
<path d="M349.409 332.006H346.417V334.998H349.409V332.006Z" fill="#F0F0F0"/>
<path d="M344.658 301.917H341.666V304.909H344.658V301.917Z" fill="#F0F0F0"/>
<path d="M344.658 306.933H341.666V309.924H344.658V306.933Z" fill="#F0F0F0"/>
<path d="M344.658 311.947H341.666V314.939H344.658V311.947Z" fill="#F0F0F0"/>
<path d="M344.658 316.961H341.666V319.953H344.658V316.961Z" fill="#F0F0F0"/>
<path d="M344.658 321.977H341.666V324.969H344.658V321.977Z" fill="#F0F0F0"/>
<path d="M344.658 326.991H341.666V329.982H344.658V326.991Z" fill="#F0F0F0"/>
<path d="M344.658 332.006H341.666V334.998H344.658V332.006Z" fill="#F0F0F0"/>
<path d="M339.907 301.917H336.916V304.909H339.907V301.917Z" fill="#F0F0F0"/>
<path d="M339.907 306.933H336.916V309.924H339.907V306.933Z" fill="#F0F0F0"/>
<path d="M339.907 311.947H336.916V314.939H339.907V311.947Z" fill="#F0F0F0"/>
<path d="M339.907 316.961H336.916V319.953H339.907V316.961Z" fill="#F0F0F0"/>
<path d="M339.907 321.977H336.916V324.969H339.907V321.977Z" fill="#F0F0F0"/>
<path d="M339.907 326.991H336.916V329.982H339.907V326.991Z" fill="#F0F0F0"/>
<path d="M339.907 332.006H336.916V334.998H339.907V332.006Z" fill="#F0F0F0"/>
<path d="M339.907 337.02H336.916V340.012H339.907V337.02Z" fill="#F0F0F0"/>
<path d="M339.907 342.035H336.916V345.027H339.907V342.035Z" fill="#F0F0F0"/>
<path d="M339.907 347.049H336.916V350.041H339.907V347.049Z" fill="#F0F0F0"/>
<path d="M339.907 352.065H336.916V355.057H339.907V352.065Z" fill="#F0F0F0"/>
<path d="M335.156 301.917H332.165V304.909H335.156V301.917Z" fill="#F0F0F0"/>
<path d="M335.156 306.933H332.165V309.924H335.156V306.933Z" fill="#F0F0F0"/>
<path d="M335.156 311.947H332.165V314.939H335.156V311.947Z" fill="#F0F0F0"/>
<path d="M335.156 316.961H332.165V319.953H335.156V316.961Z" fill="#F0F0F0"/>
<path d="M335.156 321.977H332.165V324.969H335.156V321.977Z" fill="#F0F0F0"/>
<path d="M335.156 326.991H332.165V329.982H335.156V326.991Z" fill="#F0F0F0"/>
<path d="M335.156 332.006H332.165V334.998H335.156V332.006Z" fill="#F0F0F0"/>
<path d="M335.156 337.02H332.165V340.012H335.156V337.02Z" fill="#F0F0F0"/>
<path d="M335.156 342.035H332.165V345.027H335.156V342.035Z" fill="#F0F0F0"/>
<path d="M335.157 347.049H332.165V350.041H335.157V347.049Z" fill="#F0F0F0"/>
<path d="M335.156 352.065H332.165V355.057H335.156V352.065Z" fill="#F0F0F0"/>
<path d="M335.156 357.079H332.165V360.071H335.156V357.079Z" fill="#F0F0F0"/>
<path d="M335.156 372.124H332.165V375.116H335.156V372.124Z" fill="#F0F0F0"/>
<path d="M335.156 377.139H332.165V380.13H335.156V377.139Z" fill="#F0F0F0"/>
<path d="M330.406 301.917H327.414V304.909H330.406V301.917Z" fill="#F0F0F0"/>
<path d="M330.406 306.933H327.414V309.924H330.406V306.933Z" fill="#F0F0F0"/>
<path d="M330.406 311.947H327.414V314.939H330.406V311.947Z" fill="#F0F0F0"/>
<path d="M330.406 326.991H327.414V329.982H330.406V326.991Z" fill="#F0F0F0"/>
<path d="M330.406 332.006H327.414V334.998H330.406V332.006Z" fill="#F0F0F0"/>
<path d="M330.406 337.02H327.414V340.012H330.406V337.02Z" fill="#F0F0F0"/>
<path d="M330.406 342.035H327.414V345.027H330.406V342.035Z" fill="#F0F0F0"/>
<path d="M330.406 347.049H327.414V350.041H330.406V347.049Z" fill="#F0F0F0"/>
<path d="M330.406 352.065H327.414V355.057H330.406V352.065Z" fill="#F0F0F0"/>
<path d="M330.406 357.079H327.414V360.071H330.406V357.079Z" fill="#F0F0F0"/>
<path d="M330.406 372.124H327.414V375.116H330.406V372.124Z" fill="#F0F0F0"/>
<path d="M330.406 377.139H327.414V380.13H330.406V377.139Z" fill="#F0F0F0"/>
<path d="M330.406 382.153H327.414V385.145H330.406V382.153Z" fill="#F0F0F0"/>
<path d="M280.609 271.829H277.618V274.821H280.609V271.829Z" fill="#F0F0F0"/>
<path d="M280.609 276.844H277.618V279.835H280.609V276.844Z" fill="#F0F0F0"/>
<path d="M280.609 281.858H277.618V284.85H280.609V281.858Z" fill="#F0F0F0"/>
<path d="M280.609 286.873H277.618V289.865H280.609V286.873Z" fill="#F0F0F0"/>
<path d="M280.609 291.888H277.618V294.88H280.609V291.888Z" fill="#F0F0F0"/>
<path d="M280.609 296.903H277.618V299.894H280.609V296.903Z" fill="#F0F0F0"/>
<path d="M280.609 301.917H277.618V304.909H280.609V301.917Z" fill="#F0F0F0"/>
<path d="M280.609 306.933H277.618V309.924H280.609V306.933Z" fill="#F0F0F0"/>
<path d="M280.609 311.947H277.618V314.939H280.609V311.947Z" fill="#F0F0F0"/>
<path d="M280.609 316.961H277.618V319.953H280.609V316.961Z" fill="#F0F0F0"/>
<path d="M280.609 321.977H277.618V324.969H280.609V321.977Z" fill="#F0F0F0"/>
<path d="M280.609 326.991H277.618V329.982H280.609V326.991Z" fill="#F0F0F0"/>
<path d="M280.609 332.006H277.618V334.998H280.609V332.006Z" fill="#F0F0F0"/>
<path d="M280.609 337.02H277.618V340.012H280.609V337.02Z" fill="#F0F0F0"/>
<path d="M280.609 342.035H277.618V345.027H280.609V342.035Z" fill="#F0F0F0"/>
<path d="M280.609 347.049H277.618V350.041H280.609V347.049Z" fill="#F0F0F0"/>
<path d="M280.609 352.065H277.618V355.057H280.609V352.065Z" fill="#F0F0F0"/>
<path d="M280.609 357.079H277.618V360.071H280.609V357.079Z" fill="#F0F0F0"/>
<path d="M280.609 362.094H277.618V365.086H280.609V362.094Z" fill="#F0F0F0"/>
<path d="M280.609 367.109H277.618V370.1H280.609V367.109Z" fill="#F0F0F0"/>
<path d="M280.609 372.124H277.618V375.116H280.609V372.124Z" fill="#F0F0F0"/>
<path d="M280.609 377.139H277.618V380.13H280.609V377.139Z" fill="#F0F0F0"/>
<path d="M280.609 382.153H277.618V385.145H280.609V382.153Z" fill="#F0F0F0"/>
<path d="M275.858 271.829H272.867V274.821H275.858V271.829Z" fill="#F0F0F0"/>
<path d="M275.858 276.844H272.867V279.835H275.858V276.844Z" fill="#F0F0F0"/>
<path d="M275.858 281.858H272.867V284.85H275.858V281.858Z" fill="#F0F0F0"/>
<path d="M275.858 286.873H272.867V289.865H275.858V286.873Z" fill="#F0F0F0"/>
<path d="M275.858 291.888H272.867V294.88H275.858V291.888Z" fill="#F0F0F0"/>
<path d="M275.858 296.903H272.867V299.894H275.858V296.903Z" fill="#F0F0F0"/>
<path d="M275.858 301.917H272.867V304.909H275.858V301.917Z" fill="#F0F0F0"/>
<path d="M275.858 306.933H272.867V309.924H275.858V306.933Z" fill="#F0F0F0"/>
<path d="M275.858 311.947H272.867V314.939H275.858V311.947Z" fill="#F0F0F0"/>
<path d="M275.858 316.961H272.867V319.953H275.858V316.961Z" fill="#F0F0F0"/>
<path d="M275.858 321.977H272.867V324.969H275.858V321.977Z" fill="#F0F0F0"/>
<path d="M275.858 326.991H272.867V329.982H275.858V326.991Z" fill="#F0F0F0"/>
<path d="M275.858 332.006H272.867V334.998H275.858V332.006Z" fill="#F0F0F0"/>
<path d="M275.858 337.02H272.867V340.012H275.858V337.02Z" fill="#F0F0F0"/>
<path d="M275.858 342.035H272.867V345.027H275.858V342.035Z" fill="#F0F0F0"/>
<path d="M275.858 347.049H272.867V350.041H275.858V347.049Z" fill="#F0F0F0"/>
<path d="M275.858 352.065H272.867V355.057H275.858V352.065Z" fill="#F0F0F0"/>
<path d="M275.858 357.079H272.867V360.071H275.858V357.079Z" fill="#F0F0F0"/>
<path d="M275.858 362.094H272.867V365.086H275.858V362.094Z" fill="#F0F0F0"/>
<path d="M271.108 271.829H268.116V274.821H271.108V271.829Z" fill="#F0F0F0"/>
<path d="M271.108 276.844H268.116V279.835H271.108V276.844Z" fill="#F0F0F0"/>
<path d="M271.108 281.858H268.116V284.85H271.108V281.858Z" fill="#F0F0F0"/>
<path d="M271.108 286.873H268.116V289.865H271.108V286.873Z" fill="#F0F0F0"/>
<path d="M271.108 291.888H268.116V294.88H271.108V291.888Z" fill="#F0F0F0"/>
<path d="M271.108 296.903H268.116V299.894H271.108V296.903Z" fill="#F0F0F0"/>
<path d="M271.108 301.917H268.116V304.909H271.108V301.917Z" fill="#F0F0F0"/>
<path d="M271.108 306.933H268.116V309.924H271.108V306.933Z" fill="#F0F0F0"/>
<path d="M271.108 311.947H268.116V314.939H271.108V311.947Z" fill="#F0F0F0"/>
<path d="M271.108 316.961H268.116V319.953H271.108V316.961Z" fill="#F0F0F0"/>
<path d="M271.108 321.977H268.116V324.969H271.108V321.977Z" fill="#F0F0F0"/>
<path d="M271.108 326.991H268.116V329.982H271.108V326.991Z" fill="#F0F0F0"/>
<path d="M271.108 332.006H268.116V334.998H271.108V332.006Z" fill="#F0F0F0"/>
<path d="M271.108 337.02H268.116V340.012H271.108V337.02Z" fill="#F0F0F0"/>
<path d="M271.108 342.035H268.116V345.027H271.108V342.035Z" fill="#F0F0F0"/>
<path d="M271.108 347.049H268.116V350.041H271.108V347.049Z" fill="#F0F0F0"/>
<path d="M271.108 352.065H268.116V355.057H271.108V352.065Z" fill="#F0F0F0"/>
<path d="M271.108 357.079H268.116V360.071H271.108V357.079Z" fill="#F0F0F0"/>
<path d="M271.108 362.094H268.116V365.086H271.108V362.094Z" fill="#F0F0F0"/>
<path d="M266.357 271.829H263.365V274.821H266.357V271.829Z" fill="#F0F0F0"/>
<path d="M266.357 276.844H263.365V279.835H266.357V276.844Z" fill="#F0F0F0"/>
<path d="M266.357 281.858H263.365V284.85H266.357V281.858Z" fill="#F0F0F0"/>
<path d="M266.357 286.873H263.365V289.865H266.357V286.873Z" fill="#F0F0F0"/>
<path d="M266.357 291.888H263.365V294.88H266.357V291.888Z" fill="#F0F0F0"/>
<path d="M266.357 296.903H263.365V299.894H266.357V296.903Z" fill="#F0F0F0"/>
<path d="M266.357 301.917H263.365V304.909H266.357V301.917Z" fill="#F0F0F0"/>
<path d="M266.357 306.933H263.365V309.924H266.357V306.933Z" fill="#F0F0F0"/>
<path d="M266.357 311.947H263.365V314.939H266.357V311.947Z" fill="#F0F0F0"/>
<path d="M266.357 316.961H263.365V319.953H266.357V316.961Z" fill="#F0F0F0"/>
<path d="M266.357 321.977H263.365V324.969H266.357V321.977Z" fill="#F0F0F0"/>
<path d="M266.357 326.991H263.365V329.982H266.357V326.991Z" fill="#F0F0F0"/>
<path d="M266.357 332.006H263.365V334.998H266.357V332.006Z" fill="#F0F0F0"/>
<path d="M266.357 337.02H263.365V340.012H266.357V337.02Z" fill="#F0F0F0"/>
<path d="M266.357 342.035H263.365V345.027H266.357V342.035Z" fill="#F0F0F0"/>
<path d="M261.606 271.829H258.614V274.821H261.606V271.829Z" fill="#F0F0F0"/>
<path d="M261.606 276.844H258.614V279.835H261.606V276.844Z" fill="#F0F0F0"/>
<path d="M261.606 281.858H258.614V284.85H261.606V281.858Z" fill="#F0F0F0"/>
<path d="M261.606 286.873H258.614V289.865H261.606V286.873Z" fill="#F0F0F0"/>
<path d="M261.606 291.888H258.614V294.88H261.606V291.888Z" fill="#F0F0F0"/>
<path d="M261.606 296.903H258.614V299.894H261.606V296.903Z" fill="#F0F0F0"/>
<path d="M261.606 301.917H258.614V304.909H261.606V301.917Z" fill="#F0F0F0"/>
<path d="M261.606 306.933H258.614V309.924H261.606V306.933Z" fill="#F0F0F0"/>
<path d="M261.606 311.947H258.614V314.939H261.606V311.947Z" fill="#F0F0F0"/>
<path d="M261.606 316.961H258.614V319.953H261.606V316.961Z" fill="#F0F0F0"/>
<path d="M261.606 321.977H258.614V324.969H261.606V321.977Z" fill="#F0F0F0"/>
<path d="M261.606 326.991H258.614V329.982H261.606V326.991Z" fill="#F0F0F0"/>
<path d="M261.606 332.006H258.614V334.998H261.606V332.006Z" fill="#F0F0F0"/>
<path d="M256.855 271.829H253.864V274.821H256.855V271.829Z" fill="#F0F0F0"/>
<path d="M256.855 276.844H253.864V279.835H256.855V276.844Z" fill="#F0F0F0"/>
<path d="M256.855 281.858H253.864V284.85H256.855V281.858Z" fill="#F0F0F0"/>
<path d="M256.855 286.873H253.864V289.865H256.855V286.873Z" fill="#F0F0F0"/>
<path d="M256.855 291.888H253.864V294.88H256.855V291.888Z" fill="#F0F0F0"/>
<path d="M256.855 296.903H253.864V299.894H256.855V296.903Z" fill="#F0F0F0"/>
<path d="M256.855 301.917H253.864V304.909H256.855V301.917Z" fill="#F0F0F0"/>
<path d="M256.855 306.933H253.864V309.924H256.855V306.933Z" fill="#F0F0F0"/>
<path d="M256.855 311.947H253.864V314.939H256.855V311.947Z" fill="#F0F0F0"/>
<path d="M256.855 316.961H253.864V319.953H256.855V316.961Z" fill="#F0F0F0"/>
<path d="M256.855 321.977H253.864V324.969H256.855V321.977Z" fill="#F0F0F0"/>
<path d="M256.855 326.991H253.864V329.982H256.855V326.991Z" fill="#F0F0F0"/>
<path d="M534.163 270.333H531.172V273.324H534.163V270.333Z" fill="#F0F0F0"/>
<path d="M534.163 275.347H531.172V278.339H534.163V275.347Z" fill="#F0F0F0"/>
<path d="M534.163 280.362H531.172V283.354H534.163V280.362Z" fill="#F0F0F0"/>
<path d="M534.163 285.377H531.172V288.369H534.163V285.377Z" fill="#F0F0F0"/>
<path d="M534.163 290.392H531.172V293.383H534.163V290.392Z" fill="#F0F0F0"/>
<path d="M534.163 295.406H531.172V298.398H534.163V295.406Z" fill="#F0F0F0"/>
<path d="M534.163 300.421H531.172V303.413H534.163V300.421Z" fill="#F0F0F0"/>
<path d="M534.163 305.436H531.172V308.428H534.163V305.436Z" fill="#F0F0F0"/>
<path d="M534.163 310.451H531.172V313.442H534.163V310.451Z" fill="#F0F0F0"/>
<path d="M534.163 315.466H531.172V318.457H534.163V315.466Z" fill="#F0F0F0"/>
<path d="M534.163 320.48H531.172V323.472H534.163V320.48Z" fill="#F0F0F0"/>
<path d="M534.163 325.496H531.172V328.487H534.163V325.496Z" fill="#F0F0F0"/>
<path d="M534.163 330.51H531.172V333.502H534.163V330.51Z" fill="#F0F0F0"/>
<path d="M534.163 335.525H531.172V338.516H534.163V335.525Z" fill="#F0F0F0"/>
<path d="M534.163 340.54H531.172V343.531H534.163V340.54Z" fill="#F0F0F0"/>
<path d="M534.163 345.555H531.172V348.546H534.163V345.555Z" fill="#F0F0F0"/>
<path d="M534.163 350.569H531.172V353.561H534.163V350.569Z" fill="#F0F0F0"/>
<path d="M534.163 360.599H531.172V363.59H534.163V360.599Z" fill="#F0F0F0"/>
<path d="M534.163 365.614H531.172V368.605H534.163V365.614Z" fill="#F0F0F0"/>
<path d="M534.163 370.628H531.172V373.62H534.163V370.628Z" fill="#F0F0F0"/>
<path d="M534.163 375.644H531.172V378.635H534.163V375.644Z" fill="#F0F0F0"/>
<path d="M534.163 380.658H531.172V383.65H534.163V380.658Z" fill="#F0F0F0"/>
<path d="M529.413 270.333H526.421V273.324H529.413V270.333Z" fill="#F0F0F0"/>
<path d="M529.413 275.347H526.421V278.339H529.413V275.347Z" fill="#F0F0F0"/>
<path d="M529.413 280.362H526.421V283.354H529.413V280.362Z" fill="#F0F0F0"/>
<path d="M529.413 285.377H526.421V288.369H529.413V285.377Z" fill="#F0F0F0"/>
<path d="M529.413 290.392H526.421V293.383H529.413V290.392Z" fill="#F0F0F0"/>
<path d="M529.413 295.406H526.421V298.398H529.413V295.406Z" fill="#F0F0F0"/>
<path d="M529.413 300.421H526.421V303.413H529.413V300.421Z" fill="#F0F0F0"/>
<path d="M529.413 305.436H526.421V308.428H529.413V305.436Z" fill="#F0F0F0"/>
<path d="M529.413 310.451H526.421V313.442H529.413V310.451Z" fill="#F0F0F0"/>
<path d="M529.413 315.466H526.421V318.457H529.413V315.466Z" fill="#F0F0F0"/>
<path d="M529.413 320.48H526.421V323.472H529.413V320.48Z" fill="#F0F0F0"/>
<path d="M529.413 325.496H526.421V328.487H529.413V325.496Z" fill="#F0F0F0"/>
<path d="M529.413 330.51H526.421V333.502H529.413V330.51Z" fill="#F0F0F0"/>
<path d="M529.413 335.525H526.421V338.516H529.413V335.525Z" fill="#F0F0F0"/>
<path d="M529.413 340.54H526.421V343.531H529.413V340.54Z" fill="#F0F0F0"/>
<path d="M529.413 345.555H526.421V348.546H529.413V345.555Z" fill="#F0F0F0"/>
<path d="M529.413 375.644H526.421V378.635H529.413V375.644Z" fill="#F0F0F0"/>
<path d="M529.413 380.658H526.421V383.65H529.413V380.658Z" fill="#F0F0F0"/>
<path d="M524.662 270.333H521.67V273.324H524.662V270.333Z" fill="#F0F0F0"/>
<path d="M524.662 275.347H521.67V278.339H524.662V275.347Z" fill="#F0F0F0"/>
<path d="M524.662 280.362H521.67V283.354H524.662V280.362Z" fill="#F0F0F0"/>
<path d="M524.662 285.377H521.67V288.369H524.662V285.377Z" fill="#F0F0F0"/>
<path d="M524.662 290.392H521.67V293.383H524.662V290.392Z" fill="#F0F0F0"/>
<path d="M524.662 295.406H521.67V298.398H524.662V295.406Z" fill="#F0F0F0"/>
<path d="M524.662 300.421H521.67V303.413H524.662V300.421Z" fill="#F0F0F0"/>
<path d="M524.662 305.436H521.67V308.428H524.662V305.436Z" fill="#F0F0F0"/>
<path d="M524.662 310.451H521.67V313.442H524.662V310.451Z" fill="#F0F0F0"/>
<path d="M524.662 315.466H521.67V318.457H524.662V315.466Z" fill="#F0F0F0"/>
<path d="M524.662 320.48H521.67V323.472H524.662V320.48Z" fill="#F0F0F0"/>
<path d="M524.662 325.496H521.67V328.487H524.662V325.496Z" fill="#F0F0F0"/>
<path d="M524.662 330.51H521.67V333.502H524.662V330.51Z" fill="#F0F0F0"/>
<path d="M524.662 335.525H521.67V338.516H524.662V335.525Z" fill="#F0F0F0"/>
<path d="M524.662 340.54H521.67V343.531H524.662V340.54Z" fill="#F0F0F0"/>
<path d="M524.662 345.555H521.67V348.546H524.662V345.555Z" fill="#F0F0F0"/>
<path d="M524.662 355.584H521.67V358.576H524.662V355.584Z" fill="#F0F0F0"/>
<path d="M524.662 360.599H521.67V363.59H524.662V360.599Z" fill="#F0F0F0"/>
<path d="M524.662 365.614H521.67V368.605H524.662V365.614Z" fill="#F0F0F0"/>
<path d="M524.662 370.628H521.67V373.62H524.662V370.628Z" fill="#F0F0F0"/>
<path d="M524.662 380.658H521.67V383.65H524.662V380.658Z" fill="#F0F0F0"/>
<path d="M441.786 305.436H438.794V308.428H441.786V305.436Z" fill="#F0F0F0"/>
<path d="M441.786 310.451H438.794V313.442H441.786V310.451Z" fill="#F0F0F0"/>
<path d="M441.786 315.466H438.794V318.457H441.786V315.466Z" fill="#F0F0F0"/>
<path d="M441.786 320.48H438.794V323.472H441.786V320.48Z" fill="#F0F0F0"/>
<path d="M441.786 325.496H438.794V328.487H441.786V325.496Z" fill="#F0F0F0"/>
<path d="M441.786 330.51H438.794V333.502H441.786V330.51Z" fill="#F0F0F0"/>
<path d="M441.786 335.525H438.794V338.516H441.786V335.525Z" fill="#F0F0F0"/>
<path d="M441.786 340.54H438.794V343.531H441.786V340.54Z" fill="#F0F0F0"/>
<path d="M441.786 345.555H438.794V348.546H441.786V345.555Z" fill="#F0F0F0"/>
<path d="M441.786 350.569H438.794V353.561H441.786V350.569Z" fill="#F0F0F0"/>
<path d="M441.786 355.584H438.794V358.576H441.786V355.584Z" fill="#F0F0F0"/>
<path d="M441.786 360.599H438.794V363.59H441.786V360.599Z" fill="#F0F0F0"/>
<path d="M441.786 365.614H438.794V368.605H441.786V365.614Z" fill="#F0F0F0"/>
<path d="M441.786 375.644H438.794V378.635H441.786V375.644Z" fill="#F0F0F0"/>
<path d="M441.786 380.658H438.794V383.65H441.786V380.658Z" fill="#F0F0F0"/>
<path d="M441.786 385.673H438.794V388.665H441.786V385.673Z" fill="#F0F0F0"/>
<path d="M441.786 390.688H438.794V393.68H441.786V390.688Z" fill="#F0F0F0"/>
<path d="M441.786 400.718H438.794V403.709H441.786V400.718Z" fill="#F0F0F0"/>
<path d="M441.786 405.732H438.794V408.724H441.786V405.732Z" fill="#F0F0F0"/>
<path d="M441.786 410.747H438.794V413.739H441.786V410.747Z" fill="#F0F0F0"/>
<path d="M437.035 305.436H434.044V308.428H437.035V305.436Z" fill="#F0F0F0"/>
<path d="M437.035 310.451H434.044V313.442H437.035V310.451Z" fill="#F0F0F0"/>
<path d="M437.035 315.466H434.044V318.457H437.035V315.466Z" fill="#F0F0F0"/>
<path d="M437.035 320.48H434.044V323.472H437.035V320.48Z" fill="#F0F0F0"/>
<path d="M437.035 325.496H434.044V328.487H437.035V325.496Z" fill="#F0F0F0"/>
<path d="M437.035 330.51H434.044V333.502H437.035V330.51Z" fill="#F0F0F0"/>
<path d="M437.035 335.525H434.044V338.516H437.035V335.525Z" fill="#F0F0F0"/>
<path d="M437.035 340.54H434.044V343.531H437.035V340.54Z" fill="#F0F0F0"/>
<path d="M437.035 345.555H434.044V348.546H437.035V345.555Z" fill="#F0F0F0"/>
<path d="M437.035 350.569H434.044V353.561H437.035V350.569Z" fill="#F0F0F0"/>
<path d="M437.035 355.584H434.044V358.576H437.035V355.584Z" fill="#F0F0F0"/>
<path d="M437.035 360.599H434.044V363.59H437.035V360.599Z" fill="#F0F0F0"/>
<path d="M437.035 365.614H434.044V368.605H437.035V365.614Z" fill="#F0F0F0"/>
<path d="M437.035 380.658H434.044V383.65H437.035V380.658Z" fill="#F0F0F0"/>
<path d="M437.035 385.673H434.044V388.665H437.035V385.673Z" fill="#F0F0F0"/>
<path d="M437.035 395.703H434.044V398.694H437.035V395.703Z" fill="#F0F0F0"/>
<path d="M437.035 400.718H434.044V403.709H437.035V400.718Z" fill="#F0F0F0"/>
<path d="M437.035 405.732H434.044V408.724H437.035V405.732Z" fill="#F0F0F0"/>
<path d="M437.035 410.747H434.044V413.739H437.035V410.747Z" fill="#F0F0F0"/>
<path d="M432.284 305.436H429.293V308.428H432.284V305.436Z" fill="#F0F0F0"/>
<path d="M432.284 310.451H429.293V313.442H432.284V310.451Z" fill="#F0F0F0"/>
<path d="M432.284 315.466H429.293V318.457H432.284V315.466Z" fill="#F0F0F0"/>
<path d="M432.284 320.48H429.293V323.472H432.284V320.48Z" fill="#F0F0F0"/>
<path d="M432.284 325.496H429.293V328.487H432.284V325.496Z" fill="#F0F0F0"/>
<path d="M432.284 330.51H429.293V333.502H432.284V330.51Z" fill="#F0F0F0"/>
<path d="M432.284 335.525H429.293V338.516H432.284V335.525Z" fill="#F0F0F0"/>
<path d="M432.284 340.54H429.293V343.531H432.284V340.54Z" fill="#F0F0F0"/>
<path d="M432.284 345.555H429.293V348.546H432.284V345.555Z" fill="#F0F0F0"/>
<path d="M432.284 350.569H429.293V353.561H432.284V350.569Z" fill="#F0F0F0"/>
<path d="M432.284 355.584H429.293V358.576H432.284V355.584Z" fill="#F0F0F0"/>
<path d="M432.284 360.599H429.293V363.59H432.284V360.599Z" fill="#F0F0F0"/>
<path d="M432.284 365.614H429.293V368.605H432.284V365.614Z" fill="#F0F0F0"/>
<path d="M432.284 370.628H429.293V373.62H432.284V370.628Z" fill="#F0F0F0"/>
<path d="M432.284 380.658H429.293V383.65H432.284V380.658Z" fill="#F0F0F0"/>
<path d="M432.284 390.688H429.293V393.68H432.284V390.688Z" fill="#F0F0F0"/>
<path d="M432.284 395.703H429.293V398.694H432.284V395.703Z" fill="#F0F0F0"/>
<path d="M432.284 400.718H429.293V403.709H432.284V400.718Z" fill="#F0F0F0"/>
<path d="M432.284 405.732H429.293V408.724H432.284V405.732Z" fill="#F0F0F0"/>
<path d="M432.284 410.747H429.293V413.739H432.284V410.747Z" fill="#F0F0F0"/>
<path d="M461.141 334.03H458.149V337.021H461.141V334.03Z" fill="#F0F0F0"/>
<path d="M461.141 339.045H458.149V342.037H461.141V339.045Z" fill="#F0F0F0"/>
<path d="M461.141 344.06H458.149V347.051H461.141V344.06Z" fill="#F0F0F0"/>
<path d="M461.141 349.074H458.149V352.066H461.141V349.074Z" fill="#F0F0F0"/>
<path d="M461.141 354.089H458.149V357.081H461.141V354.089Z" fill="#F0F0F0"/>
<path d="M461.141 359.104H458.149V362.096H461.141V359.104Z" fill="#F0F0F0"/>
<path d="M461.141 374.148H458.149V377.14H461.141V374.148Z" fill="#F0F0F0"/>
<path d="M461.141 379.163H458.149V382.155H461.141V379.163Z" fill="#F0F0F0"/>
<path d="M461.141 384.177H458.149V387.168H461.141V384.177Z" fill="#F0F0F0"/>
<path d="M461.141 389.193H458.149V392.184H461.141V389.193Z" fill="#F0F0F0"/>
<path d="M461.141 394.207H458.149V397.198H461.141V394.207Z" fill="#F0F0F0"/>
<path d="M461.141 399.221H458.149V402.213H461.141V399.221Z" fill="#F0F0F0"/>
<path d="M461.141 404.236H458.149V407.227H461.141V404.236Z" fill="#F0F0F0"/>
<path d="M456.39 334.03H453.398V337.021H456.39V334.03Z" fill="#F0F0F0"/>
<path d="M456.39 339.045H453.398V342.037H456.39V339.045Z" fill="#F0F0F0"/>
<path d="M456.39 344.06H453.398V347.051H456.39V344.06Z" fill="#F0F0F0"/>
<path d="M456.39 349.074H453.398V352.066H456.39V349.074Z" fill="#F0F0F0"/>
<path d="M456.39 354.089H453.398V357.081H456.39V354.089Z" fill="#F0F0F0"/>
<path d="M456.39 359.104H453.398V362.096H456.39V359.104Z" fill="#F0F0F0"/>
<path d="M456.39 374.148H453.398V377.14H456.39V374.148Z" fill="#F0F0F0"/>
<path d="M456.39 379.163H453.398V382.155H456.39V379.163Z" fill="#F0F0F0"/>
<path d="M456.39 384.177H453.398V387.168H456.39V384.177Z" fill="#F0F0F0"/>
<path d="M456.39 389.193H453.398V392.184H456.39V389.193Z" fill="#F0F0F0"/>
<path d="M456.39 394.207H453.398V397.198H456.39V394.207Z" fill="#F0F0F0"/>
<path d="M456.39 399.221H453.398V402.213H456.39V399.221Z" fill="#F0F0F0"/>
<path d="M456.39 409.25H453.398V412.242H456.39V409.25Z" fill="#F0F0F0"/>
<path d="M298.558 311.947H295.566V314.939H298.558V311.947Z" fill="#F0F0F0"/>
<path d="M298.558 316.961H295.566V319.953H298.558V316.961Z" fill="#F0F0F0"/>
<path d="M298.558 321.977H295.566V324.969H298.558V321.977Z" fill="#F0F0F0"/>
<path d="M298.558 326.991H295.566V329.982H298.558V326.991Z" fill="#F0F0F0"/>
<path d="M298.558 332.006H295.566V334.998H298.558V332.006Z" fill="#F0F0F0"/>
<path d="M298.558 337.02H295.566V340.012H298.558V337.02Z" fill="#F0F0F0"/>
<path d="M298.558 342.035H295.566V345.027H298.558V342.035Z" fill="#F0F0F0"/>
<path d="M298.558 347.049H295.566V350.041H298.558V347.049Z" fill="#F0F0F0"/>
<path d="M298.558 352.065H295.566V355.057H298.558V352.065Z" fill="#F0F0F0"/>
<path d="M298.558 357.079H295.566V360.071H298.558V357.079Z" fill="#F0F0F0"/>
<path d="M298.558 362.094H295.566V365.086H298.558V362.094Z" fill="#F0F0F0"/>
<path d="M298.558 372.124H295.566V375.116H298.558V372.124Z" fill="#F0F0F0"/>
<path d="M298.558 377.139H295.566V380.13H298.558V377.139Z" fill="#F0F0F0"/>
<path d="M298.558 382.153H295.566V385.145H298.558V382.153Z" fill="#F0F0F0"/>
<path d="M298.558 387.168H295.566V390.16H298.558V387.168Z" fill="#F0F0F0"/>
<path d="M298.558 392.183H295.566V395.175H298.558V392.183Z" fill="#F0F0F0"/>
<path d="M298.558 397.198H295.566V400.189H298.558V397.198Z" fill="#F0F0F0"/>
<path d="M298.558 402.213H295.566V405.205H298.558V402.213Z" fill="#F0F0F0"/>
<path d="M298.558 407.228H295.566V410.219H298.558V407.228Z" fill="#F0F0F0"/>
<path d="M293.807 311.947H290.815V314.939H293.807V311.947Z" fill="#F0F0F0"/>
<path d="M293.807 316.961H290.815V319.953H293.807V316.961Z" fill="#F0F0F0"/>
<path d="M293.807 321.977H290.815V324.969H293.807V321.977Z" fill="#F0F0F0"/>
<path d="M293.807 326.991H290.815V329.982H293.807V326.991Z" fill="#F0F0F0"/>
<path d="M293.807 332.006H290.815V334.998H293.807V332.006Z" fill="#F0F0F0"/>
<path d="M293.807 337.02H290.815V340.012H293.807V337.02Z" fill="#F0F0F0"/>
<path d="M293.807 342.035H290.815V345.027H293.807V342.035Z" fill="#F0F0F0"/>
<path d="M293.807 347.049H290.815V350.041H293.807V347.049Z" fill="#F0F0F0"/>
<path d="M293.807 352.065H290.815V355.057H293.807V352.065Z" fill="#F0F0F0"/>
<path d="M293.807 357.079H290.815V360.071H293.807V357.079Z" fill="#F0F0F0"/>
<path d="M293.807 362.094H290.815V365.086H293.807V362.094Z" fill="#F0F0F0"/>
<path d="M293.807 367.109H290.815V370.1H293.807V367.109Z" fill="#F0F0F0"/>
<path d="M293.807 372.124H290.815V375.116H293.807V372.124Z" fill="#F0F0F0"/>
<path d="M293.807 377.139H290.815V380.13H293.807V377.139Z" fill="#F0F0F0"/>
<path d="M293.807 382.153H290.815V385.145H293.807V382.153Z" fill="#F0F0F0"/>
<path d="M293.807 387.168H290.815V390.16H293.807V387.168Z" fill="#F0F0F0"/>
<path d="M293.807 392.183H290.815V395.175H293.807V392.183Z" fill="#F0F0F0"/>
<path d="M293.807 397.198H290.815V400.189H293.807V397.198Z" fill="#F0F0F0"/>
<path d="M293.807 402.213H290.815V405.205H293.807V402.213Z" fill="#F0F0F0"/>
<path d="M293.807 407.228H290.815V410.219H293.807V407.228Z" fill="#F0F0F0"/>
<path d="M321.959 331.479H318.967V334.47H321.959V331.479Z" fill="#F0F0F0"/>
<path d="M321.959 336.492H318.967V339.484H321.959V336.492Z" fill="#F0F0F0"/>
<path d="M321.959 341.508H318.967V344.5H321.959V341.508Z" fill="#F0F0F0"/>
<path d="M321.959 346.522H318.967V349.514H321.959V346.522Z" fill="#F0F0F0"/>
<path d="M321.959 351.538H318.967V354.53H321.959V351.538Z" fill="#F0F0F0"/>
<path d="M321.959 356.552H318.967V359.543H321.959V356.552Z" fill="#F0F0F0"/>
<path d="M321.959 361.566H318.967V364.558H321.959V361.566Z" fill="#F0F0F0"/>
<path d="M321.959 366.581H318.967V369.573H321.959V366.581Z" fill="#F0F0F0"/>
<path d="M321.959 371.596H318.967V374.587H321.959V371.596Z" fill="#F0F0F0"/>
<path d="M321.959 376.611H318.967V379.602H321.959V376.611Z" fill="#F0F0F0"/>
<path d="M317.209 331.479H314.218V334.47H317.209V331.479Z" fill="#F0F0F0"/>
<path d="M317.209 336.492H314.218V339.484H317.209V336.492Z" fill="#F0F0F0"/>
<path d="M317.209 341.508H314.218V344.5H317.209V341.508Z" fill="#F0F0F0"/>
<path d="M317.209 346.522H314.218V349.514H317.209V346.522Z" fill="#F0F0F0"/>
<path d="M317.209 351.538H314.218V354.53H317.209V351.538Z" fill="#F0F0F0"/>
<path d="M317.209 356.552H314.218V359.543H317.209V356.552Z" fill="#F0F0F0"/>
<path d="M317.209 361.566H314.218V364.558H317.209V361.566Z" fill="#F0F0F0"/>
<path d="M317.209 366.581H314.218V369.573H317.209V366.581Z" fill="#F0F0F0"/>
<path d="M317.209 371.596H314.218V374.587H317.209V371.596Z" fill="#F0F0F0"/>
<path d="M345.476 141.167H340.456V420.858H345.476V141.167Z" fill="#E0E0E0"/>
<path d="M439.92 141.167H434.899V420.858H439.92V141.167Z" fill="#E0E0E0"/>
<path d="M534.364 141.167H529.343V420.858H534.364V141.167Z" fill="#E0E0E0"/>
<path d="M213.608 458.737H172.1V398.941C172.1 396.021 174.467 393.654 177.388 393.654H208.322C211.242 393.654 213.61 396.02 213.61 398.941L213.608 458.737Z" fill="#F0F0F0"/>
<path d="M213.61 402.452H172.102V407.114H213.61V402.452Z" fill="#E6E6E6"/>
<path d="M206.044 450.854H195.703C194.13 450.854 192.854 452.13 192.854 453.703V458.738H208.892V453.703C208.892 452.128 207.617 450.854 206.044 450.854Z" fill="#E0E0E0"/>
<path d="M208.946 458.737H197.443C196.424 458.737 195.599 457.912 195.599 456.893C195.599 455.874 196.424 455.048 197.443 455.048H208.946C209.965 455.048 210.791 455.874 210.791 456.893C210.791 457.912 209.965 458.737 208.946 458.737Z" fill="#E6E6E6"/>
<path d="M393.241 128.004C408.433 124.417 417.84 109.193 414.253 94.0012C410.666 78.8093 395.442 69.4019 380.25 72.9891C365.059 76.5764 355.651 91.7998 359.238 106.992C362.826 122.184 378.049 131.591 393.241 128.004Z" fill="#E0E0E0"/>
<path d="M390.617 124.236C403.718 122.11 412.615 109.765 410.489 96.6635C408.363 83.562 396.018 74.6648 382.917 76.7911C369.815 78.9174 360.918 91.262 363.044 104.363C365.17 117.465 377.515 126.362 390.617 124.236Z" fill="#F0F0F0"/>
<path d="M387.894 84.0337V100.834L399.028 94.5337" fill="#F0F0F0"/>
<path d="M387.894 84.0337V100.834L399.028 94.5337" stroke="#E0E0E0" stroke-width="2.4" stroke-miterlimit="10" stroke-linecap="round" stroke-linejoin="round"/>
<path d="M116.317 376.369C114.157 372.812 110.6 375.906 110.6 375.906C111.108 369.09 104.838 364.428 104.838 364.428C104.838 364.428 112.124 364.428 113.141 357.475C114.157 350.522 110.6 353.756 107.263 353.71C103.926 353.662 100.438 363.412 104.838 368.896C109.238 374.378 108.06 383.738 97.896 392.74C95.4168 394.936 93.7308 397.859 92.592 401.022C93.3588 392.752 93.792 381.1 91.3584 373.32C87.2244 360.108 95.1012 356.551 97.3884 349.945C99.6755 343.339 91.3584 337.75 91.3584 337.75C91.3584 337.75 99.1668 334.193 95.3556 330.127C91.5443 326.062 83.6676 326.615 83.6676 331.928C83.6676 337.241 89.0028 339.274 89.0028 339.274C89.0028 339.274 95.1 345.625 95.1 348.929C95.1 352.232 89.0028 359.346 89.0028 359.346C89.0028 359.346 91.7975 353.257 86.2079 352.999C80.6183 352.74 78.84 360.108 81.126 363.412C83.412 366.715 87.2232 363.919 87.2232 363.919C87.2232 363.919 87.6672 371.033 88.9692 375.353C89.5416 377.252 89.2727 384.704 88.7915 392.459C87.6659 389.659 86.0736 387.095 83.8428 385.117C73.68 376.115 72.5004 366.756 76.9008 361.273C81.3012 355.79 77.8128 346.04 74.4756 346.088C71.1384 346.135 67.5816 342.901 68.598 349.854C69.6144 356.807 76.9008 356.807 76.9008 356.807C76.9008 356.807 70.6308 361.469 71.1384 368.285C71.1384 368.285 67.5816 365.191 65.4216 368.749C61.566 375.1 70.5024 379.039 72.0048 375.913C72.0048 375.913 90.9564 389.329 86.3832 408.638L87.4452 410.207C87.3084 411.766 87.2232 412.704 87.2232 412.704L88.7052 412.066L90.3911 414.556C90.3035 419.382 90.8232 422.95 90.8232 422.95L95.3544 416.261C90.7812 396.952 109.732 383.536 109.732 383.536C111.236 386.658 120.173 382.72 116.317 376.369Z" fill="#E0E0E0"/>
<path opacity="0.2" d="M116.317 376.369C114.157 372.812 110.6 375.906 110.6 375.906C111.108 369.09 104.838 364.428 104.838 364.428C104.838 364.428 112.124 364.428 113.141 357.475C114.157 350.522 110.6 353.756 107.263 353.71C103.926 353.662 100.438 363.412 104.838 368.896C109.238 374.378 108.06 383.738 97.896 392.74C95.4168 394.936 93.7308 397.859 92.592 401.022C93.3588 392.752 93.792 381.1 91.3584 373.32C87.2244 360.108 95.1012 356.551 97.3884 349.945C99.6755 343.339 91.3584 337.75 91.3584 337.75C91.3584 337.75 99.1668 334.193 95.3556 330.127C91.5443 326.062 83.6676 326.615 83.6676 331.928C83.6676 337.241 89.0028 339.274 89.0028 339.274C89.0028 339.274 95.1 345.625 95.1 348.929C95.1 352.232 89.0028 359.346 89.0028 359.346C89.0028 359.346 91.7975 353.257 86.2079 352.999C80.6183 352.74 78.84 360.108 81.126 363.412C83.412 366.715 87.2232 363.919 87.2232 363.919C87.2232 363.919 87.6672 371.033 88.9692 375.353C89.5416 377.252 89.2727 384.704 88.7915 392.459C87.6659 389.659 86.0736 387.095 83.8428 385.117C73.68 376.115 72.5004 366.756 76.9008 361.273C81.3012 355.79 77.8128 346.04 74.4756 346.088C71.1384 346.135 67.5816 342.901 68.598 349.854C69.6144 356.807 76.9008 356.807 76.9008 356.807C76.9008 356.807 70.6308 361.469 71.1384 368.285C71.1384 368.285 67.5816 365.191 65.4216 368.749C61.566 375.1 70.5024 379.039 72.0048 375.913C72.0048 375.913 90.9564 389.329 86.3832 408.638L87.4452 410.207C87.3084 411.766 87.2232 412.704 87.2232 412.704L88.7052 412.066L90.3911 414.556C90.3035 419.382 90.8232 422.95 90.8232 422.95L95.3544 416.261C90.7812 396.952 109.732 383.536 109.732 383.536C111.236 386.658 120.173 382.72 116.317 376.369Z" fill="#E0E0E0"/>
<path d="M112.61 458.738H69.2004L64.518 411.21H117.294L112.61 458.738Z" fill="#E6E6E6"/>
<path d="M119.611 405.966H62.1996V416.454H119.611V405.966Z" fill="#F0F0F0"/>
<path d="M300 513.073C428.498 513.073 532.667 506.99 532.667 499.486C532.667 491.981 428.498 485.898 300 485.898C171.502 485.898 67.3332 491.981 67.3332 499.486C67.3332 506.99 171.502 513.073 300 513.073Z" fill="#F5F5F5"/>
<path d="M492.536 461.66C492.719 460.431 496.919 431.454 488.506 421.449C486.643 419.235 484.294 418.077 481.52 418.009C464.537 417.612 462.214 431.252 462.193 431.391L464.196 431.7C464.274 431.211 466.288 419.667 481.471 420.035C483.668 420.087 485.462 420.978 486.955 422.753C494.788 432.066 490.577 461.069 490.532 461.36L492.536 461.66Z" fill="#555555"/>
<path d="M493.565 460.339L495.59 460.276C495.582 460.009 494.917 433.576 507.942 428.115C520.706 422.767 526.448 433.762 526.686 434.233L528.497 433.323C528.431 433.191 521.693 420.151 507.158 426.246C492.851 432.245 493.529 459.196 493.565 460.339Z" fill="#555555"/>
<path d="M493.505 462.417C493.506 461.995 493.627 420.189 501.778 407.961C509.604 396.221 522.229 401.748 522.762 401.991L523.6 400.145C523.453 400.079 508.884 393.647 500.092 406.836C491.602 419.572 491.479 460.671 491.478 462.414L493.505 462.417Z" fill="#555555"/>
<path d="M479.09 419.014C479.09 419.014 486.505 421.747 484.301 428.201C482.097 434.654 458.647 445.277 458.647 445.277C458.647 445.277 448.826 436.276 457.846 421.637C466.865 406.998 478.89 414.395 479.09 419.014Z" fill="#555555"/>
<path d="M502.146 405.76C502.146 405.76 496.882 405.194 497.305 401.988C497.729 398.782 517.77 390.528 529.595 403.874C529.595 403.874 522.024 416.88 511.079 417.05C500.134 417.218 502.146 405.76 502.146 405.76Z" fill="#555555"/>
<path d="M507.55 427.181C507.55 427.181 503.916 424.247 507.838 422.815C511.759 421.383 530.999 421.79 531.199 440.849C531.199 440.849 508.792 444.572 506.017 437.313C503.243 430.055 507.55 427.181 507.55 427.181Z" fill="#555555"/>
<path opacity="0.2" d="M479.09 419.014C479.09 419.014 486.505 421.747 484.301 428.201C482.097 434.654 458.647 445.277 458.647 445.277C458.647 445.277 448.826 436.276 457.846 421.637C466.865 406.998 478.89 414.395 479.09 419.014Z" fill="#333333"/>
<path opacity="0.2" d="M502.146 405.76C502.146 405.76 496.882 405.194 497.305 401.988C497.729 398.782 517.77 390.528 529.595 403.874C529.595 403.874 522.024 416.88 511.079 417.05C500.134 417.218 502.146 405.76 502.146 405.76Z" fill="#333333"/>
<path opacity="0.2" d="M507.55 427.181C507.55 427.181 503.916 424.247 507.838 422.815C511.759 421.383 530.999 421.79 531.199 440.849C531.199 440.849 508.792 444.572 506.017 437.313C503.243 430.055 507.55 427.181 507.55 427.181Z" fill="#333333"/>
<path d="M475.105 500.486H509.879L513.63 462.415H471.354L475.105 500.486Z" fill="#555555"/>
<path opacity="0.5" d="M475.105 500.486H509.879L513.63 462.415H471.354L475.105 500.486Z" fill="white"/>
<path d="M469.498 466.615H515.487V458.214H469.498V466.615Z" fill="#555555"/>
<path opacity="0.2" d="M469.498 466.615H515.487V458.214H469.498V466.615Z" fill="white"/>
<path d="M435.749 473.196L401.173 469.797V421.207H387.47V469.784L352.756 473.196C349.309 473.534 346.682 476.432 346.682 479.895V485.088H392.982H395.521H441.821V479.895C441.822 476.432 439.194 473.534 435.749 473.196Z" fill="#333333"/>
<path opacity="0.2" d="M435.749 473.196L401.173 469.797V421.207H387.47V469.784L352.756 473.196C349.309 473.534 346.682 476.432 346.682 479.895V485.088H392.982H395.521H441.821V479.895C441.822 476.432 439.194 473.534 435.749 473.196Z" fill="white"/>
<path d="M350.341 500.486C355.289 500.486 359.3 496.475 359.3 491.527C359.3 486.579 355.289 482.567 350.341 482.567C345.393 482.567 341.382 486.579 341.382 491.527C341.382 496.475 345.393 500.486 350.341 500.486Z" fill="#333333"/>
<path d="M438.162 500.486C443.11 500.486 447.121 496.475 447.121 491.527C447.121 486.579 443.11 482.567 438.162 482.567C433.214 482.567 429.203 486.579 429.203 491.527C429.203 496.475 433.214 500.486 438.162 500.486Z" fill="#333333"/>
<path d="M398.573 431.651H390.07C387.33 431.651 385.11 429.431 385.11 426.691V388.372H403.532V426.691C403.532 429.431 401.312 431.651 398.573 431.651Z" fill="#333333"/>
<path opacity="0.3" d="M398.573 431.651H390.07C387.33 431.651 385.11 429.431 385.11 426.691V388.372H403.532V426.691C403.532 429.431 401.312 431.651 398.573 431.651Z" fill="white"/>
<path d="M427.081 312.42C427.081 312.42 429.692 377.216 411.653 388.372H432.248C432.248 388.372 448.206 366.296 443.696 312.42H427.081Z" fill="#333333"/>
<path opacity="0.3" d="M427.081 312.42C427.081 312.42 429.692 377.216 411.653 388.372H432.248C432.248 388.372 448.206 366.296 443.696 312.42H427.081Z" fill="white"/>
<path d="M352.958 379.311H433.264C436.578 379.311 439.264 381.997 439.264 385.311V393.337H346.958V385.311C346.958 381.996 349.645 379.311 352.958 379.311Z" fill="#333333"/>
<path d="M345.524 386.324H440.698C442.031 386.324 443.111 387.404 443.111 388.737V390.924C443.111 392.257 442.031 393.337 440.698 393.337H345.524C344.191 393.337 343.111 392.257 343.111 390.924V388.737C343.111 387.404 344.191 386.324 345.524 386.324Z" fill="#333333"/>
<path opacity="0.6" d="M345.524 386.324H440.698C442.031 386.324 443.111 387.404 443.111 388.737V390.924C443.111 392.257 442.031 393.337 440.698 393.337H345.524C344.191 393.337 343.111 392.257 343.111 390.924V388.737C343.111 387.404 344.191 386.324 345.524 386.324Z" fill="white"/>
<path d="M448.745 325.585H415.752C406.086 325.585 398.251 317.75 398.251 308.084V295.182C398.251 285.516 406.086 277.681 415.752 277.681H448.746C458.412 277.681 466.247 285.516 466.247 295.182V308.084C466.247 317.75 458.411 325.585 448.745 325.585Z" fill="#333333"/>
<path d="M315.661 224.735L309.078 207.371C309.078 207.371 311.902 204.757 309.965 202.106C308.028 199.455 295.877 191.995 293.662 193.307C291.446 194.617 286.529 199.562 289.188 202.305C291.846 205.049 303.618 209.628 303.618 209.628L309.442 232.41L315.661 224.735Z" fill="#FF8B7B"/>
<path d="M361.66 257.75C361.66 257.75 331.696 251.59 328.446 250.12C325.198 248.65 313.134 213.323 313.134 213.323L303.889 217.643C303.889 217.643 311.332 253.092 318.941 261.522C326.551 269.952 359.01 277.082 359.01 277.082L361.66 257.75Z" fill="#555555"/>
<path opacity="0.2" d="M359.006 277.077C359.006 277.077 358.819 277.037 358.457 276.95C356.818 276.581 351.701 275.374 345.612 273.594C335.73 270.725 323.286 266.338 318.936 261.527C311.338 253.092 303.886 217.641 303.886 217.641L313.128 213.326C313.128 213.326 325.19 248.652 328.451 250.121C331.699 251.586 361.661 257.747 361.661 257.747L359.006 277.077Z" fill="#333333"/>
<path d="M313.28 212.63L315.191 216.313L303.311 220.403L303.769 215.902L313.28 212.63Z" fill="#555555"/>
<path opacity="0.2" d="M359.236 276.593C357.572 276.353 352.378 275.545 346.169 274.243C349.709 268.132 360.076 264.989 360.076 264.989L359.236 276.593Z" fill="#333333"/>
<path d="M403.9 233.296C403.9 233.296 405.662 249.892 399.512 253.967C393.362 258.042 363.121 253.269 359.689 246.593C356.258 239.917 369.168 221.787 369.168 221.787L403.9 233.296Z" fill="#333333"/>
<path d="M281.512 451.674L289.403 453.574L293.396 442.681L297.023 432.772L288.035 428.938L284.579 440.964L281.512 451.674Z" fill="#FF8B7B"/>
<path opacity="0.2" d="M284.579 440.964L293.396 442.681L297.023 432.772L288.035 428.938L284.579 440.964Z" fill="#333333"/>
<path d="M285.372 435.213L296.316 439.281C296.316 439.281 325.512 366.285 331.512 366.033C337.512 365.781 398.604 393.861 413.916 378.285C429.228 362.721 407.088 325.197 407.088 325.197C407.088 325.197 370.26 319.941 367.488 328.257C366.948 329.865 366.36 333.021 365.928 335.721C365.508 338.265 365.22 340.401 365.22 340.401C365.22 340.401 365.208 340.401 365.196 340.389C364.056 340.101 327.084 330.561 312.516 340.401C297.72 350.409 285.372 435.213 285.372 435.213Z" fill="#555555"/>
<path opacity="0.6" d="M285.372 435.213L296.316 439.281C296.316 439.281 325.512 366.285 331.512 366.033C337.512 365.781 398.604 393.861 413.916 378.285C429.228 362.721 407.088 325.197 407.088 325.197C407.088 325.197 370.26 319.941 367.488 328.257C366.948 329.865 366.36 333.021 365.928 335.721C365.508 338.265 365.22 340.401 365.22 340.401C365.22 340.401 365.208 340.401 365.196 340.389C364.056 340.101 327.084 330.561 312.516 340.401C297.72 350.409 285.372 435.213 285.372 435.213Z" fill="white"/>
<path d="M348.32 482.813L356.183 480.798L354.67 469.519L353.266 459.173L343.542 460.045L346.067 472.1L348.32 482.813Z" fill="#FF8B7B"/>
<path opacity="0.2" d="M346.129 472.343L354.725 469.734L353.293 459.281L343.556 460.1L346.129 472.343Z" fill="#333333"/>
<path d="M300.835 435.232L284.896 429.814L284.214 436.345L296.305 440.619L300.835 435.232Z" fill="#555555"/>
<path d="M387.468 382.031C387.468 382.031 384.974 382.09 346.345 380.29C346.345 380.29 352.118 428.584 355.267 464.737L343.716 466.706C343.716 466.706 316.116 389.291 316.416 376.991C316.716 364.691 330.816 361.091 330.816 361.091C330.816 361.091 358.337 376.99 387.468 382.031Z" fill="#555555"/>
<path opacity="0.6" d="M387.468 382.031C387.468 382.031 384.974 382.09 346.345 380.29C346.345 380.29 352.118 428.584 355.267 464.737L343.716 466.706C343.716 466.706 316.116 389.291 316.416 376.991C316.716 364.691 330.816 361.091 330.816 361.091C330.816 361.091 358.337 376.99 387.468 382.031Z" fill="white"/>
<path opacity="0.1" d="M387.468 382.031C387.468 382.031 384.974 382.09 346.345 380.29C346.345 380.29 352.118 428.584 355.267 464.737L343.716 466.706C343.716 466.706 316.116 389.291 316.416 376.991C316.716 364.691 330.816 361.091 330.816 361.091C330.816 361.091 358.337 376.99 387.468 382.031Z" fill="#333333"/>
<path d="M356.957 461.233L341.081 463.039L344.143 469.263L356.995 467.615L356.957 461.233Z" fill="#555555"/>
<path opacity="0.1" d="M365.22 340.402L386.76 344.89C386.76 344.89 374.856 338.314 365.928 335.722C365.508 338.266 365.22 340.402 365.22 340.402Z" fill="#333333"/>
<path d="M406.199 319.472L407.084 325.201L367.486 328.255L366.438 321.48L406.199 319.472Z" fill="#333333"/>
<path opacity="0.2" d="M406.199 319.472L407.084 325.201L367.486 328.255L366.438 321.48L406.199 319.472Z" fill="#333333"/>
<path d="M393.685 329.061L395.641 328.86L394.617 318.894L392.66 319.096L393.685 329.061Z" fill="#555555"/>
<path d="M376.15 328.057L384.825 327.5L384.403 320.921L375.727 321.478L376.15 328.057Z" fill="white"/>
<path d="M369.429 330.137L371.385 329.936L370.36 319.971L368.404 320.172L369.429 330.137Z" fill="#555555"/>
<path opacity="0.6" d="M393.685 329.061L395.641 328.86L394.617 318.894L392.66 319.096L393.685 329.061Z" fill="white"/>
<path opacity="0.6" d="M369.429 330.137L371.385 329.936L370.36 319.971L368.404 320.172L369.429 330.137Z" fill="white"/>
<path d="M360.941 257.202C360.941 257.202 371.051 260.373 383.756 259.72C396.462 259.068 411.653 265.239 411.653 265.239L406.199 319.472L366.438 321.48C366.438 321.48 353.078 276.192 360.941 257.202Z" fill="#555555"/>
<path d="M367.328 226.577C367.328 226.577 369.564 200.239 391.578 209.809C419.21 221.821 397.237 253.9 383.738 247.314C370.24 240.728 367.328 226.577 367.328 226.577Z" fill="#333333"/>
<path opacity="0.2" d="M373.5 261.192L374.132 276.073L379.07 269.073C379.07 269.073 377.309 285.532 378.34 294.493C378.34 294.493 379.283 278.423 381.52 269.073L386.76 276.073L394.29 261.283C394.29 261.283 382.106 256.907 373.5 261.192Z" fill="#333333"/>
<path d="M380.318 263.96L391.702 260.744C384.688 255.917 388.224 245.123 388.224 245.123L376.948 249.087C377.55 250.958 377.929 252.548 378.157 253.905C379.336 260.94 376.159 261.501 376.159 261.501L380.318 263.96Z" fill="#FF8B7B"/>
<path opacity="0.2" d="M376.949 249.087C377.551 250.958 377.93 252.548 378.158 253.905C383.556 251.742 388.225 245.123 388.225 245.123L376.949 249.087Z" fill="#333333"/>
<path d="M384.307 215.339C374.32 213.129 369.922 217.765 366.912 227.895C363.151 240.555 363.98 250.324 377.076 250.341C394.862 250.363 400.894 219.01 384.307 215.339Z" fill="#FF8B7B"/>
<path d="M373.492 228.766C373.492 228.766 371.531 231.069 369.668 232.265C369.668 232.265 370.223 233.813 372.052 233.978L373.492 228.766Z" fill="#FF8B7B"/>
<path d="M391.498 234.588C391.498 234.588 388.644 225.349 390.754 219.171C390.754 219.171 372.751 206.705 367.328 226.578C367.328 226.578 369.342 208.312 386.599 211.714C403.829 215.111 398.224 240.217 387.701 245.739C387.701 245.739 393.251 240.359 391.498 234.588Z" fill="#333333"/>
<path d="M389.4 236.336C389.822 234.742 392.084 232.388 395.003 233.376C398.023 234.399 398.092 241.079 390.055 240.903C388.902 240.878 388.518 239.66 389.4 236.336Z" fill="#FF8B7B"/>
<path d="M371.441 241.543C374.423 241.797 375.889 240.929 376.612 239.891C375.593 239.844 374.358 239.901 373.244 240.265C372.392 240.543 371.831 241.032 371.441 241.543Z" fill="#FF8B7B"/>
<path d="M384.347 216.138C384.347 216.138 384.733 233.463 395.128 235.542C405.522 237.622 394.159 213.28 394.159 213.28C394.159 213.28 378.683 203.171 368.366 210.296C358.05 217.42 367.328 226.578 367.328 226.578C367.328 226.578 369.508 213.71 384.347 216.138Z" fill="#333333"/>
<path d="M384.706 214.994C384.706 214.994 381.001 225.945 388.316 231.694" stroke="#333333" stroke-width="0.6" stroke-miterlimit="10" stroke-linecap="round" stroke-linejoin="round"/>
<path d="M398.162 239.106C396.84 242.629 393.445 244.612 390.578 243.537C387.713 242.46 386.461 238.733 387.784 235.211C389.106 231.688 392.501 229.705 395.368 230.781C398.233 231.856 399.485 235.583 398.162 239.106Z" fill="#555555"/>
<path opacity="0.4" d="M398.162 239.106C396.84 242.629 393.445 244.612 390.578 243.537C387.713 242.46 386.461 238.733 387.784 235.211C389.106 231.688 392.501 229.705 395.368 230.781C398.233 231.856 399.485 235.583 398.162 239.106Z" fill="#333333"/>
<path d="M394.853 233.329C394.853 233.329 399.156 214.045 389.498 208.991C389.498 208.991 391.511 209.262 392.759 209.626C394.007 209.989 401.722 217.81 397.823 235.141L394.853 233.329Z" fill="#555555"/>
<path opacity="0.2" d="M394.853 233.329C394.853 233.329 399.156 214.045 389.498 208.991C389.498 208.991 391.511 209.262 392.759 209.626C394.007 209.989 401.722 217.81 397.823 235.141L394.853 233.329Z" fill="#333333"/>
<path d="M376.739 244.366C376.5 244.334 376.26 244.298 376.018 244.258L376.212 243.074C384.908 244.49 391.379 239.888 391.444 239.84L392.153 240.809C391.883 241.007 385.59 245.53 376.739 244.366Z" fill="#555555"/>
<g opacity="0.2">
<path d="M376.739 244.366C376.5 244.334 376.26 244.298 376.018 244.258L376.212 243.074C384.908 244.49 391.379 239.888 391.444 239.84L392.153 240.809C391.883 241.007 385.59 245.53 376.739 244.366Z" fill="#333333"/>
</g>
<path d="M397.757 238.624C396.882 240.953 394.638 242.263 392.743 241.553C390.848 240.841 390.022 238.378 390.895 236.049C391.77 233.719 394.014 232.409 395.909 233.119C397.804 233.831 398.63 236.295 397.757 238.624Z" fill="#555555"/>
<path d="M375.666 244.759L374.702 244.632C373.987 244.538 373.484 243.882 373.578 243.167C373.672 242.452 374.328 241.949 375.042 242.042L376.006 242.17C376.721 242.263 377.224 242.92 377.13 243.635C377.038 244.35 376.381 244.853 375.666 244.759Z" fill="#555555"/>
<path opacity="0.4" d="M375.666 244.759L374.702 244.632C373.987 244.538 373.484 243.882 373.578 243.167C373.672 242.452 374.328 241.949 375.042 242.042L376.006 242.17C376.721 242.263 377.224 242.92 377.13 243.635C377.038 244.35 376.381 244.853 375.666 244.759Z" fill="#333333"/>
<path d="M388.65 256.618L381.52 263.621L384.371 272.202L394.29 261.283L388.65 256.618Z" fill="#555555"/>
<path d="M378.34 258.082L379.493 263.472L375.8 271.095L373.5 261.192L378.34 258.082Z" fill="#555555"/>
<path d="M387.124 262.697L391.265 247.541C391.265 247.541 389.258 243.766 389.692 242.975C390.125 242.185 392.28 232.009 393.817 230.9C395.353 229.793 401.67 231.684 402.31 232.716C402.949 233.748 396.256 247.54 396.256 247.54L393.816 263.959L387.124 262.697Z" fill="#FF8B7B"/>
<path d="M411.653 265.24C423.047 276.903 400.21 303.324 387.124 302.199C374.038 301.073 387.45 253.163 387.45 253.163L395.83 254.542C395.83 254.542 392.89 275.275 393.816 276.903C394.745 278.529 407.824 261.319 411.653 265.24Z" fill="#555555"/>
<path opacity="0.2" d="M411.653 265.24C423.047 276.903 400.21 303.324 387.124 302.199C374.038 301.073 387.45 253.163 387.45 253.163L395.83 254.542C395.83 254.542 392.89 275.275 393.816 276.903C394.745 278.529 407.824 261.319 411.653 265.24Z" fill="#333333"/>
<path d="M386.761 251.631L385.521 255.587L397.197 256.618V253.163L386.761 251.631Z" fill="#555555"/>
<path d="M268.446 467.002C269.646 466.45 270.936 466.122 272.255 466.034C272.255 466.034 276.812 463.351 281.329 452.93L286.409 452.9C288.167 452.921 289.727 454.037 290.311 455.695C290.395 455.921 290.443 456.158 290.455 456.398C290.404 457.626 290.274 458.849 290.065 460.06C289.608 463.859 287.095 472.01 287.095 472.01L286.235 471.791L287.8 464.212C288.32 461.636 285.614 464.124 284.359 466.721C283.104 469.318 281.179 471.931 275.569 470.648C269.032 469.118 266.396 468.178 268.446 467.002Z" fill="#555555"/>
<path d="M282.248 450.2C282.248 450.2 275.906 463.473 272.254 466.034C272.254 466.034 277.15 468.953 282.248 462.455C288.841 454.052 290.454 456.399 290.454 456.399C290.454 456.399 290.174 453.524 289.66 452.116C288.671 449.404 282.248 450.2 282.248 450.2Z" fill="#FF8B7B"/>
<path d="M338.311 498.625C339.346 497.805 340.522 497.179 341.782 496.782C341.782 496.782 345.572 493.095 347.49 481.9L352.417 480.666C354.131 480.269 355.909 480.984 356.87 482.457C357.005 482.656 357.108 482.875 357.176 483.106C357.418 484.311 357.581 485.529 357.665 486.755C358.122 490.554 357.614 499.069 357.614 499.069L356.726 499.061L356.449 491.327C356.344 488.701 354.305 491.76 353.701 494.58C353.098 497.4 351.847 500.396 346.093 500.48C339.383 500.543 336.6 500.253 338.311 498.625Z" fill="#555555"/>
<path d="M347.736 479.028C347.736 479.028 344.722 493.427 341.782 496.781C341.782 496.781 347.231 498.456 350.642 490.934C355.054 481.207 357.178 483.104 357.178 483.104C357.178 483.104 356.225 480.377 355.391 479.131C353.785 476.732 347.736 479.028 347.736 479.028Z" fill="#FF8B7B"/>
<path d="M459.312 218.663H417.413C414.056 218.663 411.335 215.941 411.335 212.585V194.656C411.335 191.299 414.056 188.578 417.413 188.578H459.312C462.668 188.578 465.39 191.299 465.39 194.656V212.585C465.39 215.941 462.668 218.663 459.312 218.663Z" fill="#555555"/>
<path d="M425.821 215.233L413.198 232.391L433.564 216.384L425.821 215.233Z" fill="#555555"/>
<path d="M426.293 203.62C426.293 204.598 425.501 205.39 424.523 205.39C423.545 205.39 422.753 204.596 422.753 203.62C422.753 202.642 423.545 201.85 424.523 201.85C425.499 201.85 426.293 202.642 426.293 203.62Z" fill="white"/>
<path d="M435.52 203.62C435.52 204.598 434.726 205.39 433.749 205.39C432.773 205.39 431.979 204.596 431.979 203.62C431.979 202.642 432.773 201.85 433.749 201.85C434.726 201.85 435.52 202.642 435.52 203.62Z" fill="white"/>
<path d="M444.746 203.62C444.746 204.598 443.954 205.39 442.976 205.39C441.998 205.39 441.206 204.596 441.206 203.62C441.206 202.642 442 201.85 442.976 201.85C443.954 201.85 444.746 202.642 444.746 203.62Z" fill="white"/>
<path d="M453.973 203.62C453.973 204.598 453.18 205.39 452.203 205.39C451.225 205.39 450.433 204.596 450.433 203.62C450.433 202.642 451.225 201.85 452.203 201.85C453.181 201.85 453.973 202.642 453.973 203.62Z" fill="white"/>
<path d="M290.917 195.006L261.037 178.913C260.23 178.477 259.927 177.471 260.363 176.662L269.892 158.968C270.328 158.16 271.334 157.858 272.143 158.292L302.023 174.385C302.831 174.821 303.133 175.828 302.699 176.637L293.17 194.331C292.733 195.138 291.725 195.441 290.917 195.006Z" fill="#555555"/>
<path opacity="0.7" d="M290.917 195.006L261.037 178.913C260.23 178.477 259.927 177.471 260.363 176.662L269.892 158.968C270.328 158.16 271.334 157.858 272.143 158.292L302.023 174.385C302.831 174.821 303.133 175.828 302.699 176.637L293.17 194.331C292.733 195.138 291.725 195.441 290.917 195.006Z" fill="white"/>
<path opacity="0.2" d="M269.104 160.431L278.452 177.887C279.18 179.247 280.654 180.034 282.188 179.881L301.645 177.958L281.839 180.874C280.063 181.135 278.327 180.199 277.567 178.573L269.104 160.431Z" fill="#333333"/>
<path d="M246.41 157.179C246.728 150.502 251.67 137.05 257.683 132.936C263.696 128.821 259.74 134.519 259.74 134.519C259.74 134.519 265.436 128.981 268.444 129.139C271.451 129.298 268.444 132.779 268.444 132.779C268.444 132.779 274.615 128.975 277.464 129.136C280.313 129.298 277.464 132.621 277.464 132.621C277.464 132.621 282.528 128.981 284.585 130.722C286.642 132.463 258.317 151.135 255.152 158.731C251.987 166.325 246.089 163.936 246.41 157.179Z" fill="#555555"/>
<path opacity="0.4" d="M246.41 157.179C246.728 150.502 251.67 137.05 257.683 132.936C263.696 128.821 259.74 134.519 259.74 134.519C259.74 134.519 265.436 128.981 268.444 129.139C271.451 129.298 268.444 132.779 268.444 132.779C268.444 132.779 274.615 128.975 277.464 129.136C280.313 129.298 277.464 132.621 277.464 132.621C277.464 132.621 282.528 128.981 284.585 130.722C286.642 132.463 258.317 151.135 255.152 158.731C251.987 166.325 246.089 163.936 246.41 157.179Z" fill="white"/>
<path d="M270.738 156.193L274.522 158.616C274.794 158.79 274.652 159.213 274.33 159.187L270.355 158.878L270.697 161.928C270.734 162.259 270.323 162.442 270.102 162.192L267.81 159.597L270.738 156.193Z" fill="#555555"/>
<path opacity="0.3" d="M270.738 156.193L274.522 158.616C274.794 158.79 274.652 159.213 274.33 159.187L270.355 158.878L270.697 161.928C270.734 162.259 270.323 162.442 270.102 162.192L267.81 159.597L270.738 156.193Z" fill="white"/>
<path d="M217.649 141.167C217.649 141.167 222.871 137.525 230.783 139.899C230.783 139.899 233.058 150.342 239.279 153.823C242.695 155.735 251.065 155.571 257.684 153.427C265.546 150.882 269.394 150.882 270.818 153.823C272.167 156.609 270.66 159.837 264.647 161.261C258.634 162.685 253.886 173.129 242.968 173.287C232.049 173.446 226.302 162.498 229.043 152.874C229.043 152.874 225.719 145.701 217.649 141.167Z" fill="#555555"/>
<path opacity="0.5" d="M217.649 141.167C217.649 141.167 222.871 137.525 230.783 139.899C230.783 139.899 233.058 150.342 239.279 153.823C242.695 155.735 251.065 155.571 257.684 153.427C265.546 150.882 269.394 150.882 270.818 153.823C272.167 156.609 270.66 159.837 264.647 161.261C258.634 162.685 253.886 173.129 242.968 173.287C232.049 173.446 226.302 162.498 229.043 152.874C229.043 152.874 225.719 145.701 217.649 141.167Z" fill="white"/>
<path d="M267.811 155.802C267.811 156.097 267.572 156.336 267.277 156.336C266.982 156.336 266.743 156.097 266.743 155.802C266.743 155.507 266.982 155.268 267.277 155.268C267.572 155.268 267.811 155.507 267.811 155.802Z" fill="#333333"/>
<path d="M240.433 164.591C233.984 166.349 219.665 165.801 213.895 161.351C208.126 156.902 214.765 158.906 214.765 158.906C214.765 158.906 207.739 155.196 206.962 152.288C206.184 149.379 210.424 151.164 210.424 151.164C210.424 151.164 204.9 146.469 204.174 143.71C203.448 140.951 207.488 142.635 207.488 142.635C207.488 142.635 202.464 138.941 203.484 136.448C204.504 133.954 231.008 155.133 239.21 155.798C247.412 156.465 246.96 162.812 240.433 164.591Z" fill="#555555"/>
<path opacity="0.4" d="M240.433 164.591C233.984 166.349 219.665 165.801 213.895 161.351C208.126 156.902 214.765 158.906 214.765 158.906C214.765 158.906 207.739 155.196 206.962 152.288C206.184 149.379 210.424 151.164 210.424 151.164C210.424 151.164 204.9 146.469 204.174 143.71C203.448 140.951 207.488 142.635 207.488 142.635C207.488 142.635 202.464 138.941 203.484 136.448C204.504 133.954 231.008 155.133 239.21 155.798C247.412 156.465 246.96 162.812 240.433 164.591Z" fill="white"/>
<path d="M198.196 134.951C197.068 134.549 195.926 134.174 194.776 133.825" stroke="#555555" stroke-width="0.9" stroke-linecap="round" stroke-linejoin="round"/>
<path d="M187.76 132.036C183.554 131.155 179.279 130.584 175.032 130.289C163.364 129.476 145.074 128.321 137.927 139.947C131.414 150.542 142.619 168.619 146.596 178.455C151.466 190.502 157.258 205.399 151.502 218.153C139.675 244.359 89.0472 230.751 71.9688 206.615" stroke="#555555" stroke-width="0.9" stroke-linecap="round" stroke-linejoin="round" stroke-dasharray="7.24 7.24"/>
<path d="M70.0272 203.566C69.426 202.508 68.8908 201.433 68.4264 200.343" stroke="#555555" stroke-width="0.9" stroke-linecap="round" stroke-linejoin="round"/>
<path d="M215.77 298.851H170.22V308.193H215.77V298.851Z" fill="white"/>
<path opacity="0.1" d="M215.77 298.851H170.22V308.193H215.77V298.851Z" fill="#333333"/>
<path opacity="0.1" d="M189.404 298.851H170.22V308.193H189.404V298.851Z" fill="#333333"/>
<path opacity="0.1" d="M170.22 300.196H210.767L170.22 301.343V300.196Z" fill="#333333"/>
<path opacity="0.1" d="M215.77 301.818L180.622 302.688H215.77V301.818Z" fill="#333333"/>
<path opacity="0.1" d="M172.076 304.43L189.404 303.717L214.88 304.43L189.404 304.824L172.076 304.43Z" fill="#333333"/>
<path opacity="0.1" d="M170.22 306.407H200.244L170.22 307.118V306.407Z" fill="#333333"/>
<path opacity="0.1" d="M215.705 307.119L195.654 307.491H215.77L215.705 307.119Z" fill="#333333"/>
<path d="M209.43 289.508H163.88V298.85H209.43V289.508Z" fill="white"/>
<path opacity="0.1" d="M209.43 289.508H163.88V298.85H209.43V289.508Z" fill="#333333"/>
<path opacity="0.1" d="M183.065 289.508H163.88V298.85H183.065V289.508Z" fill="#333333"/>
<path opacity="0.1" d="M163.88 290.854H204.427L163.88 292.001V290.854Z" fill="#333333"/>
<path opacity="0.1" d="M209.431 292.476L174.282 293.346H209.431V292.476Z" fill="#333333"/>
<path opacity="0.1" d="M165.738 295.087L183.065 294.375L208.542 295.087L183.065 295.482L165.738 295.087Z" fill="#333333"/>
<path opacity="0.1" d="M163.88 297.064H193.904L163.88 297.776V297.064Z" fill="#333333"/>
<path opacity="0.1" d="M209.365 297.776L189.316 298.148H209.431L209.365 297.776Z" fill="#333333"/>
<path d="M214.631 280.166H169.081V289.508H214.631V280.166Z" fill="white"/>
<path opacity="0.1" d="M214.631 280.166H169.081V289.508H214.631V280.166Z" fill="#333333"/>
<path opacity="0.1" d="M188.266 280.166H169.081V289.508H188.266V280.166Z" fill="#333333"/>
<path opacity="0.1" d="M169.081 281.511H209.628L169.081 282.658V281.511Z" fill="#333333"/>
<path opacity="0.1" d="M214.632 283.134L179.483 284.004H214.632V283.134Z" fill="#333333"/>
<path opacity="0.1" d="M170.939 285.744L188.266 285.032L213.743 285.744L188.266 286.14L170.939 285.744Z" fill="#333333"/>
<path opacity="0.1" d="M169.081 287.723H199.105L169.081 288.434V287.723Z" fill="#333333"/>
<path opacity="0.1" d="M214.566 288.434L194.516 288.806H214.632L214.566 288.434Z" fill="#333333"/>
<path d="M244.975 307.997L246.16 303.521H294.822L317.231 305.758L318.083 307.997H244.975Z" fill="#333333"/>
<path opacity="0.4" d="M294.822 303.521V307.997H244.975L246.16 303.521H294.822Z" fill="#333333"/>
<path d="M285.046 282.095C285.262 284.459 283.534 286.379 281.182 286.379H206.638C204.274 286.379 202.186 284.459 201.97 282.095L197.542 234.371C197.494 233.879 197.53 233.411 197.638 232.979C198.058 231.299 199.534 230.087 201.406 230.087H275.95C278.314 230.087 280.402 232.007 280.618 234.371L285.046 282.095Z" fill="#333333"/>
<path opacity="0.4" d="M280.919 286.379H206.639C204.275 286.379 202.187 284.459 201.971 282.095L197.543 234.371C197.495 233.879 197.531 233.411 197.639 232.979H271.919C274.271 232.979 276.359 234.899 276.587 237.263L281.015 284.987C281.063 285.479 281.026 285.947 280.919 286.379Z" fill="#333333"/>
<path d="M229.705 257.108H245.126L241.015 301.26L265.402 304.921V307.997H214.042V304.921L224.563 301.26L229.705 257.108Z" fill="#333333"/>
<path opacity="0.1" d="M245.126 257.108L233.701 307.295L224.563 307.024L229.705 257.108H245.126Z" fill="white"/>
<path d="M245.056 500.486H237.704L224.496 316.589H234.25L245.056 500.486Z" fill="#333333"/>
<path opacity="0.4" d="M245.06 500.486H237.704L225.14 325.724L224.492 316.886H234.248L234.776 325.724L245.06 500.486Z" fill="white"/>
<path opacity="0.2" d="M234.776 325.286H225.14L224.492 316.886H234.248L234.776 325.286Z" fill="#333333"/>
<path d="M299.006 500.486H291.655L290.455 316.589H300.208L299.006 500.486Z" fill="#333333"/>
<path opacity="0.5" d="M300.212 316.886L300.02 346.556L299.012 500.486H291.656L290.648 346.556L290.456 316.886H300.212Z" fill="white"/>
<path opacity="0.2" d="M300.212 316.886L300.02 346.886H290.648L290.456 316.886H300.212Z" fill="#333333"/>
<path d="M377.056 500.486H369.704L356.496 316.589H366.25L377.056 500.486Z" fill="#333333"/>
<path opacity="0.5" d="M377.06 500.486H369.704L357.14 325.724L356.492 316.886H366.248L366.776 325.724L377.06 500.486Z" fill="white"/>
<path opacity="0.2" d="M366.776 325.286H357.14L356.492 316.886H366.248L366.776 325.286Z" fill="#333333"/>
<path d="M160.958 500.486H153.606L164.413 316.589H174.166L160.958 500.486Z" fill="#333333"/>
<path opacity="0.5" d="M174.164 316.886L173.516 325.724L160.952 500.486H153.608L163.88 325.724L164.408 316.886H174.164Z" fill="white"/>
<path opacity="0.2" d="M164.408 316.886H174.164L173.516 325.286H163.88L164.408 316.886Z" fill="#333333"/>
<path d="M371.386 321.195H159.277C157.844 321.195 156.683 320.033 156.683 318.6V311.983H373.98V318.599C373.98 320.033 372.818 321.195 371.386 321.195Z" fill="#555555"/>
<path opacity="0.6" d="M371.386 321.195H159.277C157.844 321.195 156.683 320.033 156.683 318.6V311.983H373.98V318.599C373.98 320.033 372.818 321.195 371.386 321.195Z" fill="white"/>
<path opacity="0.2" d="M373.98 311.983H156.683V316.589H373.98V311.983Z" fill="#333333"/>
<path d="M378.536 313.185H152.126C150.694 313.185 149.532 312.023 149.532 310.59C149.532 309.158 150.694 307.996 152.126 307.996H378.538C379.97 307.996 381.132 309.158 381.132 310.59C381.131 312.023 379.969 313.185 378.536 313.185Z" fill="#555555"/>
<path opacity="0.6" d="M378.536 313.185H152.126C150.694 313.185 149.532 312.023 149.532 310.59C149.532 309.158 150.694 307.996 152.126 307.996H378.538C379.97 307.996 381.132 309.158 381.132 310.59C381.131 312.023 379.969 313.185 378.536 313.185Z" fill="white"/>
<path d="M324.967 300.003L327.756 295.828C328.312 294.995 329.246 294.496 330.248 294.496H333.78C334.074 294.496 334.368 294.539 334.649 294.624L347.234 298.439C347.95 298.656 348.559 299.133 348.941 299.775L350.747 302.811L324.967 300.003Z" fill="#555555"/>
<path opacity="0.2" d="M350.747 302.812L332.423 300.82L324.971 300.004L327.755 295.828C328.307 295 329.243 294.496 330.251 294.496H333.779C334.079 294.496 334.367 294.544 334.655 294.628L334.931 294.712L347.231 298.444C347.951 298.66 348.563 299.128 348.947 299.776L350.747 302.812Z" fill="#333333"/>
<path opacity="0.2" d="M350.747 302.812L332.423 300.82L334.931 294.712L347.231 298.444C347.951 298.66 348.563 299.128 348.947 299.776L350.747 302.812Z" fill="#333333"/>
<path d="M359.458 307.599V307.995H343.486H320.554L321.994 302.367C322.558 300.255 324.478 298.779 326.662 298.779H343.918C344.494 298.779 345.058 298.875 345.598 299.079L347.758 299.883L356.326 303.075C358.211 303.784 359.458 305.584 359.458 307.599Z" fill="#555555"/>
<path opacity="0.2" d="M359.458 307.599V307.995H343.486L344.338 301.911C344.566 300.303 346.234 299.319 347.758 299.883L356.326 303.075C358.211 303.784 359.458 305.584 359.458 307.599Z" fill="#333333"/>
<path d="M345.973 303.86L351.054 288.61C351.274 287.951 352.028 287.645 352.645 287.963C353.116 288.206 353.354 288.743 353.22 289.255L348.941 305.535C348.941 305.535 346.092 306.687 345.973 303.86Z" fill="#333333"/>
<path opacity="0.2" d="M324.967 306.729H322.712L323.147 304.514H325.402L324.967 306.729Z" fill="#333333"/>
<path opacity="0.2" d="M328.33 306.642H326.075L326.509 304.427H328.765L328.33 306.642Z" fill="#333333"/>
</g>
</svg>
