<?xml version="1.0" standalone="no"?>
<!DOCTYPE svg PUBLIC "-//W3C//DTD SVG 20010904//EN"
 "http://www.w3.org/TR/2001/REC-SVG-20010904/DTD/svg10.dtd">
<svg version="1.0" xmlns="http://www.w3.org/2000/svg"
 width="300.000000pt" height="300.000000pt" viewBox="0 0 300.000000 300.000000"
 preserveAspectRatio="xMidYMid meet">
<metadata>
Created by potrace 1.10, written by Peter Selinger 2001-2011
</metadata>
<g transform="translate(0.000000,300.000000) scale(0.100000,-0.100000)"
fill="#000000" stroke="none">
<path d="M233 2993 c37 -2 96 -2 130 0 34 2 4 3 -68 3 -72 0 -99 -1 -62 -3z"/>
<path d="M583 2993 c101 -3 147 -7 147 -15 0 -6 3 -9 6 -6 3 4 18 3 34 -2 23
-7 29 -5 33 11 5 18 -2 19 -181 17 l-187 -2 148 -3z"/>
<path d="M920 2919 c0 -44 4 -78 9 -75 4 3 9 35 9 71 1 36 4 70 7 75 4 6 -1
10 -9 10 -13 0 -16 -14 -16 -81z"/>
<path d="M2984 2983 c-44 -72 -65 -113 -57 -113 11 0 75 108 71 120 -2 6 -8 2
-14 -7z"/>
<path d="M1196 2864 c-131 -35 -232 -113 -289 -221 -34 -66 -81 -212 -72 -222
7 -6 26 13 29 30 11 65 92 225 135 267 40 41 156 106 170 98 5 -4 11 -2 13 4
3 10 30 19 71 24 20 3 47 26 30 26 -6 0 -17 2 -25 4 -7 2 -35 -3 -62 -10z"/>
<path d="M2803 2848 c-16 -18 -55 -64 -85 -103 -76 -95 -96 -112 -149 -124
-79 -18 -138 -49 -194 -102 -30 -29 -55 -55 -55 -59 0 -4 10 -8 23 -8 12 0 57
-21 100 -46 43 -26 82 -44 87 -41 12 8 210 -191 210 -210 0 -8 -2 -15 -5 -15
-12 0 -90 43 -134 74 -25 18 -57 38 -71 45 -20 10 -19 7 9 -18 18 -17 38 -31
44 -31 6 0 7 -3 4 -7 -14 -13 121 -76 148 -69 18 5 65 81 65 106 0 17 -31 39
-46 33 -11 -4 -12 -8 -4 -13 7 -4 8 -10 3 -13 -12 -8 -85 34 -91 52 -3 8 0 11
6 7 8 -5 7 6 -2 31 -7 21 -14 61 -15 88 -3 60 -9 69 -17 27 -4 -18 -12 -32
-18 -32 -7 0 -7 -3 1 -8 12 -8 12 -36 0 -48 -3 -3 -14 1 -23 10 -9 9 -29 20
-45 23 -16 3 -29 10 -29 16 0 6 -3 8 -6 4 -4 -3 -26 7 -50 23 -23 17 -47 30
-53 30 -21 0 -11 20 29 59 36 35 83 56 148 64 12 2 28 9 34 15 7 7 17 12 23
12 12 0 122 118 139 149 15 27 65 71 80 71 19 0 28 -27 11 -34 -8 -3 -12 -12
-9 -20 3 -9 -10 -35 -30 -62 -20 -26 -36 -51 -36 -55 0 -20 17 -6 50 41 33 47
50 61 50 42 0 -5 -13 -27 -28 -48 -40 -55 -44 -64 -34 -64 18 0 66 86 73 130
3 25 9 53 13 62 6 12 0 21 -23 32 -44 23 -63 20 -98 -16z"/>
<path d="M315 2840 l-30 -9 9 -116 c10 -131 6 -145 -40 -119 -24 14 -43 15
-97 10 -37 -4 -65 -11 -62 -16 3 -4 -4 -6 -15 -3 -11 3 -20 0 -20 -6 0 -13 7
-14 121 -11 82 1 87 0 92 -21 3 -13 2 -41 -3 -64 -7 -34 -14 -120 -11 -149 1
-5 8 -3 16 4 8 7 24 10 35 7 21 -5 21 -3 20 216 -1 122 -1 228 -1 235 1 10 49
12 224 10 l222 -3 11 -160 c7 -88 11 -193 9 -233 -1 -53 1 -70 9 -62 6 6 12
41 13 78 5 119 3 391 -3 405 -4 11 -48 14 -237 15 -128 0 -245 -3 -262 -8z"/>
<path d="M1260 2815 c-11 -13 -8 -15 18 -15 19 0 35 -7 41 -17 6 -10 11 -14
11 -9 0 5 7 3 15 -4 12 -10 15 -10 15 4 0 9 5 16 11 16 8 0 9 -14 5 -43 -7
-48 10 -147 26 -147 5 0 7 9 3 19 -14 46 -14 69 2 114 12 34 22 47 36 47 19 0
19 -1 2 -26 -21 -32 -38 -87 -24 -79 5 4 9 0 9 -7 0 -7 12 0 27 17 25 29 25
30 5 35 -20 5 -20 6 -2 27 9 12 20 20 23 17 3 -3 8 -1 11 4 3 5 -41 21 -99 36
-123 31 -119 30 -135 11z"/>
<path d="M2818 2758 c-17 -14 -53 -68 -46 -68 3 0 19 18 37 40 33 42 36 49 9
28z"/>
<path d="M2952 2748 c-7 -7 -12 -20 -12 -29 0 -9 -7 -23 -17 -30 -15 -13 -15
-12 -4 10 23 42 -7 12 -32 -33 -23 -41 -23 -45 -7 -49 13 -3 17 0 13 9 -3 8
-1 14 5 14 13 0 82 90 82 107 0 16 -12 17 -28 1z"/>
<path d="M1536 2720 c51 -38 69 -39 24 0 -19 16 -41 30 -49 30 -8 0 3 -13 25
-30z"/>
<path d="M1714 2706 c-24 -27 -26 -71 -3 -100 12 -15 19 -30 15 -33 -3 -4 -6
-2 -6 4 0 6 -11 18 -25 27 -25 17 -25 16 5 -25 30 -42 39 -66 20 -54 -5 3 3
-21 18 -53 15 -32 33 -59 40 -59 13 0 17 13 4 19 -11 4 -54 80 -49 85 3 2 12
-3 21 -13 15 -15 16 -14 12 12 -3 16 -8 55 -11 86 -7 54 -6 58 16 66 13 4 110
7 214 5 105 -1 244 -3 311 -3 l120 -1 18 -30 c23 -39 36 -37 36 6 0 60 -18 63
-485 70 -202 3 -263 1 -271 -9z"/>
<path d="M1494 2685 c3 -8 0 -14 -6 -12 -7 1 -14 -6 -16 -15 -2 -10 2 -18 8
-18 6 0 9 3 7 8 -3 4 8 7 24 8 16 1 29 -3 29 -7 0 -5 -5 -9 -11 -9 -5 0 -8 -4
-4 -10 3 -5 13 -6 22 -3 10 4 14 2 10 -4 -5 -7 0 -9 14 -6 19 5 20 4 10 -16
-10 -18 -7 -25 20 -52 30 -29 30 -31 8 -24 -29 9 -60 35 -54 45 7 11 -58 19
-71 9 -6 -5 -15 -5 -19 -1 -5 4 -5 1 -1 -5 4 -7 15 -13 25 -13 40 0 84 -62
104 -147 l14 -63 -48 -31 c-27 -17 -49 -33 -49 -35 0 -11 31 -1 64 21 35 24
48 22 24 -4 -11 -11 -6 -12 24 -7 42 8 78 -6 78 -29 0 -8 -5 -15 -11 -15 -5 0
-7 -5 -4 -10 10 -17 -14 -76 -42 -104 -31 -32 -61 -33 -97 -5 -23 18 -27 27
-24 67 2 28 8 47 17 50 8 3 11 0 8 -5 -3 -5 3 -14 14 -21 17 -11 19 -9 19 10
1 21 1 22 11 4 6 -10 9 -40 7 -67 -5 -50 -3 -55 21 -40 9 6 12 25 9 68 -6 72
-13 86 -41 78 -17 -5 -19 -4 -7 4 30 21 -12 12 -48 -11 -31 -19 -40 -20 -76
-10 -22 6 -43 8 -45 6 -3 -3 5 -7 17 -11 12 -3 22 -7 22 -10 0 -8 -29 -34 -37
-33 -4 1 -10 -6 -11 -16 -3 -10 0 -14 7 -10 6 4 11 1 11 -6 0 -46 -86 -92
-128 -69 -22 12 -39 69 -28 96 4 11 11 12 28 6 29 -10 98 7 98 26 0 7 -7 16
-15 19 -8 4 -12 11 -9 16 5 7 -17 8 -67 4 -65 -6 -82 -4 -141 18 -38 14 -68
22 -68 18 0 -5 32 -24 72 -43 l72 -34 11 -57 c16 -82 27 -91 97 -85 32 3 56 2
53 -2 -2 -5 1 -16 8 -25 11 -15 20 -16 62 -8 47 8 48 9 22 17 -18 5 -33 3 -40
-4 -14 -14 -27 -14 -27 -1 0 5 15 13 33 18 28 8 32 12 29 38 -2 16 -10 36 -18
45 -12 13 -11 18 8 39 l23 24 6 -36 c7 -45 35 -89 60 -95 24 -7 21 -19 -33
-128 -22 -44 -43 -87 -48 -95 -21 -44 -120 -50 -169 -11 -14 12 -42 28 -61 37
-83 36 -101 46 -132 71 -18 14 -11 5 15 -21 26 -25 52 -46 57 -46 5 0 30 -10
55 -22 62 -30 65 -50 20 -137 -20 -39 -35 -76 -33 -82 6 -18 88 109 88 137 0
15 24 16 75 5 17 -4 40 -3 53 3 18 7 26 6 33 -5 8 -12 10 -12 8 1 -3 21 11 51
21 45 5 -3 6 4 3 15 -3 12 0 20 6 20 7 0 9 5 5 12 -5 7 -2 9 9 5 12 -4 15 -1
12 14 -2 12 10 40 29 67 18 26 36 60 40 75 3 15 10 26 15 23 8 -5 53 79 67
124 7 24 7 24 15 5 5 -14 8 -15 9 -5 3 33 19 -27 19 -74 1 -52 -26 -123 -56
-148 -14 -11 -15 -9 -11 20 3 19 1 29 -4 24 -8 -8 -14 -35 -17 -75 -1 -5 -6
-5 -12 -1 -6 3 -9 19 -5 35 3 16 1 29 -4 29 -6 0 -10 -21 -10 -46 0 -27 4 -43
10 -39 16 10 12 -18 -10 -60 -11 -22 -20 -46 -19 -55 0 -10 3 -9 8 5 7 17 9
16 15 -12 12 -51 29 -41 21 12 -8 58 8 109 51 157 37 42 64 98 64 135 0 13 4
32 9 41 10 18 2 67 -23 157 -10 34 -15 42 -16 25 0 -22 -2 -23 -11 -7 -5 9 -8
21 -4 26 3 5 1 11 -4 13 -5 1 -23 34 -40 73 -31 68 -31 69 -6 45 14 -13 25
-29 25 -36 0 -6 7 -18 16 -25 21 -17 -14 51 -47 92 -11 14 -21 37 -23 52 -1
15 -15 36 -32 48 -46 35 -48 38 -23 33 13 -3 2 6 -26 20 -58 30 -69 32 -61 11z
m191 -336 c8 -37 7 -39 -25 -32 -22 4 -25 10 -26 46 0 23 -3 51 -8 62 -5 13 3
8 22 -13 17 -18 34 -47 37 -63z"/>
<path d="M2951 2621 c-36 -31 -52 -38 -88 -39 -67 -1 -100 -55 -48 -79 19 -8
25 -8 25 1 0 7 6 21 14 32 14 18 15 18 26 -11 12 -32 29 -47 43 -38 5 3 3 9
-4 14 -11 7 -11 9 -1 9 15 0 26 -10 60 -54 l22 -29 0 43 c0 34 -6 47 -31 71
-28 26 -29 29 -10 29 22 0 28 14 11 25 -16 10 -12 22 10 28 11 3 20 12 20 21
0 21 2 22 -49 -23z"/>
<path d="M2747 2622 c-35 -24 -37 -27 -21 -39 25 -19 33 -16 40 12 3 14 10 22
15 19 5 -3 9 4 9 15 0 12 -1 21 -2 20 -2 -1 -20 -13 -41 -27z"/>
<path d="M484 2595 c3 -8 1 -15 -4 -15 -6 0 -10 -7 -10 -16 0 -13 3 -14 14 -5
21 18 27 51 9 51 -9 0 -13 -6 -9 -15z"/>
<path d="M1400 2571 c0 -4 -19 -13 -42 -18 -36 -9 -38 -11 -15 -12 16 0 26 -5
22 -11 -3 -5 -1 -10 5 -10 7 0 10 7 6 15 -4 11 2 15 20 15 14 0 23 -4 20 -9
-8 -13 18 -21 35 -10 11 7 9 13 -11 29 -27 21 -40 25 -40 11z"/>
<path d="M495 2540 c3 -5 0 -10 -8 -10 -19 0 -17 -28 2 -36 28 -11 119 -14
143 -5 21 9 21 10 -10 10 -46 1 -112 24 -112 38 0 7 -5 13 -11 13 -5 0 -7 -4
-4 -10z"/>
<path d="M1307 2507 c4 -6 0 -8 -9 -4 -10 3 -24 -3 -34 -14 -16 -18 -16 -19
-1 -13 9 3 17 10 17 14 0 4 11 5 24 3 29 -6 44 13 16 20 -13 3 -18 1 -13 -6z"/>
<path d="M2834 2439 c3 -17 6 -50 6 -73 1 -33 3 -37 11 -23 5 9 8 36 5 60 -2
23 -5 48 -5 55 -1 6 -6 12 -12 12 -8 0 -9 -11 -5 -31z"/>
<path d="M2342 2400 c2 -8 18 -24 35 -35 17 -11 41 -36 52 -56 19 -34 21 -58
27 -301 l6 -265 -28 3 c-16 2 -60 7 -99 10 -38 4 -75 10 -81 15 -5 5 -106 9
-222 9 l-212 1 -33 60 c-17 32 -36 59 -40 59 -5 0 9 -32 30 -71 l38 -71 202 1
c216 2 243 -3 243 -43 0 -34 -28 -38 -225 -35 l-170 3 -3 -23 c-2 -14 6 -33
19 -48 18 -19 21 -26 10 -32 -9 -6 -11 -18 -7 -37 4 -16 8 -38 10 -49 2 -11 8
-28 11 -38 6 -14 2 -20 -14 -24 -11 -3 -21 -10 -21 -15 0 -6 -14 -8 -35 -5
-35 6 -45 -3 -22 -20 7 -5 98 -7 220 -4 115 4 217 3 228 -1 19 -7 26 -42 11
-52 -4 -2 -106 -6 -226 -7 l-218 -3 -33 35 -33 36 4 -76 c4 -73 13 -183 18
-226 4 -36 17 -65 30 -65 21 0 56 -45 56 -73 0 -15 -9 -32 -21 -41 l-22 -15
29 -24 c25 -22 29 -32 30 -93 2 -38 3 -70 3 -70 1 -1 20 2 44 7 35 6 46 4 63
-12 11 -11 43 -27 70 -37 54 -19 107 -65 102 -90 -6 -30 -27 -23 -53 17 -37
59 -50 50 -17 -11 36 -66 45 -110 30 -146 l-11 -27 -12 45 c-24 84 -63 157
-100 185 -19 16 -39 25 -42 21 -4 -4 2 -26 14 -49 12 -23 29 -63 37 -88 9 -25
23 -54 32 -65 9 -11 6 -1 -6 23 -11 23 -20 49 -20 58 0 28 20 16 36 -23 9 -20
20 -45 25 -54 13 -26 11 -41 -4 -35 -10 4 -13 -2 -9 -19 2 -13 2 -24 -2 -24
-14 0 -46 36 -46 51 0 27 -58 130 -103 184 -23 27 -41 53 -39 57 1 5 -2 8 -8
8 -5 0 -10 -4 -10 -9 0 -9 -38 -23 -75 -27 -11 -1 -25 4 -31 12 -9 11 -21 13
-53 5 -22 -5 -41 -5 -41 -1 0 43 52 73 112 65 32 -4 38 -3 23 4 -31 15 -78 13
-103 -5 -19 -13 -26 -14 -40 -2 -15 12 -16 11 -3 -5 9 -12 10 -21 3 -30 -6 -6
-13 -29 -17 -49 -7 -38 -18 -47 -30 -27 -4 6 -13 8 -21 5 -11 -4 -13 1 -8 22
9 36 12 38 34 24 24 -15 27 -4 3 13 -16 12 -15 16 11 50 15 20 25 39 21 43 -3
3 -10 0 -15 -8 -13 -21 -40 -21 -40 -1 0 30 107 81 171 81 29 0 50 3 46 6 -10
10 -97 12 -103 2 -3 -4 -9 -6 -14 -3 -5 3 -12 1 -15 -5 -5 -8 -12 -7 -23 2
-12 10 -14 10 -8 1 7 -12 3 -15 -26 -17 -7 -1 -15 -10 -19 -21 -4 -14 -12 -19
-30 -17 -13 2 -21 1 -17 -4 4 -4 4 -12 0 -18 -5 -6 -21 -32 -36 -59 -22 -38
-24 -47 -11 -47 9 0 23 16 31 36 14 34 16 35 29 18 11 -16 10 -24 -6 -56 -22
-43 -24 -44 -45 -23 -17 17 -34 20 -34 6 0 -13 -57 -34 -74 -28 -8 3 -25 -3
-38 -14 l-23 -20 23 11 c17 8 22 8 22 -3 0 -7 -5 -18 -12 -25 -7 -7 -8 -12 -3
-12 28 0 -67 -51 -123 -66 -37 -10 -71 -24 -75 -31 -12 -19 -41 -16 -62 8 -11
11 -30 19 -45 18 -43 -2 -50 0 -77 27 -14 14 -27 23 -29 21 -3 -2 -7 -62 -11
-133 l-6 -129 99 10 c69 8 102 8 107 0 5 -6 7 -3 3 8 -6 19 1 23 48 31 16 3
31 8 35 12 3 4 -1 5 -10 1 -9 -3 -40 6 -69 20 -44 21 -63 24 -110 20 l-58 -5
-5 31 c-8 55 0 65 46 60 23 -3 59 -11 80 -19 32 -12 42 -12 65 -1 27 14 107
32 174 41 24 3 41 0 48 -9 6 -8 27 -19 46 -25 34 -11 44 -32 23 -46 -7 -4 -16
1 -21 10 -5 9 -17 16 -28 16 -10 0 -25 7 -34 15 -8 8 -24 15 -35 15 -19 0 -19
-1 5 -27 l24 -26 -22 -24 -22 -24 45 15 c24 8 67 19 94 23 48 8 52 7 103 -31
28 -21 52 -42 52 -47 0 -14 -98 -11 -175 6 -118 25 -166 15 -72 -15 45 -14 49
-30 7 -30 -16 0 -30 -4 -30 -10 0 -18 166 -11 252 10 136 35 126 11 -12 -28
l-65 -18 162 -23 c135 -19 165 -21 185 -10 22 13 22 13 -17 20 -22 4 -56 5
-75 2 l-35 -5 33 21 c18 12 39 21 47 21 7 0 17 5 20 10 9 15 -22 12 -53 -4
-40 -20 -102 -31 -102 -17 0 6 5 11 10 11 6 0 10 7 10 16 0 11 6 15 19 11 15
-4 18 -1 13 12 -14 37 -66 103 -88 111 -13 5 -47 33 -77 62 -39 39 -70 59
-115 75 -34 12 -69 20 -77 17 -8 -4 -15 -3 -15 0 0 3 25 17 56 31 48 21 62 24
93 15 20 -5 50 -10 67 -10 22 0 49 -13 85 -40 30 -22 59 -40 66 -40 7 0 13 -6
13 -14 0 -7 7 -19 15 -26 17 -14 21 -50 5 -50 -5 0 -14 9 -20 19 -10 20 -108
99 -145 118 -11 6 -47 13 -80 17 l-60 6 30 -25 c17 -14 39 -28 50 -31 11 -4
28 -13 38 -22 13 -11 17 -12 17 -2 0 10 5 9 18 -3 10 -10 26 -17 35 -17 10 0
17 -8 17 -18 0 -30 41 -60 110 -81 74 -24 154 -28 148 -9 -3 7 -15 15 -29 19
-13 4 -17 8 -9 8 10 1 6 8 -12 22 -28 20 -37 52 -19 64 5 3 12 1 16 -5 12 -20
26 -10 15 11 -10 17 -14 18 -27 7 -8 -7 -18 -20 -22 -30 -10 -29 -111 68 -112
108 -1 16 -3 22 -6 12 -5 -21 -17 -23 -35 -5 -7 7 -21 16 -30 20 -21 7 -24 26
-5 28 19 2 20 2 46 -6 18 -5 22 -4 16 6 -6 9 -3 11 9 6 10 -4 22 -7 27 -7 5 0
13 -10 18 -23 5 -12 22 -29 37 -37 16 -8 37 -24 46 -35 10 -11 17 -16 18 -11
0 6 -18 27 -41 48 -22 21 -38 41 -35 46 8 13 67 14 82 1 24 -20 15 -30 -11
-13 -30 19 -34 5 -6 -20 11 -10 25 -15 32 -10 9 5 10 -3 5 -35 l-7 -43 30 7
c28 6 31 3 60 -55 17 -34 31 -64 31 -66 0 -2 -16 -6 -35 -10 -19 -3 -35 -10
-35 -15 0 -12 63 -11 96 1 15 6 29 8 32 5 4 -3 -4 -8 -16 -12 -12 -3 -22 -9
-22 -14 0 -10 47 6 67 23 7 6 10 15 6 22 -3 6 0 6 8 -1 15 -15 33 -17 25 -4
-4 5 0 12 6 14 9 4 9 6 1 6 -8 1 -8 10 -1 36 6 19 14 32 19 30 4 -3 10 3 14
12 3 10 1 19 -4 21 -6 2 -11 8 -11 14 0 6 7 8 15 4 8 -3 15 -1 15 4 0 6 -8 10
-17 10 -16 1 -16 2 1 15 11 8 14 15 7 15 -7 0 -9 5 -6 10 4 6 11 8 16 5 5 -4
9 -1 9 4 0 6 -5 11 -11 11 -6 0 -8 9 -3 23 3 12 3 19 -1 15 -4 -4 -17 2 -29
14 -26 25 -198 108 -224 108 -16 0 -20 10 -25 52 -4 28 -11 56 -16 61 -6 6 -8
35 -4 68 4 40 2 63 -6 73 -22 26 -2 36 67 34 37 -1 117 0 179 1 61 2 116 0
121 -3 6 -4 14 -1 18 5 12 20 -19 28 -96 24 -197 -12 -330 -13 -330 -2 0 5 -3
7 -6 4 -4 -3 -16 -2 -26 4 -16 9 -19 18 -15 44 3 21 0 40 -8 52 -23 29 -18 53
9 53 14 0 28 5 31 10 3 6 -2 10 -12 10 -12 0 -19 8 -20 20 -2 18 4 20 73 20
59 0 74 -3 74 -15 0 -8 5 -15 10 -15 6 0 10 7 10 15 0 12 22 15 133 17 72 1
148 2 168 2 l37 -1 -5 41 c-3 23 -11 52 -17 66 -11 25 -13 25 -136 25 -69 0
-139 -4 -157 -9 -49 -14 -63 4 -62 78 0 88 -3 99 -33 118 -16 10 -28 20 -28
23 0 3 11 -2 25 -11 24 -16 25 -15 25 4 0 29 32 45 64 32 14 -5 26 -14 26 -20
0 -7 21 -10 55 -9 30 1 52 6 49 11 -4 6 22 8 59 7 58 -2 69 1 97 24 31 27 60
33 130 28 28 -1 42 5 65 29 l29 30 -1 132 c0 73 -1 185 -2 248 -2 63 0 122 3
130 3 10 -13 29 -45 55 -28 22 -56 45 -62 50 -43 37 -50 40 -45 25z m-749
-1658 c5 -7 7 -15 4 -19 -10 -9 -37 17 -37 37 0 24 14 35 19 13 2 -10 8 -24
14 -31z m-123 -223 c23 -6 67 -39 133 -100 53 -50 97 -95 97 -100 0 -22 -34
-6 -74 36 -24 24 -65 61 -92 81 -27 20 -52 43 -57 50 -4 7 -29 16 -55 20 -54
8 -64 12 -57 24 6 9 38 6 105 -11z m-310 -179 c0 -24 -159 -25 -183 -1 -8 8
16 11 86 11 57 0 97 -4 97 -10z"/>
<path d="M1275 2335 c-5 -2 -23 -6 -39 -10 -39 -8 -24 -20 22 -17 20 2 60 -4
87 -12 58 -18 85 -20 85 -6 0 5 -30 18 -66 30 -67 20 -71 21 -89 15z"/>
<path d="M135 2298 c5 -11 32 -14 90 -9 6 1 3 6 -5 11 -23 15 -90 13 -85 -2z"/>
<path d="M603 2262 c-7 -5 4 -8 27 -9 22 -1 42 2 45 8 7 11 -55 12 -72 1z"/>
<path d="M792 2248 c-7 -7 -12 -8 -12 -2 0 5 -9 -6 -20 -24 -12 -20 -25 -30
-32 -26 -6 4 -8 3 -5 -2 3 -5 -13 -27 -35 -49 -22 -22 -46 -53 -55 -70 l-14
-30 20 25 c11 14 21 28 21 33 0 4 4 7 10 7 5 0 7 -8 3 -17 -3 -10 7 1 23 24
16 23 49 65 72 93 40 46 53 67 24 38z"/>
<path d="M978 2217 c-14 -10 -13 -12 9 -24 32 -16 35 -14 20 13 -10 17 -15 19
-29 11z"/>
<path d="M774 2136 c-15 -49 -35 -92 -45 -100 -10 -7 -21 -28 -25 -47 -5 -31
-4 -32 8 -14 7 11 13 25 13 30 1 6 7 9 14 7 7 -1 10 2 6 7 -3 6 5 15 17 22 28
15 47 39 47 59 0 9 -3 7 -9 -5 -10 -25 -43 -56 -36 -34 22 65 45 153 42 157
-3 2 -17 -35 -32 -82z"/>
<path d="M910 2184 c0 -8 7 -17 15 -20 8 -4 15 -12 15 -18 0 -20 74 -41 96
-27 16 9 13 10 -19 11 -31 0 -46 7 -73 34 -20 20 -34 28 -34 20z"/>
<path d="M116 2061 c-69 -103 -60 -150 31 -166 46 -8 113 21 113 49 0 38 -24
71 -55 76 -23 4 -31 11 -33 31 -2 15 4 34 13 43 17 17 12 36 -9 36 -7 0 -34
-31 -60 -69z m103 -74 c25 -28 20 -50 -15 -66 -36 -16 -58 -14 -88 10 -32 25
-33 43 -4 63 33 24 81 20 107 -7z"/>
<path d="M819 2057 c-12 -50 -13 -66 -4 -54 12 16 30 115 23 123 -2 1 -11 -29
-19 -69z"/>
<path d="M1766 2074 c-3 -9 -6 -26 -6 -38 0 -12 -4 -26 -10 -32 -6 -6 -4 -25
6 -54 19 -55 39 -79 30 -35 -12 57 -13 74 -5 69 5 -3 9 5 9 18 0 19 -2 20 -11
8 -8 -11 -9 -3 -5 33 6 48 3 59 -8 31z"/>
<path d="M1393 1993 c-29 -2 -53 -7 -53 -11 0 -4 15 -17 33 -29 33 -23 101
-31 111 -15 3 5 -7 7 -23 4 -16 -2 -32 2 -39 11 -10 12 -5 15 37 21 28 4 53
11 56 16 6 10 -13 10 -122 3z"/>
<path d="M715 1927 c-4 -13 -5 -30 -3 -37 2 -10 -7 -14 -32 -15 -30 0 -38 5
-53 35 -18 33 -19 18 -1 -24 5 -13 4 -17 -3 -13 -17 11 -126 -31 -166 -64 -70
-58 -122 -216 -143 -438 -2 -30 -7 -57 -9 -61 -3 -4 1 -13 9 -19 10 -9 15 -8
20 4 4 10 2 14 -5 9 -15 -9 0 58 15 68 8 6 8 8 -1 8 -7 0 -10 11 -8 28 2 15 4
27 5 27 1 0 3 13 5 28 1 16 8 33 16 38 12 8 12 10 0 18 -11 7 -10 11 5 20 18
10 18 10 -1 11 -15 0 -16 3 -7 9 7 4 25 6 40 5 25 -3 24 -3 -4 7 -31 11 -31
12 -13 30 11 11 23 18 28 15 4 -3 8 1 8 9 0 8 -4 12 -8 9 -4 -2 -11 1 -15 7
-5 8 3 10 24 7 25 -4 29 -2 21 9 -6 7 -15 10 -20 7 -5 -3 -9 2 -9 11 0 13 7
15 38 9 46 -8 46 -8 27 -27 -8 -9 -15 -21 -15 -28 0 -6 9 0 21 15 11 14 25 23
31 20 6 -4 8 -3 5 2 -7 12 0 22 32 49 21 17 23 18 18 3 -3 -10 -2 -20 4 -23 5
-4 6 -11 3 -17 -4 -6 -10 -5 -15 3 -6 10 -9 10 -9 2 0 -6 5 -15 11 -19 8 -4 7
-9 -2 -15 -11 -7 -11 -9 -1 -9 7 0 11 -4 7 -9 -3 -5 -1 -12 5 -16 6 -4 8 -11
4 -16 -3 -5 -10 -7 -15 -3 -5 3 -8 0 -7 -6 2 -7 -5 -14 -15 -15 -10 -2 -16 2
-15 10 2 8 -1 14 -7 13 -5 0 -9 -5 -7 -11 2 -7 5 -23 6 -37 1 -14 8 -24 14
-22 9 1 11 -7 7 -25 -5 -24 -5 -25 5 -10 14 22 5 51 -12 41 -8 -5 -9 -2 -5 10
4 10 7 20 7 22 0 3 6 2 13 -3 6 -4 15 -8 20 -9 4 -1 10 -2 15 -3 4 -1 0 -6 -8
-11 -9 -6 -10 -10 -3 -10 16 0 28 21 16 29 -12 9 -9 36 4 34 12 -3 12 15 0 35
-5 6 -5 12 -1 12 3 0 1 6 -5 14 -10 12 -8 17 8 25 14 8 22 8 26 1 5 -8 11 -8
19 -1 7 6 15 9 18 6 2 -3 5 1 5 9 0 8 -6 12 -14 9 -7 -3 -13 -10 -13 -16 0 -8
-3 -8 -11 0 -6 6 -17 9 -24 7 -6 -3 -12 2 -13 11 -1 8 -3 22 -4 30 -1 10 -5
12 -13 5 -7 -6 -16 -5 -25 3 -12 10 -12 9 -2 -5 9 -11 10 -18 2 -23 -17 -10
-30 5 -26 30 3 13 -2 29 -10 36 -13 11 -19 5 -14 -16 1 -5 -2 -7 -5 -3 -4 4
-17 2 -29 -4 -13 -7 -8 2 14 25 35 35 77 51 172 66 31 5 48 4 48 -2 0 -6 8 -3
18 6 10 10 26 17 36 17 9 0 14 5 11 10 -4 6 -11 8 -16 5 -14 -9 -23 25 -10 38
14 14 14 27 1 27 -5 0 -12 -10 -15 -23z m-210 -179 c-3 -12 0 -27 5 -33 13
-15 -4 -40 -21 -29 -8 4 -21 9 -29 9 -56 5 -56 5 -37 16 9 6 15 14 12 19 -5 8
25 23 50 25 6 0 9 7 7 14 -1 7 2 10 7 7 5 -4 8 -16 6 -28z"/>
<path d="M992 1813 c-2 -36 -58 -161 -82 -181 -8 -8 -9 -11 -2 -7 15 8 15 2
-2 -39 -8 -18 -27 -46 -42 -61 l-29 -27 27 17 c60 37 144 223 135 297 l-4 33
-1 -32z"/>
<path d="M935 1797 c-5 -24 -10 -34 -15 -27 -10 16 -34 -25 -26 -43 2 -7 5 -5
5 5 1 9 6 20 12 24 8 4 9 -1 5 -17 -3 -13 3 -5 15 19 11 24 18 51 16 60 -2 10
-7 0 -12 -21z"/>
<path d="M1684 1809 c2 -9 0 -21 -5 -26 -6 -6 -4 -24 5 -49 8 -21 15 -32 16
-24 1 8 8 2 15 -15 14 -30 14 -30 15 -5 0 14 -7 36 -16 48 -8 12 -13 25 -10
30 2 4 -2 18 -11 32 -8 14 -12 18 -9 9z"/>
<path d="M1072 1728 c-7 -31 -18 -58 -25 -61 -8 -2 -8 -5 1 -11 7 -4 14 3 18
19 8 34 26 32 19 -2 -5 -21 -4 -24 4 -13 5 9 6 39 3 70 l-7 55 -13 -57z"/>
<path d="M1540 1739 c-13 -31 -13 -32 44 -85 31 -30 60 -53 65 -51 4 1 19 -11
34 -28 14 -16 27 -25 27 -18 0 6 -5 15 -10 18 -6 4 -8 11 -5 16 4 5 -1 12 -9
15 -9 3 -14 9 -12 13 2 3 -3 15 -11 26 -14 18 -15 18 -9 2 3 -11 3 -23 0 -29
-8 -13 -45 43 -37 56 3 6 2 7 -2 3 -5 -4 -17 16 -26 45 l-17 53 -11 -35 -11
-35 5 33 c6 40 1 41 -15 1z"/>
<path d="M1670 1694 c0 -2 12 -32 26 -65 14 -34 23 -67 20 -74 -3 -8 2 -19 10
-26 14 -11 15 -8 9 22 -3 19 -7 44 -8 57 -1 12 -5 22 -10 22 -5 0 -7 7 -3 15
3 9 0 15 -10 15 -10 0 -14 6 -11 14 3 8 -1 17 -9 20 -8 3 -14 3 -14 0z"/>
<path d="M1760 1687 c0 -9 5 -19 11 -23 6 -3 9 -19 5 -34 -4 -20 -1 -30 10
-34 10 -4 14 -12 10 -23 -4 -10 -4 -14 1 -10 4 5 9 26 10 47 2 30 -3 46 -22
66 -18 20 -25 23 -25 11z"/>
<path d="M994 1665 c-15 -40 -74 -192 -91 -234 -11 -26 -12 -32 -1 -28 7 2 12
10 10 17 -1 7 3 22 11 34 13 22 64 150 69 176 2 8 7 18 11 21 5 4 7 15 5 25
-3 15 -6 13 -14 -11z"/>
<path d="M1510 1667 c0 -14 57 -86 107 -134 26 -26 43 -51 43 -65 0 -19 -2
-20 -10 -8 -8 12 -10 10 -10 -11 0 -14 -3 -28 -6 -32 -6 -6 -17 -95 -16 -131
1 -11 7 -23 14 -27 10 -6 17 10 30 64 30 121 49 153 62 105 10 -40 7 -64 -19
-113 -13 -27 -21 -53 -18 -58 3 -6 1 -7 -4 -4 -16 10 -23 -17 -14 -50 l8 -28
7 30 c4 17 21 61 37 98 33 74 32 112 0 153 l-17 22 -13 -29 c-7 -16 -17 -29
-22 -29 -4 0 0 15 11 33 l19 32 -94 96 c-52 53 -95 92 -95 86z m139 -332 c-17
-62 -19 -65 -13 -21 5 43 23 100 30 94 1 -2 -7 -34 -17 -73z"/>
<path d="M1555 1651 c17 -18 57 -53 90 -78 68 -51 28 -11 -66 66 -43 36 -48
38 -24 12z"/>
<path d="M643 1664 c7 -12 -16 -38 -25 -29 -2 3 -5 -2 -5 -10 0 -9 5 -11 11
-7 13 10 27 9 41 0 6 -4 17 -2 25 3 12 8 11 9 -5 7 -11 -2 -20 2 -20 9 0 7 -6
18 -14 25 -8 7 -11 8 -8 2z"/>
<path d="M1824 1636 c1 -22 5 -32 14 -29 13 6 15 22 6 47 -10 27 -21 18 -20
-18z"/>
<path d="M1085 1620 c-4 -11 -10 -18 -15 -15 -10 6 -62 -104 -56 -119 2 -6 8
0 14 14 8 18 11 20 11 8 1 -10 5 -18 10 -18 5 0 12 -8 14 -17 2 -10 3 -8 1 5
-2 12 -7 33 -10 47 -5 18 -3 25 6 23 8 -2 16 10 20 27 4 17 11 38 15 48 4 9 5
17 2 17 -3 0 -9 -9 -12 -20z"/>
<path d="M1214 1626 c-4 -10 -15 -11 -45 -6 -36 7 -42 5 -56 -17 -9 -13 -13
-26 -10 -29 3 -3 8 4 12 16 4 12 12 19 19 17 7 -3 38 -8 69 -12 60 -8 72 1 43
31 -18 18 -25 18 -32 0z"/>
<path d="M469 1591 c22 -19 22 -51 2 -104 -15 -38 -22 -119 -10 -112 5 4 9 -2
10 -12 0 -10 4 -5 10 11 4 17 6 32 4 35 -3 2 -5 -1 -5 -7 0 -7 -5 -12 -11 -12
-7 0 -9 9 -5 23 4 12 9 34 11 50 2 15 9 35 15 45 9 13 10 7 6 -28 l-6 -45 15
34 c14 30 14 36 0 51 -9 9 -13 25 -9 34 3 9 1 22 -5 30 -6 7 -9 15 -6 17 2 3
-5 6 -16 6 l-21 2 21 -18z"/>
<path d="M2148 1595 c-2 -2 -25 -5 -51 -6 -27 -2 -56 -9 -65 -16 -15 -12 -8
-13 43 -7 82 9 114 18 93 26 -9 4 -18 5 -20 3z"/>
<path d="M2703 1592 c-51 -1 -93 -7 -93 -12 0 -25 201 -21 201 5 1 12 5 11
-108 7z"/>
<path d="M726 1582 c-3 -5 -3 -15 -2 -23 3 -13 5 -20 20 -59 3 -8 3 3 0 25 -4
22 -7 46 -7 53 0 14 -4 15 -11 4z"/>
<path d="M1769 1578 c-4 -35 4 -115 12 -131 6 -10 15 -14 22 -10 7 4 8 8 0 10
-6 2 -9 23 -7 48 1 25 -2 47 -7 51 -5 3 -7 14 -4 25 4 11 2 19 -4 19 -6 0 -12
-6 -12 -12z"/>
<path d="M1262 1568 c-16 -16 -15 -26 3 -45 15 -14 11 -38 -4 -28 -5 2 -8 -17
-8 -44 0 -27 -3 -53 -7 -59 -3 -6 0 -13 6 -15 10 -4 10 -6 0 -6 -7 -1 -10 -5
-7 -11 3 -5 1 -19 -5 -30 -9 -16 -8 -22 5 -26 17 -7 21 -54 4 -54 -5 0 -8 4
-5 8 2 4 1 14 -5 22 -6 11 -9 9 -9 -11 0 -23 25 -48 36 -36 5 4 5 147 0 190
-2 21 0 35 5 32 5 -4 6 0 3 8 -3 8 -1 18 5 22 12 7 13 50 3 78 -6 14 -10 15
-20 5z"/>
<path d="M85 1560 c-3 -5 -2 -33 2 -62 4 -29 6 -60 4 -68 -2 -8 0 -12 5 -8 4
4 7 20 8 35 1 32 36 47 37 16 0 -15 2 -15 11 4 6 12 18 24 27 26 11 3 9 5 -6
6 -11 0 -33 15 -46 31 -28 33 -33 35 -42 20z"/>
<path d="M430 1535 c23 -15 23 -16 3 -12 -16 4 -20 1 -16 -11 5 -12 1 -14 -15
-10 -12 4 -20 2 -16 -3 3 -5 11 -9 17 -9 7 0 18 -9 25 -21 7 -12 16 -18 19
-15 3 3 -2 12 -11 21 -16 16 -14 35 4 35 5 0 7 -7 4 -15 -4 -8 -1 -15 7 -15 7
0 10 3 6 6 -3 3 -2 16 3 28 5 15 4 23 -3 23 -7 0 -21 4 -32 7 -14 5 -13 3 5
-9z"/>
<path d="M665 1489 c-10 -29 8 -44 26 -23 12 15 12 17 0 9 -11 -6 -13 -3 -9
13 8 28 -9 29 -17 1z"/>
<path d="M546 1450 c-14 -69 -31 -120 -38 -120 -10 0 -10 -5 7 60 8 30 15 61
15 69 0 24 -14 2 -17 -27 -2 -15 -9 -42 -14 -61 -9 -27 -8 -36 5 -49 13 -13
16 -13 20 -1 29 98 37 131 34 146 -3 11 -7 5 -12 -17z"/>
<path d="M1095 1441 c2 -11 12 -39 23 -63 l20 -43 1 40 c0 27 -2 35 -8 26 -7
-10 -11 -5 -16 18 -7 33 -26 54 -20 22z"/>
<path d="M679 1448 c-14 -37 -13 -343 1 -423 8 -42 10 -110 7 -172 l-5 -102
58 6 c32 3 88 2 124 -2 58 -6 68 -10 76 -30 5 -13 15 -27 23 -32 21 -12 27
-51 11 -67 -8 -8 -14 -25 -14 -38 0 -22 7 -25 128 -46 132 -23 181 -27 183
-14 4 41 3 69 -3 65 -5 -2 -8 -17 -8 -34 0 -16 -4 -29 -10 -29 -5 0 -8 6 -5
13 7 21 15 131 10 125 -3 -3 -8 -27 -12 -54 -3 -27 -10 -58 -14 -69 -11 -23
-2 97 11 160 12 57 23 171 17 165 -3 -3 -9 -28 -12 -55 -4 -28 -8 -60 -10 -72
-2 -12 -9 -57 -15 -100 -7 -43 -13 -83 -14 -90 -5 -29 -16 -24 -17 8 l-1 34
-8 -30 c-4 -16 -8 -22 -9 -12 0 9 -6 17 -12 17 -5 0 -7 -4 -4 -10 3 -5 1 -10
-4 -10 -6 0 -11 17 -11 38 l-1 37 -13 -30 -14 -30 -11 30 c-6 17 -14 36 -17
44 -2 8 -7 12 -9 9 -3 -3 0 -19 6 -36 18 -51 6 -61 -29 -25 -19 19 -32 42 -32
57 0 31 -30 97 -42 90 -4 -3 -8 1 -8 9 0 19 -66 50 -91 44 -10 -3 -19 -2 -19
3 0 4 -12 5 -27 3 -22 -4 -25 -2 -13 6 12 9 11 11 -7 11 -13 0 -23 6 -23 13 0
6 -8 0 -18 -14 -10 -15 -23 -24 -32 -21 -20 7 -30 24 -22 36 9 15 10 46 2 46
-8 0 -4 89 4 97 3 3 1 14 -5 24 -6 13 -6 19 1 19 5 0 10 8 10 18 0 14 -2 15
-10 2 -6 -9 -10 -10 -10 -3 0 6 5 15 10 18 15 9 12 27 -2 19 -7 -4 -4 3 7 17
15 17 15 20 3 10 -16 -12 -17 -4 -17 136 1 152 -6 223 -22 223 -5 0 -9 -1 -10
-2z"/>
<path d="M1015 1430 c-12 -20 37 -261 51 -248 2 2 -1 20 -6 39 -6 19 -13 52
-16 74 -2 22 -9 55 -13 72 -5 18 -7 42 -4 53 6 21 -1 27 -12 10z"/>
<path d="M756 1420 c6 -8 12 -35 13 -59 3 -44 16 -91 25 -91 3 0 3 7 0 15 -4
10 0 15 12 16 11 0 14 3 7 6 -7 2 -13 18 -13 34 0 18 -4 28 -10 24 -6 -3 -10
4 -10 18 0 14 -8 31 -17 38 -16 12 -17 12 -7 -1z"/>
<path d="M2978 1405 c-3 -3 -32 -6 -64 -6 -37 -1 -73 -8 -96 -20 -21 -11 -72
-24 -115 -30 -43 -6 -80 -12 -83 -14 -12 -7 -50 16 -50 30 0 9 -9 15 -21 15
-15 0 -19 -4 -15 -16 8 -22 -11 -44 -38 -44 -11 0 -28 -5 -36 -11 -21 -15 84
-5 290 27 246 38 244 38 248 57 3 16 -9 23 -20 12z"/>
<path d="M956 1384 c-3 -9 -4 -20 0 -25 3 -5 7 -19 9 -30 3 -12 11 -29 19 -38
16 -18 37 -141 24 -141 -5 0 -8 -6 -7 -12 1 -7 1 -21 0 -32 -1 -15 -4 -16 -16
-6 -10 9 -15 9 -15 1 0 -6 5 -11 11 -11 5 0 7 -4 4 -10 -3 -5 -2 -10 3 -10 5
0 17 18 27 40 16 35 16 47 5 122 -7 46 -16 92 -21 103 -8 20 -8 20 -9 0 -1
-16 -4 -14 -15 10 -7 16 -11 35 -8 42 3 7 3 13 0 13 -3 0 -8 -7 -11 -16z"/>
<path d="M378 1366 c12 -15 19 -33 15 -39 -4 -6 0 -8 9 -5 13 6 15 -9 14 -110
-1 -66 1 -102 5 -82 13 67 17 139 8 144 -5 2 -4 3 3 2 10 -2 13 -28 12 -97 0
-66 2 -85 8 -64 4 17 9 51 9 78 1 26 5 49 9 52 3 2 6 -4 6 -13 0 -9 2 -37 3
-62 l4 -45 10 38 c18 63 24 41 12 -42 -6 -44 -8 -78 -5 -76 4 3 11 33 14 67 6
48 10 59 17 45 6 -9 7 -22 4 -27 -10 -16 7 -11 19 5 8 12 10 3 7 -37 -1 -29 0
-50 3 -47 4 3 7 23 8 43 1 20 5 36 10 36 5 0 6 -4 3 -10 -3 -5 0 -10 7 -10 9
0 9 -3 -2 -10 -14 -9 -7 -14 13 -11 5 1 6 -2 3 -7 -2 -4 -1 -14 3 -21 6 -9 10
-7 14 8 3 12 1 24 -4 27 -5 3 -9 12 -9 21 0 9 -7 21 -15 27 -9 6 -17 21 -18
33 -1 24 -17 21 -17 -3 0 -8 -4 -13 -8 -10 -5 3 -7 20 -5 38 1 18 0 27 -3 21
-8 -18 -24 -16 -24 2 0 8 -6 12 -14 9 -9 -3 -13 1 -13 13 1 10 -4 17 -12 15
-9 -2 -11 3 -7 13 3 9 2 13 -4 10 -6 -3 -10 -1 -10 4 0 6 -8 11 -17 12 -11 0
-13 3 -5 6 6 2 12 9 12 14 0 6 -3 8 -7 6 -10 -5 -43 29 -37 37 2 3 1 4 -3 1
-3 -3 -16 3 -27 12 -18 16 -18 15 2 -11z"/>
<path d="M1569 1358 c-1 -7 0 -17 1 -23 1 -5 3 -21 5 -35 2 -14 5 -32 6 -40 5
-31 -1 -61 -11 -55 -6 3 -10 -5 -10 -18 0 -33 31 -127 42 -127 4 0 8 -5 8 -12
0 -6 -11 -1 -25 12 -13 12 -22 26 -20 30 3 5 -2 10 -10 14 -10 4 -15 20 -16
53 0 50 -15 139 -19 113 -1 -11 -4 -10 -11 5 -8 17 -9 16 -4 -6 3 -18 0 -29
-10 -33 -12 -4 -10 -16 12 -68 37 -86 65 -130 106 -164 35 -29 35 -29 16 -52
-16 -20 -21 -22 -36 -10 -10 7 -19 29 -21 48 -1 19 -6 38 -10 42 -19 19 3 -81
24 -109 14 -19 20 -34 14 -38 -15 -9 -12 -22 6 -29 8 -3 13 -2 10 3 -3 5 1 22
9 37 l15 29 1 -25 c1 -22 2 -21 12 8 8 26 7 36 -3 42 -10 6 -9 9 4 11 15 4 15
7 -6 29 -12 13 -21 33 -20 43 2 10 -3 26 -11 35 -16 19 -37 76 -37 102 0 9 9
27 20 40 l20 23 1 -24 c0 -13 3 -18 6 -11 3 7 -2 28 -11 46 -9 19 -16 51 -17
73 0 21 -3 32 -6 25 -2 -6 -9 -10 -13 -7 -5 3 -7 12 -3 20 3 8 2 15 -1 15 -3
0 -7 -6 -7 -12z"/>
<path d="M1401 1335 c-1 -11 5 -29 13 -40 7 -11 21 -48 30 -82 15 -61 51 -143
62 -143 3 0 2 5 -2 12 -4 7 -3 8 4 4 7 -4 12 -15 12 -25 0 -9 6 -26 14 -37 13
-17 14 -16 7 18 -5 20 -18 49 -30 64 -11 15 -21 33 -21 41 0 8 -17 49 -37 91
-20 42 -40 86 -44 97 -7 20 -7 20 -8 0z"/>
<path d="M2935 1338 c-33 -5 -143 -22 -245 -38 -102 -17 -216 -35 -255 -41
-95 -15 -109 -26 -134 -105 -20 -65 -20 -98 0 -61 6 9 18 17 27 18 10 0 12 3
5 6 -7 2 -13 9 -13 15 0 6 7 8 15 4 9 -3 15 0 15 9 0 8 -5 15 -12 15 -6 0 -9
2 -6 5 10 10 108 22 108 14 0 -5 -8 -9 -17 -10 -12 -1 -10 -3 6 -8 39 -11 36
-29 -6 -37 -31 -6 -34 -8 -18 -15 13 -5 15 -8 5 -8 -11 -1 -12 -3 -3 -9 18
-12 4 -55 -16 -49 -11 3 -17 -2 -18 -14 -1 -11 5 -19 13 -19 8 0 14 -5 14 -11
0 -5 5 -7 10 -4 6 3 10 1 10 -4 0 -13 -2 -13 -34 -1 -17 6 -26 6 -26 0 0 -6 7
-10 16 -10 8 0 12 -5 9 -11 -4 -6 -13 -8 -21 -5 -8 3 -14 3 -14 0 0 -2 10 -9
23 -14 22 -9 22 -9 -3 -10 l-25 -2 25 -8 25 -7 -25 -11 c-22 -9 -23 -11 -5
-12 17 -2 16 -3 -5 -10 -22 -7 -23 -8 -4 -9 12 -1 33 10 49 25 25 23 26 26 11
43 -16 17 -16 19 -1 25 24 9 37 7 30 -4 -3 -5 -1 -10 4 -10 6 0 11 4 11 9 0 5
19 12 43 16 23 4 53 9 67 12 46 7 56 13 57 33 1 13 -2 18 -9 14 -11 -7 -24
-10 -90 -20 -21 -4 -43 -12 -49 -20 -17 -21 -36 -17 -35 9 1 14 -4 21 -13 19
-9 -2 -11 3 -7 13 3 9 6 19 6 21 0 2 6 4 13 4 7 0 19 9 27 20 8 11 23 20 34
20 17 0 16 -2 -6 -22 -14 -13 -34 -28 -44 -35 -17 -11 -15 -12 16 -14 43 -2
55 0 105 13 38 10 39 11 17 21 -15 7 -26 7 -30 1 -11 -14 -42 -13 -42 2 0 9
11 14 30 14 17 0 38 4 48 9 9 6 38 13 64 16 26 3 50 10 53 16 8 12 2 12 -98
-10 -48 -10 -87 -15 -87 -10 0 5 -10 9 -23 9 -16 0 -27 10 -38 34 l-16 34 41
5 c23 2 55 10 71 17 17 7 34 12 38 11 5 -1 6 3 3 8 -4 5 -27 3 -59 -5 -28 -8
-83 -16 -120 -18 -37 -2 -75 -10 -84 -18 -15 -12 -15 -11 -2 10 8 12 25 25 39
28 14 3 33 8 43 11 10 2 17 -1 17 -9 0 -10 2 -10 8 0 5 7 19 11 33 8 13 -2 32
1 42 6 9 5 68 18 130 29 61 10 148 26 192 34 44 8 97 17 118 20 20 3 37 10 37
15 0 6 -1 9 -2 9 -2 -1 -30 -6 -63 -11z"/>
<path d="M1450 1313 c14 -47 22 -63 31 -63 5 0 2 11 -6 24 -9 13 -15 28 -14
32 3 19 -1 34 -10 34 -6 0 -6 -11 -1 -27z"/>
<path d="M2975 1300 c-11 -4 -62 -13 -113 -20 -51 -7 -95 -16 -97 -20 -2 -3
44 2 103 11 59 9 110 15 114 13 7 -5 23 15 17 20 -2 2 -13 0 -24 -4z"/>
<path d="M300 1277 c0 -5 5 -18 11 -30 9 -18 9 -20 -2 -10 -10 10 -15 6 -26
-25 -27 -77 -57 -312 -41 -327 3 -3 17 0 32 6 20 10 26 19 25 43 0 26 -2 28
-8 11 -5 -11 -6 -24 -3 -29 3 -5 0 -6 -6 -2 -7 4 -10 17 -7 29 3 12 7 48 9 80
3 32 12 69 20 83 20 29 31 32 16 4 -10 -19 -6 -25 15 -20 5 1 6 -2 2 -7 -5 -4
-14 -8 -20 -8 -7 0 -13 -9 -14 -20 -2 -16 -1 -17 5 -4 8 18 47 18 63 2 7 -7 8
-17 3 -25 -11 -16 -12 -118 -1 -118 4 0 7 16 7 35 0 19 5 35 11 35 7 0 10 -13
7 -35 -3 -24 -1 -31 7 -25 7 5 10 24 7 41 -4 24 -8 30 -23 26 -14 -4 -19 0
-19 13 0 11 5 22 10 25 6 3 10 -1 10 -10 0 -9 5 -13 10 -10 6 4 8 10 5 15 -3
5 -1 11 4 14 5 4 14 -22 19 -56 5 -36 10 -50 11 -33 1 17 6 37 12 45 7 11 9 6
7 -22 -3 -45 8 -60 16 -21 6 28 5 37 -9 82 l-8 23 -14 -28 c-7 -16 -11 -21 -9
-12 3 10 -1 30 -9 45 -11 20 -15 23 -15 10 0 -26 -20 -10 -21 16 0 21 -1 21
-9 2 -7 -19 -8 -18 -14 5 -7 27 7 108 26 144 8 17 8 19 -2 9 -7 -7 -21 -43
-31 -80 -15 -58 -17 -63 -19 -33 -1 19 -4 29 -7 22 -4 -10 -9 -9 -19 5 -13 17
-14 17 -8 1 3 -10 2 -18 -4 -18 -12 0 -10 43 3 52 5 4 13 2 17 -5 12 -18 1 59
-11 80 -6 10 -11 14 -11 10z"/>
<path d="M1404 1183 c3 -100 34 -232 63 -263 16 -18 18 2 2 31 -22 42 -39 176
-20 165 6 -4 1 12 -11 35 -13 25 -21 59 -21 81 1 20 -2 40 -7 43 -5 3 -8 -37
-6 -92z"/>
<path d="M130 1262 c0 -4 8 -12 19 -19 22 -14 133 -15 125 -1 -3 5 -28 7 -56
5 -36 -4 -51 -1 -55 9 -5 15 -33 20 -33 6z"/>
<path d="M794 1226 c7 -48 21 -65 24 -30 1 14 -5 35 -14 47 -16 21 -16 21 -10
-17z"/>
<path d="M1227 1217 c-4 -10 -7 -31 -6 -45 l0 -27 10 25 c5 13 8 33 7 45 -3
19 -4 19 -11 2z"/>
<path d="M390 1180 c-6 -23 -9 -47 -7 -53 2 -7 9 10 15 38 13 61 7 72 -8 15z"/>
<path d="M835 1192 c-5 -4 -12 -16 -13 -27 -2 -11 -9 -23 -15 -27 -8 -5 -8 -8
-1 -8 5 0 15 5 22 10 6 6 10 7 7 4 -2 -4 2 -16 10 -27 10 -14 11 -26 5 -37 -7
-13 -5 -22 6 -31 8 -7 14 -8 13 -3 -4 24 3 26 25 5 23 -21 22 -19 -7 41 -16
35 -33 73 -36 85 -3 12 -10 19 -16 15z"/>
<path d="M2535 1184 l-60 -14 65 5 c35 3 69 10 74 15 13 13 -1 12 -79 -6z"/>
<path d="M1642 1172 c3 -12 2 -22 -2 -24 -13 -5 -22 -48 -11 -48 6 0 11 7 11
15 0 8 5 15 10 15 14 0 13 47 -2 56 -7 5 -9 0 -6 -14z"/>
<path d="M1084 1137 c-21 -31 -40 -87 -29 -87 13 0 56 81 53 99 -3 19 -5 17
-24 -12z"/>
<path d="M2530 1159 c-45 -5 -48 -6 -20 -9 24 -1 29 -4 15 -8 -20 -5 -20 -5
-1 -12 25 -8 68 -1 60 11 -3 5 0 9 5 9 6 0 11 -6 11 -12 0 -9 3 -9 8 -3 4 6
21 12 39 13 18 1 42 6 55 12 26 10 -76 10 -172 -1z"/>
<path d="M190 1143 c0 -4 -43 -28 -94 -53 -74 -35 -95 -50 -95 -66 -1 -18 12
-14 120 40 67 34 121 66 121 71 -2 12 -52 20 -52 8z"/>
<path d="M1308 1131 c-8 -27 11 -131 23 -131 5 0 6 6 3 13 -3 8 -8 43 -12 78
-6 47 -9 58 -14 40z"/>
<path d="M1097 1084 c-16 -19 -37 -61 -47 -95 -11 -34 -31 -79 -45 -101 -15
-22 -24 -42 -22 -44 11 -11 68 84 88 145 12 36 31 79 42 94 27 40 17 40 -16 1z"/>
<path d="M1350 1114 c0 -3 5 -25 11 -50 9 -33 8 -48 0 -58 -9 -11 -8 -17 2
-28 7 -7 12 -20 9 -28 -3 -8 -1 -12 3 -8 4 4 18 -5 31 -20 l25 -27 -20 39
c-11 22 -23 66 -27 98 -4 32 -11 61 -15 64 -5 3 -7 10 -4 15 4 5 1 9 -4 9 -6
0 -11 -3 -11 -6z"/>
<path d="M1663 1098 c18 -42 33 -68 40 -68 4 0 -2 18 -13 40 -18 36 -40 58
-27 28z"/>
<path d="M1130 1057 c-7 -26 -17 -50 -21 -53 -5 -3 -9 -10 -9 -16 0 -6 14 8
31 32 24 33 29 47 22 63 -8 18 -11 14 -23 -26z"/>
<path d="M1465 1080 c4 -14 18 -49 31 -79 13 -29 24 -59 24 -67 0 -7 4 -15 9
-18 11 -7 6 62 -8 94 -5 14 -10 18 -11 10 0 -8 -7 2 -15 24 -16 45 -42 77 -30
36z"/>
<path d="M1263 1073 c3 -10 11 -42 17 -71 7 -28 16 -54 20 -57 5 -3 2 19 -6
47 -7 29 -14 63 -14 76 0 12 -5 22 -11 22 -6 0 -8 -8 -6 -17z"/>
<path d="M928 1045 c6 -35 16 -38 40 -12 l22 23 -23 1 c-14 2 -17 -1 -9 -6 10
-6 10 -10 -3 -21 -13 -10 -15 -9 -15 8 0 12 -4 23 -9 26 -4 3 -6 -6 -3 -19z"/>
<path d="M125 1024 c-43 -18 -86 -41 -95 -50 -8 -9 -10 -14 -5 -12 6 3 49 24
98 47 48 23 87 43 87 46 0 6 8 9 -85 -31z"/>
<path d="M635 1048 c-12 -37 -14 -120 -3 -143 13 -29 28 -34 23 -7 -2 9 -4 23
-4 30 -1 7 -7 10 -13 7 -7 -4 -5 0 5 8 10 8 14 18 9 21 -5 3 -8 26 -8 51 1 46
-1 55 -9 33z"/>
<path d="M1011 1022 c-12 -23 -36 -56 -54 -74 -39 -39 -71 -87 -63 -96 3 -3 6
-1 6 5 0 6 27 41 61 78 56 62 86 111 75 122 -3 3 -14 -13 -25 -35z"/>
<path d="M967 1012 c-38 -38 -45 -52 -27 -52 5 0 23 20 40 45 17 25 29 45 28
45 -2 0 -21 -17 -41 -38z"/>
<path d="M496 980 c4 -42 3 -52 -6 -40 -9 12 -11 12 -8 1 3 -8 10 -17 16 -19
14 -4 15 63 1 93 -6 14 -7 3 -3 -35z"/>
<path d="M1131 983 c-6 -20 -8 -39 -6 -42 3 -2 0 -10 -6 -18 -6 -7 -9 -13 -5
-13 3 0 1 -12 -4 -27 -10 -26 -9 -27 5 -8 15 19 36 82 40 118 3 34 -14 27 -24
-10z"/>
<path d="M1030 991 c0 -4 -16 -25 -35 -45 -19 -21 -35 -42 -35 -47 0 -6 18 11
40 36 36 42 49 65 35 65 -3 0 -5 -4 -5 -9z"/>
<path d="M1181 969 c0 -15 -3 -42 -6 -60 l-5 -34 11 34 c5 18 8 45 6 60 l-4
26 -2 -26z"/>
<path d="M1721 968 c0 -10 -8 -18 -16 -18 -19 0 -36 -32 -26 -49 6 -9 10 -6
14 10 4 13 9 20 13 17 3 -4 18 -2 32 3 18 7 34 6 54 -2 16 -6 31 -9 35 -6 8 9
-17 38 -28 31 -5 -3 -9 0 -9 6 0 6 -5 8 -11 4 -6 -3 -15 0 -20 7 -7 11 -9 10
-9 -3 0 -10 -4 -18 -9 -18 -5 0 -12 8 -14 18 -4 16 -5 16 -6 0z"/>
<path d="M2552 955 c3 -17 -2 -20 -30 -17 -21 1 -49 -7 -77 -23 -55 -33 -71
-51 -44 -51 10 0 19 3 19 7 0 7 105 39 143 43 15 1 30 6 34 9 3 4 17 7 30 7
13 0 23 5 23 11 0 8 -13 9 -39 5 -43 -7 -62 7 -34 23 16 9 15 10 -5 8 -17 -1
-22 -7 -20 -22z"/>
<path d="M341 948 c-2 -37 -19 -45 -24 -11 -4 26 -4 26 -6 -4 -1 -34 4 -39 27
-24 8 5 12 20 9 37 l-4 29 -2 -27z"/>
<path d="M525 947 c-5 -11 -2 -22 8 -30 8 -7 17 -21 20 -32 4 -15 5 -14 6 7 1
21 5 25 21 21 12 -3 20 0 20 7 0 7 -7 10 -15 6 -10 -3 -15 1 -16 12 0 14 -2
14 -9 -3 -8 -19 -8 -19 -18 5 -9 22 -11 23 -17 7z"/>
<path d="M1548 901 c3 -39 2 -52 -7 -47 -7 5 -11 -2 -11 -21 0 -15 -3 -39 -6
-53 -2 -14 7 0 22 30 29 58 29 67 9 115 -11 28 -12 26 -7 -24z"/>
<path d="M2550 896 c-113 -27 -134 -34 -102 -35 12 -1 22 -6 22 -11 0 -7 7 -7
21 0 11 6 28 9 37 7 9 -2 -9 -11 -41 -21 -51 -15 -55 -19 -42 -32 20 -20 19
-23 -7 -34 -13 -5 -16 -9 -8 -9 29 -1 43 15 31 36 -10 19 -6 21 50 32 46 10
59 16 55 27 -3 9 3 18 17 23 12 5 40 16 62 25 56 21 17 18 -95 -8z"/>
<path d="M357 893 c-4 -3 -7 -15 -7 -25 0 -23 -16 -24 -24 -1 -4 10 -10 13
-14 7 -4 -5 -16 -10 -26 -9 -11 0 -21 -6 -23 -12 -3 -7 3 -13 13 -13 14 0 15
-3 6 -12 -10 -10 -15 -10 -22 2 -8 12 -10 11 -10 -6 0 -26 -24 -48 -42 -38
-10 5 -10 4 -1 -6 10 -11 17 -10 39 5 22 14 28 15 35 4 13 -21 11 -37 -8 -48
-10 -6 -13 -11 -6 -11 19 0 33 -34 21 -51 -8 -11 -9 -11 -4 3 3 11 1 15 -8 12
-12 -5 -59 -104 -52 -111 2 -3 12 14 22 36 10 23 22 41 27 41 5 0 7 -7 3 -15
-3 -8 -1 -15 4 -15 6 0 10 9 10 19 0 11 4 23 10 26 6 3 10 21 11 38 0 29 1 30
9 10 13 -32 21 -29 14 5 -5 23 -1 30 19 39 27 12 38 6 50 -27 5 -13 6 -13 6 1
1 8 -4 20 -10 26 -8 8 -7 13 1 18 7 4 16 1 21 -6 6 -10 9 -10 9 -2 0 22 105
10 140 -15 34 -25 44 -28 37 -8 -3 7 0 20 6 27 10 11 9 11 -4 1 -13 -10 -19
-9 -29 3 -7 8 -16 12 -21 9 -5 -3 -9 2 -9 12 0 13 -3 14 -15 4 -12 -10 -15
-10 -15 0 0 7 -7 10 -15 6 -9 -3 -18 1 -22 9 -5 13 -7 13 -19 -2 -7 -10 -14
-15 -14 -11 0 4 -11 3 -24 -2 -25 -9 -25 -9 -20 43 4 38 3 48 -5 37 -6 -8 -11
-32 -11 -52 0 -34 -4 -39 -42 -56 -43 -19 -43 -19 -55 2 -11 19 -9 22 19 34
26 11 32 11 39 0 7 -10 11 -10 21 1 10 10 10 12 1 7 -7 -4 -13 -3 -13 3 0 5 6
11 13 14 9 3 9 7 -1 20 -8 9 -11 21 -7 27 7 11 2 14 -8 3z"/>
<path d="M430 876 c0 -13 -3 -32 -6 -40 -4 -11 -2 -15 8 -11 16 6 21 75 6 75
-4 0 -8 -11 -8 -24z"/>
<path d="M1225 888 c-6 -23 -17 -143 -11 -138 6 7 24 150 19 150 -2 0 -5 -6
-8 -12z"/>
<path d="M189 855 c-45 -24 -64 -110 -34 -153 14 -19 14 -25 1 -49 -13 -26
-20 -71 -17 -114 2 -27 48 -69 76 -69 14 0 25 -5 25 -10 0 -6 12 -22 26 -35
l27 -25 -94 0 c-139 0 -201 -9 -197 -29 3 -14 23 -16 133 -17 122 -1 170 7
187 30 3 5 1 14 -5 21 -7 6 -23 28 -37 48 -14 20 -28 37 -31 37 -11 0 -79 62
-79 72 0 5 5 6 11 2 8 -5 8 -1 0 13 -6 11 -8 23 -5 25 2 3 7 16 10 29 3 13 6
29 7 34 2 6 6 16 10 23 5 7 2 14 -7 18 -9 3 -13 10 -10 15 9 16 13 50 5 44 -5
-3 -8 6 -7 19 0 13 4 22 7 20 4 -2 10 3 13 12 3 9 13 14 21 11 10 -4 12 -1 8
10 -4 10 -2 14 4 10 6 -4 13 0 17 8 7 20 -29 19 -65 0z"/>
<path d="M1111 831 c-12 -12 -21 -26 -21 -32 0 -5 -4 -7 -10 -4 -5 3 -12 -6
-16 -20 -11 -42 1 -38 27 9 13 25 26 43 30 40 9 -5 23 15 16 22 -3 3 -15 -4
-26 -15z"/>
<path d="M2380 832 c0 -4 4 -12 10 -18 11 -11 2 -54 -11 -54 -5 0 -9 -7 -9
-16 0 -12 -6 -15 -23 -11 -12 4 -29 2 -37 -3 -12 -8 -10 -10 8 -10 12 0 22 -4
22 -9 0 -17 39 1 45 20 4 10 10 19 15 19 9 0 23 40 20 55 -1 6 -3 16 -3 23 0
13 -37 17 -37 4z"/>
<path d="M2550 823 c-14 -2 -31 -12 -37 -21 -8 -9 -13 -11 -13 -4 0 7 -8 12
-17 11 -11 0 -13 -3 -5 -6 6 -2 9 -9 6 -15 -4 -6 4 -8 22 -4 16 4 39 8 51 10
12 3 34 11 50 20 l28 15 -30 -1 c-16 0 -41 -3 -55 -5z"/>
<path d="M1460 811 c0 -5 4 -21 9 -34 7 -18 6 -30 -4 -43 -23 -30 -17 -39 6
-10 15 19 19 34 14 56 -6 28 -25 52 -25 31z"/>
<path d="M1690 804 c0 -6 18 -11 44 -10 27 1 41 5 36 10 -13 13 -80 13 -80 0z"/>
<path d="M1263 748 c-9 -60 -8 -77 1 -67 6 6 18 129 13 129 -3 0 -9 -28 -14
-62z"/>
<path d="M2624 801 c-5 -4 -31 -14 -59 -20 -114 -27 -155 -42 -155 -57 0 -8
-8 -17 -17 -21 -10 -3 -30 -19 -44 -34 -19 -19 -33 -26 -48 -22 -13 3 -21 1
-21 -6 0 -7 4 -10 9 -6 5 3 12 1 16 -5 3 -5 -2 -10 -12 -11 -13 0 -14 -2 -4
-6 8 -3 20 2 28 12 7 10 15 16 18 13 4 -3 29 3 58 13 28 10 53 19 55 19 10 0
-6 -25 -16 -26 -7 -1 -17 -2 -23 -3 -5 0 -8 -5 -5 -10 4 -5 -6 -14 -21 -20
-26 -10 -26 -11 -3 -6 14 2 31 5 38 5 7 0 10 5 7 10 -3 6 -1 10 4 10 6 0 11
-7 11 -16 0 -14 1 -14 16 0 17 17 59 22 49 6 -3 -5 -15 -10 -25 -10 -10 0 -22
-5 -25 -10 -3 -6 -18 -8 -33 -5 -24 5 -24 4 -7 -5 18 -9 17 -10 -7 -7 -16 3
-28 0 -28 -4 0 -26 133 13 162 46 12 14 36 28 54 31 18 3 38 12 44 18 6 9 -8
7 -43 -5 -28 -9 -65 -20 -82 -23 -16 -3 -41 -8 -55 -12 -24 -7 -25 -7 -7 13
10 11 31 20 48 21 55 1 42 10 -17 11 -96 1 -90 35 11 60 27 7 54 16 60 21 5 4
25 11 42 15 18 3 36 11 39 16 8 14 0 21 -12 10z"/>
<path d="M1176 744 c-7 -53 -8 -99 -2 -93 6 6 19 139 13 139 -2 0 -7 -21 -11
-46z"/>
<path d="M432 743 c2 -12 -7 -23 -27 -33 -52 -25 -71 -43 -104 -94 -36 -57
-42 -87 -11 -56 11 11 20 25 20 30 0 6 20 -1 45 -15 24 -15 47 -26 50 -26 28
4 48 -3 73 -24 22 -18 33 -22 38 -14 9 15 -30 48 -60 51 -11 0 -30 2 -41 2
-23 2 -67 24 -77 40 -21 31 10 36 37 6 11 -12 25 -18 36 -15 15 5 58 -10 122
-43 4 -2 7 1 7 7 0 6 -21 21 -47 35 -61 30 -98 42 -89 28 3 -6 0 -9 -8 -8 -15
2 -52 36 -39 36 5 0 14 -5 21 -12 7 -7 12 -8 12 -2 0 6 -5 15 -12 22 -18 18
12 16 38 -3 44 -30 118 -53 136 -42 13 8 29 8 63 -1 52 -14 92 -14 120 -2 15
7 6 9 -32 8 -29 -1 -56 1 -59 5 -4 4 -14 7 -23 7 -9 0 -29 7 -45 15 -15 8 -33
15 -39 15 -26 0 -97 34 -97 46 0 8 5 14 10 14 6 0 10 -4 10 -9 0 -5 9 -11 20
-14 11 -3 18 -1 15 3 -3 5 -1 11 4 15 6 3 8 12 4 21 -5 13 -7 13 -17 -1 -12
-17 -46 -11 -46 7 0 5 5 6 12 2 7 -4 8 -3 4 4 -11 18 -28 14 -24 -5z m68 -90
c25 -12 38 -22 29 -22 -24 -1 -129 47 -129 59 0 10 18 3 100 -37z"/>
<path d="M1196 677 c-4 -38 -5 -71 -3 -74 7 -7 20 100 15 123 -2 11 -8 -12
-12 -49z"/>
<path d="M2306 693 c16 -11 15 -13 -7 -22 -23 -9 -23 -10 -3 -10 19 -1 34 16
34 38 0 4 -9 7 -21 7 -19 0 -19 -1 -3 -13z"/>
<path d="M560 685 c0 -16 103 -31 183 -27 57 4 14 22 -51 22 -37 0 -82 4 -100
9 -25 8 -32 7 -32 -4z"/>
<path d="M1094 650 c7 -19 16 -42 19 -50 3 -8 5 2 4 22 0 21 -3 35 -6 33 -2
-3 -10 3 -17 13 -12 14 -11 11 0 -18z"/>
<path d="M2337 587 c3 -23 0 -37 -11 -46 -9 -8 -16 -28 -16 -47 0 -19 -4 -34
-10 -34 -5 0 -10 -5 -10 -11 0 -5 10 -3 22 5 12 9 29 16 36 16 8 0 28 6 45 14
18 8 68 24 112 36 91 25 105 33 55 30 -59 -3 -64 -2 -50 15 10 12 10 15 -3 15
-9 0 -19 -5 -22 -11 -4 -6 -14 -8 -22 -5 -9 4 -22 1 -29 -5 -8 -6 -14 -8 -14
-3 0 5 -4 3 -8 -4 -12 -18 -42 -4 -42 19 0 10 -4 19 -10 19 -5 0 -10 7 -10 15
0 8 -4 15 -9 15 -6 0 -7 -15 -4 -33z m56 -61 c4 -9 -2 -17 -14 -21 -10 -4 -19
-11 -19 -16 0 -5 -7 -9 -15 -9 -18 0 -20 30 -2 31 8 0 8 2 -2 6 -11 5 -11 7 0
14 21 13 46 11 52 -5z"/>
<path d="M2760 602 c0 -4 17 -26 38 -48 21 -21 49 -56 62 -77 l23 -39 -24 -22
c-13 -13 -89 -46 -169 -75 -80 -29 -154 -56 -165 -61 -11 -5 -82 -30 -159 -55
-76 -26 -167 -58 -203 -71 -36 -14 -68 -22 -71 -19 -9 8 -3 11 118 59 74 29
105 45 88 45 -15 1 -29 -3 -32 -8 -5 -8 -167 -71 -182 -71 -2 0 -4 5 -4 10 0
6 6 10 14 10 8 0 18 4 21 10 4 6 -1 7 -11 3 -12 -5 -15 -2 -11 13 3 10 8 33
12 51 3 18 14 34 23 36 14 4 14 5 1 6 -12 1 -14 9 -11 34 3 23 1 29 -7 21 -11
-10 -43 -118 -55 -187 -4 -21 -14 -41 -22 -44 -9 -3 -127 13 -262 35 -136 22
-281 43 -322 46 -41 3 -135 17 -209 31 -158 29 -182 30 -249 9 -39 -13 -51
-22 -55 -40 -2 -13 0 -24 4 -24 5 0 9 7 9 15 0 8 6 15 13 15 91 0 476 -58 800
-120 187 -35 244 -37 295 -10 20 11 150 60 287 109 435 156 486 177 521 217
26 28 33 32 38 18 11 -28 6 -54 -10 -61 -15 -5 -16 -19 -10 -101 4 -52 10
-100 13 -106 4 -6 6 -25 4 -42 -1 -18 2 -35 8 -39 6 -3 11 -22 11 -41 0 -24 4
-34 16 -34 10 0 14 6 10 18 -6 22 -14 74 -21 137 -3 28 -9 73 -13 101 -7 43
-6 56 9 75 28 36 24 119 -5 119 -7 0 -21 16 -32 35 -10 19 -22 35 -26 35 -5 0
-8 5 -8 10 0 12 -70 80 -82 80 -4 0 -8 -4 -8 -8z"/>
<path d="M542 542 c-17 -30 -29 -127 -14 -119 5 4 9 15 7 25 -5 31 14 43 40
26 13 -9 28 -13 33 -10 5 3 40 1 78 -5 105 -15 133 -13 190 12 28 13 18 14
-105 12 -75 -1 -152 1 -171 5 -30 7 -36 12 -40 42 -5 34 -6 35 -18 12z"/>
<path d="M2538 514 c-4 -3 -51 -19 -107 -35 -91 -26 -151 -58 -151 -81 0 -12
24 -10 85 9 30 9 55 21 55 26 0 5 -9 7 -20 4 -11 -3 -20 -1 -20 4 0 5 8 9 18
9 18 0 180 55 190 65 3 3 -6 5 -20 5 -13 0 -27 -3 -30 -6z"/>
<path d="M1918 466 c-4 -19 -1 -22 19 -18 28 5 30 18 4 31 -16 9 -20 7 -23
-13z"/>
<path d="M2760 414 c-25 -8 -52 -17 -60 -21 -8 -3 -18 -5 -22 -5 -5 1 -8 -2
-8 -6 0 -7 -62 -32 -90 -37 -15 -2 -189 -79 -186 -82 2 -2 34 8 72 22 38 14
113 41 166 60 166 59 261 110 128 69z"/>
<path d="M2245 410 c-11 -5 -14 -9 -6 -9 8 -1 11 -8 8 -21 -3 -11 -2 -18 3
-15 14 9 28 -19 23 -45 -5 -28 -42 -82 -43 -62 0 6 -8 12 -17 11 -12 0 -13 -2
-5 -6 10 -4 10 -8 1 -19 -28 -34 33 -2 73 38 10 10 16 18 13 18 -3 0 -1 9 5
21 9 15 8 24 -1 35 -9 12 -7 14 17 14 16 1 40 7 54 16 l25 15 -25 -7 c-71 -20
-90 -21 -101 -8 -6 7 -8 18 -4 24 7 12 7 12 -20 0z"/>
<path d="M360 391 c8 -5 40 -11 70 -14 66 -7 36 7 -35 16 -29 4 -44 3 -35 -2z"/>
<path d="M2400 388 c0 -4 -9 -10 -21 -13 -12 -4 -30 -16 -42 -28 -23 -23 -27
-24 78 13 81 29 92 42 33 38 -27 -2 -48 -6 -48 -10z"/>
<path d="M2484 371 c-5 -5 -27 -14 -49 -21 -61 -18 -120 -48 -140 -70 -28 -31
-6 -24 65 20 36 22 80 43 98 46 18 4 35 11 38 16 8 13 0 20 -12 9z"/>
<path d="M1851 332 c-41 -15 -77 -33 -79 -41 -4 -11 2 -12 29 -6 19 4 44 8 56
9 12 1 21 5 20 10 -1 5 22 17 52 26 47 15 51 18 30 23 -30 8 -22 10 -108 -21z"/>
<path d="M0 305 c0 -13 114 -24 307 -28 46 -1 83 -4 83 -7 0 -11 -156 -107
-210 -129 -133 -56 -180 -84 -180 -109 0 -24 1 -24 23 -8 12 9 99 54 192 100
94 47 195 101 224 121 33 23 57 33 63 27 5 -5 8 -39 6 -77 l-3 -67 -125 -64
c-103 -53 -119 -64 -93 -64 41 0 133 34 169 63 15 12 41 28 58 37 33 16 48 50
22 50 -12 0 -15 12 -15 58 1 31 6 60 13 64 6 5 2 8 -12 8 -13 0 -21 4 -18 9 3
4 -99 11 -227 14 -128 3 -242 8 -254 11 -15 3 -23 0 -23 -9z"/>
<path d="M575 277 c4 -62 14 -77 48 -77 18 0 56 -3 85 -6 72 -8 210 21 191 40
-3 3 -50 0 -105 -7 -140 -17 -164 -12 -189 40 -24 51 -33 54 -30 10z"/>
<path d="M2735 223 c-22 -3 -44 -9 -50 -15 -12 -13 69 -2 94 12 9 5 12 9 6 8
-5 -1 -28 -3 -50 -5z"/>
<path d="M2000 212 c0 -5 -17 -9 -39 -10 -21 -1 -49 -6 -62 -11 -22 -9 -22
-10 11 -12 19 -1 44 -1 55 0 22 2 67 41 47 41 -6 0 -12 -4 -12 -8z"/>
<path d="M606 138 c4 -18 7 -39 7 -45 0 -7 4 -13 8 -13 16 0 20 22 9 55 -15
45 -34 47 -24 3z"/>
<path d="M1001 151 c-8 -5 5 -7 35 -4 68 6 77 11 24 12 -25 0 -51 -3 -59 -8z"/>
<path d="M1150 104 c-41 -8 -90 -17 -109 -20 -42 -7 -37 -11 50 -46 83 -33
103 -35 69 -7 -23 20 -23 22 -7 34 40 29 157 26 202 -5 6 -3 30 -13 55 -20 25
-8 48 -18 51 -23 4 -5 37 -11 75 -13 38 -3 66 -3 64 -1 -3 2 -73 30 -156 61
-160 60 -177 62 -294 40z"/>
<path d="M2650 100 c0 -7 14 -8 38 -4 51 9 53 14 4 14 -23 0 -42 -5 -42 -10z"/>
<path d="M2321 89 c-82 -14 -76 -22 11 -15 89 7 150 25 83 24 -22 0 -64 -4
-94 -9z"/>
<path d="M540 68 c-24 -6 -54 -16 -65 -24 -17 -13 -12 -14 55 -14 41 0 104 -5
140 -11 55 -9 149 -4 138 7 -3 2 -42 6 -89 10 -62 5 -89 11 -105 25 -11 11
-22 19 -25 18 -2 -1 -24 -6 -49 -11z"/>
<path d="M970 40 c-19 -12 -14 -15 42 -29 70 -17 89 -13 48 8 -50 26 -73 32
-90 21z"/>
<path d="M2720 10 l-45 -7 58 -1 c37 -1 56 2 52 8 -3 6 -9 9 -13 8 -4 0 -27
-4 -52 -8z"/>
</g>
</svg>
